<svg width="152" height="37" viewBox="0 0 152 37" fill="none" xmlns="http://www.w3.org/2000/svg">
<path d="M41.2744 32.7285C38.7544 32.7285 36.8224 32.3179 35.4784 31.4967C34.1584 30.6526 33.4984 29.4208 33.4984 27.8011C33.4984 26.9799 33.7864 26.3069 34.3624 25.7823C34.9624 25.2348 35.7304 24.961 36.6664 24.961C37.2184 24.9839 37.6384 25.1207 37.9264 25.3717C38.2144 25.5998 38.3584 25.8165 38.3584 26.0218C38.3584 26.0446 38.2384 26.1245 37.9984 26.2613C37.7584 26.3982 37.5424 26.6035 37.3504 26.8773C37.1584 27.151 37.0624 27.5274 37.0624 28.0064C37.0624 29.0786 37.3984 29.9112 38.0704 30.5044C38.7664 31.0747 39.8344 31.3598 41.2744 31.3598C42.2584 31.3598 43.1224 31.1773 43.8664 30.8123C44.6104 30.4473 45.1744 29.9683 45.5584 29.3752C45.9664 28.7592 46.1704 28.1205 46.1704 27.459C46.1704 26.6377 45.9184 25.9306 45.4144 25.3374C44.9344 24.7443 44.3344 24.2539 43.6144 23.8661C42.8944 23.4555 41.9104 22.9878 40.6624 22.4631C39.2224 21.8472 38.0584 21.2883 37.1704 20.7864C36.2824 20.2846 35.5264 19.623 34.9024 18.8018C34.2784 17.9578 33.9664 16.9198 33.9664 15.688C33.9664 13.7033 34.6744 12.2205 36.0904 11.2396C37.5304 10.2587 39.4144 9.76825 41.7424 9.76825C43.5664 9.76825 45.1504 10.1332 46.4944 10.8632C47.8624 11.5932 48.5464 12.6654 48.5464 14.0797C48.5464 14.9009 48.2464 15.5853 47.6464 16.1328C47.0704 16.6575 46.3144 16.9198 45.3784 16.9198C44.8264 16.897 44.4064 16.7715 44.1184 16.5434C43.8304 16.2925 43.6864 16.0644 43.6864 15.8591C43.6864 15.8362 43.8424 15.7564 44.1544 15.6195C44.4904 15.4827 44.7784 15.2773 45.0184 15.0036C45.2824 14.7299 45.4144 14.3535 45.4144 13.8744C45.4144 13.0304 45.0664 12.3688 44.3704 11.8898C43.6984 11.4107 42.8344 11.1712 41.7784 11.1712C40.3144 11.1712 39.1984 11.502 38.4304 12.1635C37.6864 12.8022 37.3144 13.6007 37.3144 14.5588C37.3144 15.3572 37.5424 16.0301 37.9984 16.5776C38.4544 17.1023 39.1864 17.627 40.1944 18.1517C41.0104 18.5623 41.8984 18.9729 42.8584 19.3835C44.3944 20.0451 45.6064 20.6496 46.4944 21.1971C47.4064 21.7446 48.1624 22.4631 48.7624 23.3528C49.3864 24.2425 49.6984 25.3488 49.6984 26.6719C49.6984 27.8125 49.3144 28.8505 48.5464 29.7858C47.8024 30.6983 46.7824 31.4168 45.4864 31.9415C44.2144 32.4662 42.8104 32.7285 41.2744 32.7285Z" fill="white"/>
<path d="M59.4994 32.4548C57.8674 32.4548 56.5714 31.9871 55.6114 31.0519C54.6514 30.1166 54.1714 28.8847 54.1714 27.3563V21.026C54.1714 20.4329 54.1474 19.9994 54.0994 19.7257C54.0754 19.452 53.9314 19.2124 53.6674 19.0071C53.4034 18.8018 52.9594 18.6992 52.3354 18.6992C52.0474 18.6992 51.8314 18.6649 51.6874 18.5965C51.5434 18.5053 51.4714 18.3113 51.4714 18.0148C51.4714 17.8779 51.5194 17.7525 51.6154 17.6384C51.7114 17.5015 51.8554 17.4217 52.0474 17.3989C53.5594 17.1936 54.8554 16.897 55.9354 16.5092C56.2714 16.3951 56.5474 16.3267 56.7634 16.3039H56.8714C57.2554 16.3039 57.4474 16.5206 57.4474 16.954V27.3221C57.4474 28.3714 57.7954 29.1813 58.4914 29.7516C59.1874 30.2991 59.9914 30.5728 60.9034 30.5728C62.0314 30.5728 62.9914 30.3105 63.7834 29.7858C64.5754 29.2611 65.1034 28.7364 65.3674 28.2118V21.026C65.3674 20.4329 65.3434 19.9994 65.2954 19.7257C65.2714 19.452 65.1274 19.2124 64.8634 19.0071C64.5994 18.8018 64.1554 18.6992 63.5314 18.6992C63.2434 18.6992 63.0274 18.6649 62.8834 18.5965C62.7394 18.5053 62.6674 18.3113 62.6674 18.0148C62.6674 17.8779 62.7154 17.7525 62.8114 17.6384C62.9074 17.5015 63.0514 17.4217 63.2434 17.3989C64.7554 17.1936 66.0514 16.897 67.1314 16.5092C67.4674 16.3951 67.7434 16.3267 67.9594 16.3039H68.0674C68.4514 16.3039 68.6434 16.5206 68.6434 16.954V28.7935C68.6434 30.1394 69.5914 30.8123 71.4874 30.8123C71.8954 30.8123 72.0994 31.029 72.0994 31.4625C72.0994 31.7818 71.8954 31.9757 71.4874 32.0442L65.6914 32.4206C65.5234 32.4206 65.4274 32.3635 65.4034 32.2495C65.3794 32.1582 65.3674 31.9871 65.3674 31.7362V29.82H65.2954C64.5994 30.4359 64.0354 30.915 63.6034 31.2572C63.1714 31.5765 62.6074 31.8503 61.9114 32.0784C61.2394 32.3293 60.4354 32.4548 59.4994 32.4548Z" fill="white"/>
<path d="M74.0687 32.1468C73.9007 32.1468 73.7567 32.0784 73.6367 31.9415C73.5407 31.8047 73.4927 31.645 73.4927 31.4625C73.5167 31.1659 73.5887 30.9948 73.7087 30.9492C73.8287 30.8808 74.0447 30.8465 74.3567 30.8465C74.9807 30.8465 75.4247 30.7439 75.6887 30.5386C75.9527 30.3333 76.0967 30.0937 76.1207 29.82C76.1687 29.5463 76.1927 29.1128 76.1927 28.5197V20.6838C76.1927 20.0907 76.1687 19.6573 76.1207 19.3835C76.0967 19.1098 75.9527 18.8702 75.6887 18.6649C75.4247 18.4596 74.9807 18.357 74.3567 18.357C74.0687 18.357 73.8527 18.3228 73.7087 18.2543C73.5647 18.1631 73.4927 17.9692 73.4927 17.6726C73.4927 17.5357 73.5407 17.4103 73.6367 17.2962C73.7327 17.1593 73.8767 17.0795 74.0687 17.0567C75.6287 16.8286 76.9127 16.532 77.9207 16.167C78.3287 16.053 78.6047 15.9845 78.7487 15.9617H78.8567C79.2407 15.9617 79.4327 16.1784 79.4327 16.6119V18.7334H79.5407C80.3807 17.935 81.2327 17.3076 82.0967 16.8514C82.9607 16.3723 83.7407 16.1328 84.4367 16.1328C85.2287 16.1328 85.8527 16.418 86.3087 16.9883C86.7887 17.5357 87.0287 18.1745 87.0287 18.9045C87.0287 19.5432 86.8247 20.1135 86.4167 20.6154C86.0087 21.1172 85.4447 21.3682 84.7247 21.3682C84.3887 21.3682 84.0887 21.2997 83.8247 21.1629C83.5847 21.026 83.4527 20.9119 83.4287 20.8207C83.4527 20.775 83.5727 20.6382 83.7887 20.4101C84.0047 20.1591 84.1127 19.874 84.1127 19.5546C84.1127 19.144 83.9927 18.8132 83.7527 18.5623C83.5367 18.3114 83.2367 18.1859 82.8527 18.1859C82.4447 18.1859 81.9287 18.3798 81.3047 18.7676C80.6807 19.1326 80.0687 19.6002 79.4687 20.1705V28.5197C79.4687 29.1128 79.4927 29.5463 79.5407 29.82C79.5887 30.0937 79.7447 30.3333 80.0087 30.5386C80.2727 30.7439 80.7167 30.8465 81.3407 30.8465H81.5567C81.7487 30.8465 81.8927 30.8808 81.9887 30.9492C82.0847 31.0176 82.1447 31.1887 82.1687 31.4625C82.1687 31.645 82.1207 31.8047 82.0247 31.9415C81.9287 32.0784 81.7847 32.1468 81.5927 32.1468C80.2007 32.0784 78.9407 32.0442 77.8127 32.0442C76.7327 32.0442 75.4847 32.0784 74.0687 32.1468Z" fill="white"/>
<path d="M129.981 32.4548C128.349 32.4548 126.897 32.0898 125.625 31.3598C124.353 30.607 123.357 29.6261 122.637 28.4171C121.941 27.1852 121.593 25.8849 121.593 24.5162C121.593 22.8053 122.013 21.3225 122.853 20.0679C123.693 18.7904 124.761 17.8209 126.057 17.1594C127.353 16.475 128.661 16.1328 129.981 16.1328C131.613 16.1328 133.065 16.5092 134.337 17.262C135.609 17.992 136.593 18.9729 137.289 20.2048C138.009 21.4138 138.369 22.7027 138.369 24.0714C138.369 25.7823 137.937 27.2765 137.073 28.5539C136.233 29.8086 135.165 30.7781 133.869 31.4625C132.573 32.124 131.277 32.4548 129.981 32.4548ZM129.981 31.1887C131.613 31.1887 132.801 30.5272 133.545 29.2041C134.313 27.881 134.697 26.1701 134.697 24.0714C134.697 22.1096 134.301 20.5127 133.509 19.2809C132.741 18.0262 131.565 17.3989 129.981 17.3989C128.325 17.3989 127.125 18.049 126.381 19.3493C125.637 20.6496 125.265 22.3491 125.265 24.4478C125.265 26.4096 125.649 28.0293 126.417 29.3067C127.185 30.5614 128.373 31.1887 129.981 31.1887Z" fill="white"/>
<path d="M147.44 32.6259C146.264 32.6259 145.256 32.2153 144.416 31.394C143.576 30.5728 143.156 29.398 143.156 27.8696V17.8095L141.068 17.8779C140.924 17.8779 140.804 17.8209 140.708 17.7068C140.612 17.57 140.564 17.4217 140.564 17.262C140.564 17.0567 140.6 16.8856 140.672 16.7487C140.768 16.589 140.9 16.4978 141.068 16.475C141.908 16.3153 142.556 16.0644 143.012 15.7222C143.492 15.3572 143.84 14.9694 144.056 14.5588C144.272 14.1253 144.536 13.4752 144.848 12.6083C144.968 12.3118 145.232 12.1635 145.64 12.1635C145.808 12.1635 145.976 12.2091 146.144 12.3004C146.312 12.3688 146.396 12.4829 146.396 12.6426L146.144 16.5434L150.356 16.3039H150.428C150.74 16.3039 150.896 16.5206 150.896 16.954C150.896 17.205 150.848 17.4445 150.752 17.6726C150.68 17.8779 150.584 17.9806 150.464 17.9806L146.432 17.8779V28.2802C146.432 29.033 146.588 29.6603 146.9 30.1622C147.236 30.664 147.776 30.915 148.52 30.915C149.264 30.915 149.924 30.7895 150.5 30.5386C150.812 30.4245 151.004 30.3675 151.076 30.3675C151.244 30.3675 151.376 30.4359 151.472 30.5728C151.568 30.6869 151.664 30.8465 151.76 31.0518C151.784 31.0975 151.796 31.1545 151.796 31.2229C151.796 31.3142 151.724 31.4168 151.58 31.5309C150.884 31.9643 150.224 32.2495 149.6 32.3864C149 32.546 148.28 32.6259 147.44 32.6259Z" fill="white"/>
<path d="M89.2536 31.9415C89.3496 32.0784 89.4936 32.1468 89.6856 32.1468C91.0536 32.0784 92.3016 32.0442 93.4296 32.0442C95.0376 32.0442 96.5376 32.0784 97.9296 32.1468C98.0976 32.1468 98.2296 32.0784 98.3256 31.9415C98.4216 31.8047 98.4696 31.645 98.4696 31.4625C98.4456 31.1887 98.3856 31.0176 98.2896 30.9492C98.2176 30.8808 98.0736 30.8465 97.8576 30.8465H97.6416C96.8496 30.8465 96.2856 30.7895 95.9496 30.6755C95.6136 30.5614 95.3856 30.3561 95.2656 30.0595C95.1456 29.7402 95.0856 29.2269 95.0856 28.5197V17.8779H98.9016C99.0696 17.8779 99.2136 17.8095 99.3336 17.6726C99.4536 17.5357 99.5136 17.3761 99.5136 17.1936C99.4896 16.9198 99.4176 16.7487 99.2976 16.6803C99.2016 16.5891 99.0456 16.5434 98.8296 16.5434H95.0856V14.4903C95.0856 13.3954 95.1336 12.4373 95.2296 11.616C95.3256 10.772 95.6016 9.99638 96.0576 9.28921C96.5136 8.58204 97.2216 8.22845 98.1816 8.22845C98.292 8.22845 98.3988 8.23463 98.5019 8.24699C98.4881 7.86091 98.5155 7.47254 98.581 7.10094C98.5321 7.09982 98.483 7.09926 98.4336 7.09926C96.3216 7.14488 94.6776 7.90908 93.5016 9.39186C92.3496 10.8518 91.7736 12.7566 91.7736 15.1063V16.5434H89.6136C89.3016 16.5434 89.0856 16.5776 88.9656 16.6461C88.8456 16.6917 88.7736 16.8742 88.7496 17.1936C88.7496 17.3761 88.7976 17.5357 88.8936 17.6726C89.0136 17.8095 89.1696 17.8779 89.3616 17.8779H91.7736V28.5197C91.7736 29.1357 91.7496 29.5805 91.7016 29.8542C91.6776 30.1052 91.5336 30.3333 91.2696 30.5386C91.0056 30.7439 90.5616 30.8465 89.9376 30.8465C89.6256 30.8465 89.4096 30.8808 89.2896 30.9492C89.1936 30.9948 89.1336 31.1659 89.1096 31.4625C89.1096 31.645 89.1576 31.8047 89.2536 31.9415Z" fill="white"/>
<path fill-rule="evenodd" clip-rule="evenodd" d="M108.498 8.04976C108.498 10.1495 106.707 11.8518 104.498 11.8518C102.289 11.8518 100.498 10.1495 100.498 8.04976C100.498 5.94997 102.289 4.24776 104.498 4.24776C106.707 4.24776 108.498 5.94997 108.498 8.04976ZM104.498 9.95076C105.603 9.95076 106.498 9.09965 106.498 8.04976C106.498 6.99986 105.603 6.14876 104.498 6.14876C103.394 6.14876 102.498 6.99986 102.498 8.04976C102.498 9.09965 103.394 9.95076 104.498 9.95076Z" fill="white"/>
<path fill-rule="evenodd" clip-rule="evenodd" d="M102.745 13.5055V31.8389C102.745 32.0442 102.805 32.2039 102.925 32.3179C103.045 32.4548 103.213 32.5232 103.429 32.5232C103.645 32.5232 103.825 32.432 103.969 32.2495C104.113 32.0898 104.245 31.8503 104.365 31.5309C104.485 31.2115 104.593 30.9606 104.689 30.7781H104.869C106.429 31.8959 108.277 32.4548 110.413 32.4548C111.853 32.4548 113.209 32.0898 114.481 31.3598C115.753 30.6298 116.761 29.6375 117.505 28.3828C118.273 27.1054 118.657 25.7024 118.657 24.174C118.657 22.6228 118.321 21.2427 117.649 20.0337C117.001 18.8018 116.101 17.8437 114.949 17.1593C113.797 16.475 112.513 16.1328 111.097 16.1328C110.233 16.1328 109.357 16.3039 108.469 16.6461C107.605 16.9654 106.825 17.4559 106.129 18.1174H106.021V13.5674C104.951 13.8337 103.804 13.8124 102.745 13.5055ZM113.617 29.4094C112.729 30.664 111.553 31.2914 110.089 31.2914C109.321 31.2914 108.637 31.1317 108.037 30.8123C107.461 30.493 106.993 30.1166 106.633 29.6831C106.297 29.2269 106.093 28.8163 106.021 28.4513V19.4177C107.053 18.3684 108.325 17.8437 109.837 17.8437C111.541 17.8437 112.825 18.4824 113.689 19.7599C114.553 21.0146 114.985 22.5316 114.985 24.3109C114.985 26.4324 114.529 28.1319 113.617 29.4094Z" fill="white"/>
<path fill-rule="evenodd" clip-rule="evenodd" d="M9.63967 1.18657C10.1612 0.832482 10.8618 0.832482 11.3834 1.18657C17.8802 5.59749 20.8255 10.8854 21.0111 18.4721C21.0968 22.0948 20.7299 25.4119 19.6133 28.2773C18.4681 31.1445 16.4315 33.7936 13.4332 36.0306C13.0549 36.3106 12.5585 36.4018 12.0976 36.2761C11.1793 36.0255 11.023 34.9909 10.5115 34.346C9.99974 34.9913 9.84439 36.0253 8.9254 36.2761C8.46452 36.4018 7.96817 36.3106 7.58987 36.0306C4.5915 33.7936 2.55499 31.1445 1.40971 28.2773C0.293102 25.4119 -0.0737632 22.0948 0.0119281 18.4721C0.197553 10.8854 3.1428 5.59749 9.63967 1.18657ZM12.9984 32.7628C14.8746 31.1231 16.0052 29.3339 16.8041 27.2768C17.8092 24.761 18.0991 21.9825 18.0119 18.5384C17.8672 12.6226 16.4108 8.77274 11.9984 5.19826V15.6538C13.7236 16.0758 14.4984 17.6842 14.4984 19.4558C14.4984 21.2273 13.7236 22.8357 11.9984 23.2578V31.8123C11.9984 31.8123 12.8001 32.5148 12.9984 32.7628ZM7.99835 32.7628C6.12206 31.1231 5.01787 29.3339 4.21893 27.2768C3.21389 24.761 2.92391 21.9825 3.01112 18.5384C3.15557 12.6344 4.60442 8.76798 8.99835 5.19826V15.6538C7.27312 16.0758 6.49835 17.6842 6.49835 19.4558C6.49835 21.2273 7.27312 22.8357 8.99835 23.2578V31.8123C8.99835 31.8123 8.18923 32.5239 7.99835 32.7628ZM10.4984 17.5548C9.39378 17.5548 8.49835 18.4058 8.49835 19.4558C8.49835 20.5057 9.39378 21.3568 10.4984 21.3568C11.6029 21.3568 12.4984 20.5057 12.4984 19.4558C12.4984 18.4058 11.6029 17.5548 10.4984 17.5548Z" fill="white"/>
</svg>
