<svg width="60" height="64" viewBox="0 0 60 64" fill="none" xmlns="http://www.w3.org/2000/svg">
<path fill-rule="evenodd" clip-rule="evenodd" d="M30.7412 14.4996C28.03 14.2801 25.221 14.9015 22.8119 16.1923C19.9585 17.7214 17.3181 20.0847 15.6908 23.0791C14.0578 26.0845 13.2716 29.7373 13.649 33.2039C14.1001 37.3482 15.7425 41.7047 18.7537 44.6328C21.9924 47.7822 26.6537 49.8343 31.1411 49.5098C35.6956 49.1805 40.0608 46.4031 42.9244 42.815C45.3523 39.7731 46.4236 35.6361 46.4467 31.797C46.4617 27.454 45.5205 22.4748 42.4693 19.1397C39.4317 15.8197 34.7626 14.8292 30.7412 14.5041V14.4996ZM30.5711 16.7818C34.3652 17.0887 38.5027 18.1057 40.8953 20.721C43.3313 23.3833 44.2824 27.811 44.2687 31.7836C44.2482 35.1755 43.2526 38.8452 41.2569 41.3457C38.7479 44.4894 34.7791 46.9534 30.9879 47.2276C27.2524 47.4977 23.0423 45.6889 20.234 42.958C17.7348 40.5277 16.2117 36.6348 15.8099 32.9448C15.4921 30.0248 16.1786 26.7873 17.5796 24.209C18.944 21.698 21.2747 19.5817 23.7988 18.2289C25.8441 17.1331 28.2959 16.5977 30.5711 16.7818Z" fill="#269BFF"/>
<path fill-rule="evenodd" clip-rule="evenodd" d="M32.0769 0.0602358C23.9609 -0.526295 15.3876 3.22429 9.48012 8.96589C4.03715 14.2561 0.99586 22.2468 0.168286 29.8452C-0.515978 36.1276 0.918315 42.8237 3.89047 48.2904C6.83835 53.7121 11.6725 58.0454 16.899 60.8448C21.274 63.1879 26.4081 64.3189 31.3197 63.9219C38.7902 63.3183 47.3424 61.4441 52.7765 55.5077C58.2499 49.529 60.0273 40.3999 59.9997 32.3909C59.9592 25.3637 57.9775 17.7871 53.5975 12.3021C48.3626 5.74645 40.3144 0.66052 32.0769 0.0648416V0.0602358ZM31.9281 2.33811C39.4027 2.87868 47.0456 7.65565 51.9257 13.767C55.8736 18.7108 57.7838 25.8206 57.8217 32.3998C57.848 40.0384 56.0647 48.6158 51.2068 53.9222C46.4178 59.1539 38.3929 61.0588 31.1496 61.6442C26.6736 62.006 21.9013 60.9565 17.8901 58.8082C12.9928 56.1854 8.46834 52.0941 5.78346 47.156C3.04357 42.1164 1.70881 35.8399 2.33353 30.1042C3.11158 22.9604 6.0296 15.4378 10.9605 10.6452C16.4375 5.32202 24.5637 1.80578 31.9281 2.33811Z" fill="#269BFF"/>
<path fill-rule="evenodd" clip-rule="evenodd" d="M17.4392 4.20056L15.559 5.35729L22.6375 18.0769L24.5177 16.9202L17.4392 4.20056Z" fill="#269BFF"/>
<path fill-rule="evenodd" clip-rule="evenodd" d="M43.9071 4.86155L36.4202 16.7237L38.2324 17.9876L45.7193 6.12547L43.9071 4.86155Z" fill="#269BFF"/>
<path fill-rule="evenodd" clip-rule="evenodd" d="M53.9166 15.232L43.0265 22.092L44.1496 24.0526L55.0396 17.1926L53.9166 15.232Z" fill="#269BFF"/>
<path fill-rule="evenodd" clip-rule="evenodd" d="M44.5537 37.6655L43.4392 39.6306L56.235 47.6339L57.3495 45.6688L44.5537 37.6655Z" fill="#269BFF"/>
<path fill-rule="evenodd" clip-rule="evenodd" d="M39.5766 44.981L37.5262 45.7537L42.4267 60.0454L44.4771 59.2727L39.5766 44.981Z" fill="#269BFF"/>
<path fill-rule="evenodd" clip-rule="evenodd" d="M21.4124 45.7939L14.6061 58.0847L16.4863 59.2325L23.2926 46.9417L21.4124 45.7939Z" fill="#269BFF"/>
<path fill-rule="evenodd" clip-rule="evenodd" d="M16.3757 38.3667L4.26056 45.5125L5.32404 47.5089L17.4392 40.363L16.3757 38.3667Z" fill="#269BFF"/>
<path fill-rule="evenodd" clip-rule="evenodd" d="M5.36658 15.8706L4.32862 17.8804L15.627 24.3117L16.665 22.3019L5.36658 15.8706Z" fill="#269BFF"/>
<path fill-rule="evenodd" clip-rule="evenodd" d="M7.06389 19.9215C6.94025 19.9167 6.81872 19.9564 6.71932 20.0338L2.15912 23.4638C2.04177 23.5526 1.96284 23.6868 1.9397 23.8367C1.91655 23.9866 1.95109 24.14 2.0357 24.2632C2.12032 24.3864 2.24809 24.4692 2.3909 24.4935C2.53371 24.5178 2.67986 24.4816 2.79721 24.3927L7.35741 20.9627C7.45152 20.8941 7.52263 20.7962 7.56063 20.6827C7.59863 20.5693 7.60158 20.4461 7.56907 20.3308C7.53656 20.2154 7.47023 20.1139 7.37954 20.0405C7.28884 19.967 7.17839 19.9253 7.06389 19.9215Z" fill="#269BFF"/>
<path fill-rule="evenodd" clip-rule="evenodd" d="M7.79982 21.7079C7.65777 21.7053 7.52038 21.7611 7.41697 21.8634L1.35938 27.723C1.30658 27.774 1.26388 27.8355 1.2337 27.9038C1.20352 27.9722 1.18646 28.046 1.18349 28.1213C1.18053 28.1966 1.19172 28.2716 1.21642 28.3424C1.24112 28.4131 1.27885 28.4781 1.32746 28.5336C1.37606 28.589 1.43459 28.6339 1.4997 28.6656C1.56481 28.6973 1.63523 28.715 1.70692 28.7181C1.77862 28.7212 1.8502 28.7094 1.91757 28.6835C1.98494 28.6575 2.04678 28.6178 2.09957 28.5668L8.15715 22.7072C8.23989 22.6305 8.2985 22.5296 8.32522 22.4172C8.35193 22.3048 8.34549 22.1862 8.30674 22.0777C8.268 21.9693 8.19878 21.8757 8.10825 21.8095C8.01773 21.7432 7.91017 21.7085 7.79982 21.7079Z" fill="#269BFF"/>
<path fill-rule="evenodd" clip-rule="evenodd" d="M8.6421 24.2091C8.52038 24.2179 8.40503 24.2694 8.31454 24.3553L0.487331 31.5729C0.430428 31.6212 0.383382 31.6809 0.349005 31.7488C0.314627 31.8166 0.293623 31.8911 0.287246 31.9676C0.280869 32.0441 0.289251 32.1212 0.311891 32.1943C0.33453 32.2673 0.370964 32.3348 0.419014 32.3927C0.467064 32.4507 0.525746 32.4979 0.591554 32.5315C0.657361 32.5651 0.728945 32.5845 0.802029 32.5884C0.875112 32.5923 0.948196 32.5808 1.01692 32.5543C1.08563 32.5279 1.14858 32.4871 1.20199 32.4346L9.03346 25.2176C9.1223 25.1399 9.18531 25.0344 9.21335 24.9167C9.24138 24.7989 9.233 24.6749 9.18941 24.5624C9.14583 24.45 9.06929 24.3551 8.9709 24.2914C8.8725 24.2277 8.75734 24.1995 8.6421 24.2091Z" fill="#269BFF"/>
<path fill-rule="evenodd" clip-rule="evenodd" d="M9.09727 26.9958C8.95582 26.992 8.81851 27.0459 8.71441 27.1466L1.02332 34.4353C0.916176 34.5372 0.851956 34.6798 0.84479 34.8314C0.837624 34.983 0.888098 35.1312 0.985112 35.2437C1.08213 35.3562 1.21773 35.4237 1.36211 35.4313C1.50649 35.4388 1.64781 35.3857 1.755 35.2839L9.44609 27.9951C9.52833 27.919 9.58676 27.8186 9.61374 27.7071C9.64072 27.5955 9.63498 27.478 9.59729 27.3699C9.5596 27.2618 9.4917 27.1683 9.40249 27.1013C9.31327 27.0344 9.20689 26.9982 9.09727 26.9958Z" fill="#269BFF"/>
<path fill-rule="evenodd" clip-rule="evenodd" d="M9.87148 29.7827C9.7503 29.7903 9.63501 29.8402 9.54393 29.9245L1.24027 37.4276C1.18448 37.4761 1.13844 37.5356 1.10487 37.6029C1.0713 37.6703 1.05086 37.744 1.04475 37.8198C1.03864 37.8956 1.04698 37.9719 1.06929 38.0442C1.09159 38.1166 1.12742 38.1834 1.17466 38.241C1.2219 38.2986 1.27961 38.3458 1.34442 38.3797C1.40923 38.4137 1.47983 38.4337 1.55209 38.4386C1.62435 38.4436 1.69682 38.4333 1.76526 38.4085C1.8337 38.3837 1.89674 38.3448 1.95068 38.2941L10.2543 30.7909C10.3424 30.7137 10.4049 30.6093 10.4331 30.4925C10.4612 30.3758 10.4535 30.2527 10.4111 30.1408C10.3686 30.0289 10.2936 29.9337 10.1967 29.8692C10.0998 29.8047 9.98598 29.7752 9.87148 29.7827Z" fill="#269BFF"/>
<path fill-rule="evenodd" clip-rule="evenodd" d="M10.8244 32.9983C10.7017 33.0049 10.5848 33.0549 10.4926 33.1401L2.12084 40.7147C2.01143 40.8142 1.94415 40.9553 1.93379 41.1069C1.92343 41.2585 1.97085 41.4079 2.06561 41.5228C2.16037 41.6377 2.29471 41.7084 2.43909 41.7193C2.58347 41.7302 2.72606 41.6806 2.83549 41.5811L11.2072 34.0065C11.2952 33.9293 11.3578 33.8246 11.3859 33.7079C11.4141 33.5911 11.4064 33.4681 11.3639 33.3562C11.3215 33.2443 11.2465 33.1493 11.1496 33.0848C11.0527 33.0204 10.9389 32.9909 10.8244 32.9983Z" fill="#269BFF"/>
<path fill-rule="evenodd" clip-rule="evenodd" d="M11.4454 36.5713C11.323 36.5772 11.2061 36.6262 11.1136 36.7105L3.15028 43.7135C3.09526 43.7616 3.04979 43.8208 3.01648 43.8874C2.98318 43.9539 2.96268 44.0266 2.95616 44.1015C2.94965 44.1763 2.95724 44.2516 2.9785 44.3234C2.99977 44.3952 3.0343 44.4619 3.08011 44.5196C3.12592 44.5774 3.18212 44.6253 3.2455 44.6603C3.30888 44.6953 3.3782 44.7166 3.4495 44.7234C3.5208 44.7302 3.59269 44.7223 3.66105 44.6999C3.72941 44.6776 3.79291 44.6414 3.84793 44.5933L11.8113 37.5904C11.9014 37.515 11.9664 37.4117 11.997 37.2951C12.0276 37.1784 12.0222 37.0546 11.9815 36.9414C11.9409 36.8282 11.8671 36.7314 11.7707 36.665C11.6744 36.5987 11.5605 36.5654 11.4454 36.5713Z" fill="#269BFF"/>
</svg>
