<svg width="60" height="61" viewBox="0 0 60 61" fill="none" xmlns="http://www.w3.org/2000/svg">
<path fill-rule="evenodd" clip-rule="evenodd" d="M13.8658 10.7006C13.689 10.6947 13.5128 10.7242 13.3481 10.7868C13.1833 10.8495 13.0335 10.9442 12.9078 11.0652C12.9078 11.0652 7.9558 15.8004 5.60354 18.5088C4.20153 20.1225 2.47627 21.7925 1.40143 24.0262C0.581024 25.731 -0.0529283 27.6838 0.0226977 29.7309C0.0943842 31.6574 0.897985 33.3486 1.64474 34.8148C2.79364 37.0707 5.58833 40.2978 5.58833 40.2978C5.69648 40.4259 5.82954 40.5318 5.9799 40.61C6.13027 40.6881 6.295 40.7369 6.46469 40.7532C6.63438 40.7694 6.8057 40.7529 6.96888 40.7048C7.13205 40.6567 7.28388 40.5778 7.41569 40.4727C7.5475 40.3675 7.65671 40.2383 7.73709 40.0921C7.81747 39.946 7.86744 39.7859 7.88415 39.621C7.90085 39.4561 7.88397 39.2894 7.83446 39.1309C7.78496 38.9723 7.70379 38.8248 7.59561 38.6967C7.59561 38.6967 4.77046 35.2654 3.97136 33.6965C3.25905 32.298 2.66007 30.9102 2.6129 29.6422C2.55876 28.1768 3.04156 26.5745 3.75339 25.0952C4.57674 23.3841 6.09687 21.8481 7.58547 20.1345C9.43783 18.0019 12.6863 14.8861 13.7442 13.8633C14.6993 14.9128 17.2996 17.7281 18.6458 19.6862C19.9564 21.5928 21.2409 23.4312 21.8037 25.3514C22.3425 27.1891 22.5009 29.1929 22.1737 31.0314C21.9663 32.1922 21.3983 33.3778 20.6581 34.4404C20.341 34.8957 19.5057 35.7391 18.7877 36.3863C18.0697 37.0333 17.4647 37.5194 17.4647 37.5194C17.3332 37.6251 17.2245 37.7551 17.1446 37.9018C17.0648 38.0484 17.0155 38.2089 16.9995 38.3741C16.9835 38.5392 17.0011 38.7057 17.0513 38.8642C17.1016 39.0228 17.1834 39.17 17.2923 39.2977C17.4011 39.4255 17.5348 39.5315 17.6857 39.609C17.8365 39.6866 18.0016 39.7345 18.1716 39.75C18.3415 39.7656 18.5129 39.7484 18.676 39.6995C18.8392 39.6507 18.9908 39.571 19.1222 39.4652C19.1222 39.4652 19.7766 38.9321 20.5517 38.2337C21.3267 37.535 22.2151 36.7045 22.8073 35.8543C23.6995 34.5737 24.4426 33.0923 24.7335 31.4649C25.1376 29.1949 24.9344 26.8388 24.2976 24.6667C23.5762 22.2057 22.0981 20.1729 20.8051 18.292C18.9381 15.5766 14.7833 11.1243 14.7833 11.1243C14.6671 10.9982 14.526 10.8963 14.3683 10.8244C14.2107 10.7525 14.0398 10.7123 13.8658 10.7059V10.7006Z" fill="#269BFF"/>
<path fill-rule="evenodd" clip-rule="evenodd" d="M17.3887 0.133638C14.0501 -0.486082 10.9499 1.17735 8.48773 2.49826C6.18922 3.73139 3.9777 5.44846 2.51152 7.72505C0.869905 10.274 0.218628 13.2843 0.0226972 16.1145C-0.0928 17.7928 0.25277 19.9094 0.60055 21.7009C0.948329 23.4925 1.32033 24.9227 1.32033 24.9227L3.8345 24.3069C3.8345 24.3069 3.48199 22.942 3.1502 21.2329C2.8184 19.5236 2.53375 17.4322 2.6129 16.282C2.79068 13.7139 3.39961 11.102 4.71141 9.065C5.85971 7.28227 7.72947 5.78653 9.74481 4.70524C12.156 3.41157 14.773 2.21658 16.9021 2.61156C18.8219 2.96796 20.7494 4.68395 22.0318 6.53782C23.3672 8.46835 23.9903 11.0626 23.9934 13.5233C23.9954 15.1658 22.8647 17.0271 22.3055 19.3708C21.9622 20.81 21.4843 23.5089 21.4843 23.5089L24.0441 23.9375C24.0441 23.9375 24.5366 21.1881 24.8349 19.9373H24.8297C25.2551 18.1541 26.5918 16.1172 26.5886 13.5233C26.5849 10.6656 25.9035 7.61181 24.1859 5.1289C22.6696 2.9368 20.3963 0.691814 17.3887 0.133638Z" fill="#269BFF"/>
<path fill-rule="evenodd" clip-rule="evenodd" d="M2.10094 34.5979C2.10094 34.5979 0.587639 42.8155 0.706993 47.3324C0.771966 49.8315 0.438164 52.9909 2.1719 55.6628H2.16684C3.80765 58.1921 6.61048 60.1555 9.68906 60.6925C12.597 61.1995 15.5827 60.2164 17.8702 58.7121C20.4754 56.9993 22.3437 54.303 23.3091 51.4902C24.3202 48.5442 23.5821 45.5998 23.4866 43.1303C23.3851 40.4655 22.7921 35.4554 22.7921 35.4554L20.2121 35.7411C20.2121 35.7411 20.8052 40.8184 20.8964 43.2242C21.004 46.0269 21.552 48.6342 20.8457 50.6921C20.0448 53.0257 18.4391 55.2913 16.4205 56.6188C14.5914 57.8214 12.1345 58.556 10.1503 58.21C7.92626 57.8223 5.59941 56.2179 4.36674 54.3179C3.25035 52.5974 3.37226 49.9604 3.30228 47.2687C3.20051 43.4177 4.66074 35.0318 4.66074 35.0318L2.10094 34.5979Z" fill="#269BFF"/>
<path fill-rule="evenodd" clip-rule="evenodd" d="M13.7087 7.89746C13.3645 7.89618 13.0339 8.02763 12.7896 8.26323C12.5453 8.49884 12.4073 8.81917 12.406 9.15366L12.3502 12.0503C12.3468 12.2159 12.377 12.3804 12.4391 12.5346C12.5011 12.6889 12.5939 12.8299 12.712 12.9494C12.83 13.0688 12.9712 13.1647 13.1273 13.2311C13.2834 13.2975 13.4515 13.3334 13.6219 13.3367C13.7923 13.34 13.9617 13.3105 14.1205 13.2502C14.2792 13.1899 14.4242 13.0998 14.5471 12.9851C14.67 12.8703 14.7684 12.7332 14.8368 12.5814C14.9052 12.4297 14.9421 12.2664 14.9455 12.1008L15.0013 9.19923C15.0067 9.03073 14.9773 8.86264 14.9148 8.70537C14.8524 8.5481 14.7581 8.40482 14.6376 8.28356C14.5171 8.16229 14.3728 8.06551 14.2133 7.99937C14.0537 7.93323 13.8822 7.89805 13.7087 7.89746Z" fill="#269BFF"/>
<path fill-rule="evenodd" clip-rule="evenodd" d="M46.1546 10.7004C45.9771 10.7042 45.8023 10.7432 45.641 10.8153C45.4797 10.8873 45.3354 10.9907 45.2168 11.1191C45.2168 11.1191 41.062 15.5714 39.195 18.2869C37.9021 20.1677 36.4239 22.2005 35.7025 24.6615C35.0657 26.8337 34.8625 29.1898 35.2666 31.4598C35.5575 33.0872 36.3006 34.5683 37.1928 35.8488C37.785 36.6991 38.6734 37.5299 39.4484 38.2285C40.2235 38.9269 40.8779 39.4601 40.8779 39.4601C41.0093 39.5659 41.161 39.6456 41.3241 39.6944C41.4872 39.7432 41.6586 39.7601 41.8285 39.7446C41.9985 39.729 42.1636 39.6811 42.3145 39.6036C42.4653 39.526 42.599 39.4204 42.7078 39.2926C42.8167 39.1648 42.8986 39.0173 42.9488 38.8588C42.999 38.7002 43.0167 38.5338 43.0006 38.3686C42.9846 38.2035 42.9353 38.0429 42.8555 37.8963C42.7756 37.7497 42.6669 37.62 42.5354 37.5142C42.5354 37.5142 41.9304 37.0281 41.2124 36.3812C40.4944 35.734 39.6591 34.8905 39.342 34.4353C38.6018 33.3727 38.0338 32.1867 37.8264 31.026C37.4992 29.1875 37.6576 27.184 38.1964 25.3463C38.7592 23.4261 40.0437 21.5876 41.3543 19.681C42.7006 17.723 45.3008 14.9077 46.256 13.8582C47.3139 14.8809 50.5623 17.9968 52.4146 20.1293C53.9032 21.843 55.4234 23.379 56.2467 25.0901C56.9586 26.5694 57.4414 28.1713 57.3872 29.6368C57.34 30.9047 56.7411 32.2928 56.0288 33.6914C55.2297 35.2603 52.4045 38.6916 52.4045 38.6916C52.2963 38.8197 52.2152 38.9672 52.1657 39.1257C52.1162 39.2843 52.0993 39.4507 52.116 39.6156C52.1327 39.7805 52.1827 39.9408 52.2631 40.087C52.3435 40.2331 52.4527 40.3624 52.5845 40.4675C52.7163 40.5726 52.8681 40.6513 53.0313 40.6994C53.1944 40.7475 53.3657 40.764 53.5354 40.7477C53.7051 40.7314 53.8698 40.683 54.0202 40.6048C54.1706 40.5267 54.3036 40.4204 54.4118 40.2923C54.4118 40.2923 57.2065 37.0653 58.3554 34.8094C59.1021 33.3432 59.9057 31.6522 59.9774 29.7257C60.053 27.6787 59.4191 25.7259 58.5987 24.0211C57.5238 21.7874 55.7986 20.1174 54.3966 18.5037C52.0443 15.7953 47.0923 11.06 47.0923 11.06C46.969 10.9415 46.8225 10.848 46.6614 10.7854C46.5004 10.7228 46.328 10.6922 46.1546 10.6955V10.7004Z" fill="#269BFF"/>
<path fill-rule="evenodd" clip-rule="evenodd" d="M42.6114 0.133638C39.6038 0.691814 37.3304 2.9368 35.814 5.1289C34.0964 7.61181 33.415 10.6656 33.4114 13.5233C33.4083 16.1172 34.7448 18.1541 35.1703 19.9373H35.1651C35.4634 21.1881 35.9559 23.9375 35.9559 23.9375L38.5156 23.5089C38.5156 23.5089 38.0377 20.81 37.6945 19.3708C37.1353 17.0271 36.0045 15.1658 36.0065 13.5233C36.0097 11.0626 36.6328 8.46835 37.9682 6.53782C39.2506 4.68395 41.1781 2.96796 43.0979 2.61156C45.227 2.21658 47.844 3.41157 50.2552 4.70524C52.2705 5.78653 54.1403 7.28227 55.2886 9.065C56.6004 11.102 57.2093 13.7139 57.3871 16.282C57.4662 17.4322 57.1816 19.5236 56.8498 21.2329C56.518 22.942 56.1655 24.3069 56.1655 24.3069L58.6796 24.9227C58.6796 24.9227 59.0517 23.4925 59.3994 21.7009C59.7472 19.9094 60.0928 17.7928 59.9773 16.1145C59.7813 13.2843 59.1301 10.274 57.4885 7.72505C56.0223 5.44846 53.8108 3.73139 51.5123 2.49826C49.0501 1.17735 45.95 -0.486082 42.6114 0.133638Z" fill="#269BFF"/>
<path fill-rule="evenodd" clip-rule="evenodd" d="M57.8992 34.5979L55.3394 35.0314C55.3394 35.0314 56.7996 43.4174 56.6979 47.2684C56.6279 49.9601 56.7498 52.5974 55.6334 54.3179C54.4007 56.2179 52.0739 57.822 49.8498 58.2096C47.8657 58.5557 45.4087 57.8211 43.5796 56.6185C41.5611 55.291 39.9553 53.0257 39.1545 50.6921C38.4481 48.6342 38.9962 46.0266 39.1038 43.2239C39.1949 40.8181 39.7881 35.7408 39.7881 35.7408L37.208 35.4551C37.208 35.4551 36.6145 40.4714 36.5136 43.1352C36.418 45.6047 35.6799 48.5491 36.691 51.4951C37.6565 54.3079 39.5247 57.0039 42.1299 58.7167C44.4174 60.221 47.4031 61.2044 50.3111 60.6974C53.3897 60.1604 56.1925 58.1967 57.8333 55.6674H57.8281C59.5618 52.9955 59.2281 49.8361 59.293 47.337C59.4124 42.8201 57.8991 34.6029 57.8991 34.6029L57.8992 34.5979Z" fill="#269BFF"/>
<path fill-rule="evenodd" clip-rule="evenodd" d="M46.2509 7.89731C45.9075 7.90891 45.5829 8.05221 45.3482 8.29604C45.1135 8.53986 44.9879 8.86414 44.9989 9.19785L45.0546 12.0994C45.0615 12.4339 45.2048 12.7522 45.453 12.984C45.7012 13.2158 46.034 13.342 46.3782 13.3353C46.7224 13.3286 47.0497 13.1895 47.2882 12.9483C47.5266 12.7071 47.6568 12.3834 47.6499 12.0489L47.5941 9.15259C47.5936 8.98359 47.558 8.81629 47.4897 8.66089C47.4213 8.50549 47.3216 8.3652 47.1963 8.248C47.071 8.13081 46.9227 8.03932 46.7603 7.97891C46.5979 7.91849 46.4247 7.89139 46.2509 7.89731Z" fill="#269BFF"/>
<path fill-rule="evenodd" clip-rule="evenodd" d="M6.68318 40.8691C6.53734 40.8757 6.39804 40.93 6.28781 41.0231L1.70047 44.8111C1.5694 44.9195 1.48801 45.0742 1.47422 45.2409C1.46044 45.4077 1.51537 45.5729 1.62695 45.7003C1.73853 45.8277 1.89761 45.907 2.06919 45.9204C2.24078 45.9339 2.41082 45.8805 2.54191 45.772L7.12925 41.9834C7.23325 41.8987 7.30731 41.7845 7.34101 41.6567C7.37471 41.529 7.36636 41.3941 7.31712 41.2713C7.26788 41.1484 7.18024 41.0436 7.06653 40.9717C6.95281 40.8997 6.81874 40.8632 6.68318 40.8691Z" fill="#269BFF"/>
<path fill-rule="evenodd" clip-rule="evenodd" d="M7.60572 42.8741C7.43704 42.8792 7.27704 42.9478 7.15965 43.0656L1.42675 48.7506C1.3654 48.8094 1.31672 48.8795 1.28355 48.9568C1.25038 49.0342 1.2334 49.1172 1.23358 49.201C1.23377 49.2848 1.25112 49.3677 1.28463 49.4449C1.31814 49.522 1.36713 49.592 1.42874 49.6505C1.49035 49.7091 1.56335 49.7552 1.64348 49.786C1.72361 49.8169 1.80926 49.8317 1.89543 49.83C1.98159 49.8284 2.06656 49.8101 2.14535 49.7761C2.22415 49.7422 2.2952 49.6933 2.35436 49.6324L8.08726 43.9474C8.17857 43.8578 8.24013 43.7435 8.26396 43.6195C8.2878 43.4955 8.27283 43.3675 8.22097 43.2519C8.16912 43.1363 8.08278 43.0386 7.9731 42.9711C7.86342 42.9036 7.73545 42.8701 7.60572 42.8741Z" fill="#269BFF"/>
<path fill-rule="evenodd" clip-rule="evenodd" d="M8.49282 45.5491C8.32651 45.5632 8.17219 45.6391 8.06197 45.7609L2.09589 52.2291C1.98098 52.3539 1.92177 52.5179 1.93129 52.6851C1.94081 52.8523 2.01827 53.0091 2.14664 53.1208C2.27501 53.2325 2.44378 53.2898 2.61582 53.2806C2.78786 53.2714 2.94909 53.1963 3.06405 53.0715L9.02505 46.6033C9.11306 46.5098 9.17003 46.3926 9.18852 46.2671C9.20701 46.1416 9.18617 46.0136 9.12871 45.8998C9.07126 45.786 8.97985 45.6917 8.86642 45.6291C8.75299 45.5666 8.6228 45.5387 8.49282 45.5491Z" fill="#269BFF"/>
<path fill-rule="evenodd" clip-rule="evenodd" d="M9.40517 48.224C9.23732 48.2407 9.08278 48.3204 8.97432 48.446L3.35293 54.6876C3.29385 54.7495 3.24818 54.8221 3.21863 54.9016C3.18908 54.981 3.17624 55.0654 3.18089 55.1497C3.18554 55.2341 3.20757 55.3167 3.24568 55.3927C3.2838 55.4686 3.33721 55.5364 3.40275 55.5919C3.4683 55.6473 3.54464 55.6894 3.62725 55.7156C3.70986 55.7419 3.79705 55.7517 3.88365 55.7446C3.97024 55.7374 4.05449 55.7134 4.13137 55.6741C4.20825 55.6347 4.27622 55.5806 4.33122 55.5152L9.94754 49.2733C10.0347 49.1789 10.0905 49.0615 10.1078 48.9358C10.1251 48.8102 10.1031 48.6824 10.0445 48.5691C9.98597 48.4558 9.89365 48.3622 9.7796 48.3006C9.66554 48.2391 9.53506 48.2123 9.40517 48.224Z" fill="#269BFF"/>
<path fill-rule="evenodd" clip-rule="evenodd" d="M10.4545 50.0072C10.3598 50.0131 10.2677 50.0391 10.1845 50.0833C10.1013 50.1275 10.0291 50.1891 9.97291 50.2634L5.15748 56.505C5.10622 56.5713 5.0689 56.6467 5.04765 56.727C5.02641 56.8073 5.02165 56.8909 5.03365 56.973C5.04565 57.0551 5.07417 57.1341 5.11759 57.2055C5.16101 57.2769 5.21848 57.3395 5.28671 57.3893C5.35494 57.4391 5.4326 57.4752 5.51525 57.4958C5.5979 57.5165 5.68393 57.5213 5.76842 57.5097C5.85291 57.498 5.93421 57.4703 6.00768 57.4281C6.08114 57.3859 6.14534 57.33 6.1966 57.2637L11.012 51.0221C11.0885 50.9259 11.1347 50.8103 11.1451 50.6892C11.1556 50.5681 11.1298 50.4467 11.0709 50.3395C11.012 50.2323 10.9225 50.1437 10.8131 50.0848C10.7038 50.0259 10.5792 49.999 10.4545 50.0072Z" fill="#269BFF"/>
<path fill-rule="evenodd" clip-rule="evenodd" d="M11.7115 52.5692C11.6174 52.5763 11.5259 52.6035 11.4436 52.6486C11.3613 52.6937 11.2901 52.7557 11.2351 52.8303L7.33203 57.9585C7.28054 58.0251 7.24312 58.101 7.22194 58.1818C7.20076 58.2625 7.19624 58.3463 7.20864 58.4287C7.22104 58.5111 7.25012 58.5903 7.29419 58.6618C7.33826 58.7332 7.39645 58.7955 7.46541 58.845C7.53437 58.8944 7.61272 58.9301 7.69595 58.9499C7.77917 58.9698 7.86562 58.9735 7.95031 58.9607C8.03499 58.9479 8.11623 58.9189 8.18933 58.8754C8.26243 58.832 8.32595 58.7748 8.37622 58.7073L12.2742 53.5791C12.3495 53.4825 12.3945 53.367 12.404 53.2462C12.4135 53.1254 12.3869 53.0045 12.3276 52.898C12.2683 52.7915 12.1786 52.7038 12.0693 52.6455C11.9601 52.5872 11.8359 52.5607 11.7115 52.5692Z" fill="#269BFF"/>
<path fill-rule="evenodd" clip-rule="evenodd" d="M12.8622 55.0222C12.7456 55.0295 12.6332 55.067 12.5368 55.1312C12.4405 55.1954 12.3637 55.2837 12.3147 55.3868L10.8245 58.3967C10.7499 58.5476 10.74 58.7209 10.7971 58.8789C10.8541 59.0368 10.9734 59.1663 11.1287 59.2388C11.2839 59.3113 11.4624 59.321 11.625 59.2656C11.7875 59.2102 11.9208 59.0944 11.9954 58.9435L13.4856 55.9336C13.5368 55.8342 13.5601 55.7236 13.5531 55.6128C13.5461 55.5019 13.5091 55.3946 13.4458 55.3021C13.3825 55.2096 13.2952 55.1351 13.1927 55.0859C13.0902 55.0368 12.9762 55.0148 12.8622 55.0222Z" fill="#269BFF"/>
<path fill-rule="evenodd" clip-rule="evenodd" d="M8.47253 6.47853C8.30385 6.48362 8.14385 6.5522 8.02647 6.67004L1.4572 12.9757C1.39492 13.0335 1.34511 13.1028 1.31068 13.1795C1.27625 13.2563 1.25789 13.339 1.25667 13.4227C1.25545 13.5065 1.2714 13.5896 1.30358 13.6672C1.33576 13.7449 1.38354 13.8155 1.44411 13.875C1.50469 13.9346 1.57686 13.9818 1.65641 14.0139C1.73595 14.046 1.82129 14.0625 1.90744 14.0622C1.99359 14.062 2.07882 14.0453 2.15817 14.0127C2.23752 13.9801 2.3094 13.9322 2.3696 13.8723L8.9338 7.56662C9.02921 7.47903 9.09504 7.36557 9.1226 7.24087C9.15017 7.11616 9.13818 6.98626 9.08822 6.86832C9.03825 6.75037 8.95266 6.64982 8.84274 6.58013C8.73282 6.51044 8.60374 6.47545 8.47253 6.47853Z" fill="#269BFF"/>
<path fill-rule="evenodd" clip-rule="evenodd" d="M8.4269 9.63159C8.33282 9.62863 8.23921 9.64545 8.15256 9.68116C8.0659 9.71688 7.98828 9.77041 7.92508 9.83819L1.1125 16.932C1.05424 16.9925 1.00882 17.0636 0.978815 17.1411C0.948812 17.2187 0.934822 17.3012 0.937642 17.384C0.940461 17.4668 0.960035 17.5484 0.995247 17.6239C1.03046 17.6993 1.08062 17.7674 1.14286 17.824C1.2051 17.8806 1.27821 17.9245 1.35801 17.9536C1.43781 17.9828 1.52273 17.9964 1.60793 17.9937C1.69313 17.9909 1.77694 17.9719 1.85457 17.9376C1.93221 17.9034 2.00214 17.8546 2.06038 17.7941L8.87296 10.7003C8.9604 10.6125 9.01971 10.5022 9.0437 10.3822C9.06768 10.2623 9.05529 10.138 9.00804 10.0248C8.96079 9.91155 8.88071 9.81411 8.77754 9.74428C8.67438 9.67446 8.55256 9.63539 8.4269 9.63159Z" fill="#269BFF"/>
<path fill-rule="evenodd" clip-rule="evenodd" d="M8.40664 13.1785C8.23767 13.1796 8.07582 13.2449 7.95551 13.3602L2.03506 18.7985C1.96606 18.8532 1.90939 18.9214 1.86858 18.9983C1.82777 19.0752 1.80369 19.1595 1.79785 19.2459C1.792 19.3322 1.80451 19.4187 1.8346 19.5002C1.86468 19.5816 1.9117 19.6564 1.97273 19.7194C2.03375 19.7824 2.10748 19.8324 2.18931 19.8666C2.27114 19.9007 2.35934 19.9181 2.44839 19.9177C2.53745 19.9173 2.62547 19.8993 2.70697 19.8644C2.78847 19.8295 2.8617 19.7787 2.92211 19.7151L8.84256 14.2762C8.93988 14.1907 9.00825 14.0784 9.03865 13.9544C9.06905 13.8304 9.06005 13.7005 9.01284 13.5815C8.96563 13.4626 8.88243 13.3602 8.77421 13.2881C8.66599 13.2161 8.53783 13.1784 8.40664 13.1785Z" fill="#269BFF"/>
<path fill-rule="evenodd" clip-rule="evenodd" d="M42.2059 40.8691C42.0601 40.8757 41.9208 40.93 41.8105 41.0231L37.2232 44.8111C37.0921 44.9195 37.0107 45.0742 36.9969 45.2409C36.9831 45.4077 37.0381 45.5729 37.1497 45.7003C37.2612 45.8277 37.4203 45.907 37.5919 45.9204C37.7635 45.9338 37.9336 45.8805 38.0646 45.772L42.652 41.9834C42.756 41.8987 42.83 41.7845 42.8637 41.6567C42.8974 41.529 42.8891 41.3941 42.8399 41.2713C42.7906 41.1484 42.703 41.0436 42.5893 40.9717C42.4755 40.8997 42.3415 40.8632 42.2059 40.8691Z" fill="#269BFF"/>
<path fill-rule="evenodd" clip-rule="evenodd" d="M43.1284 42.8741C42.9598 42.8792 42.7998 42.9478 42.6824 43.0656L36.9495 48.7506C36.8881 48.8094 36.8395 48.8795 36.8063 48.9568C36.7731 49.0342 36.7561 49.1172 36.7563 49.201C36.7565 49.2848 36.7739 49.3677 36.8074 49.4449C36.8409 49.522 36.8899 49.592 36.9515 49.6505C37.0131 49.7091 37.0861 49.7552 37.1662 49.786C37.2463 49.8169 37.332 49.8317 37.4182 49.83C37.5043 49.8284 37.5893 49.8101 37.6681 49.7761C37.7469 49.7422 37.8179 49.6933 37.8771 49.6324L43.61 43.9474C43.7013 43.8578 43.7629 43.7435 43.7867 43.6195C43.8105 43.4955 43.7956 43.3675 43.7437 43.2519C43.6919 43.1363 43.6055 43.0386 43.4958 42.9711C43.3862 42.9036 43.2582 42.8701 43.1284 42.8741Z" fill="#269BFF"/>
<path fill-rule="evenodd" clip-rule="evenodd" d="M44.0155 45.5491C43.8492 45.5632 43.6949 45.6391 43.5847 45.7609L37.6186 52.2291C37.5617 52.2909 37.5179 52.363 37.4896 52.4413C37.4613 52.5195 37.4492 52.6023 37.4539 52.6851C37.4634 52.8523 37.5409 53.0091 37.6693 53.1208C37.7977 53.2325 37.9665 53.2901 38.1385 53.2809C38.3106 53.2717 38.4718 53.1963 38.5868 53.0715L44.5478 46.6033C44.6358 46.5098 44.6928 46.3926 44.7112 46.2671C44.7297 46.1416 44.7089 46.0136 44.6514 45.8998C44.594 45.786 44.5026 45.6917 44.3891 45.6291C44.2757 45.5666 44.1455 45.5387 44.0155 45.5491Z" fill="#269BFF"/>
<path fill-rule="evenodd" clip-rule="evenodd" d="M44.9279 48.224C44.76 48.2407 44.6055 48.3204 44.497 48.446L38.8757 54.6876C38.8166 54.7495 38.7709 54.8221 38.7414 54.9016C38.7118 54.981 38.699 55.0654 38.7036 55.1497C38.7083 55.2341 38.7303 55.3167 38.7684 55.3927C38.8065 55.4686 38.8599 55.5364 38.9255 55.5919C38.991 55.6473 39.0674 55.6894 39.15 55.7156C39.2326 55.7419 39.3198 55.7517 39.4064 55.7446C39.493 55.7374 39.5772 55.7134 39.6541 55.6741C39.731 55.6347 39.7989 55.5806 39.8539 55.5152L45.4703 49.2733C45.5574 49.1789 45.6133 49.0615 45.6306 48.9358C45.6479 48.8102 45.6258 48.6824 45.5673 48.5691C45.5087 48.4558 45.4164 48.3622 45.3023 48.3006C45.1883 48.2391 45.0578 48.2123 44.9279 48.224Z" fill="#269BFF"/>
<path fill-rule="evenodd" clip-rule="evenodd" d="M45.9772 50.0072C45.8825 50.0131 45.7904 50.0391 45.7072 50.0833C45.624 50.1275 45.5518 50.1891 45.4956 50.2634L40.6802 56.505C40.6289 56.5713 40.5916 56.6467 40.5704 56.727C40.5491 56.8073 40.5444 56.8909 40.5564 56.973C40.5684 57.0551 40.5969 57.1341 40.6403 57.2055C40.6837 57.2769 40.7412 57.3395 40.8094 57.3893C40.8776 57.4391 40.9553 57.4752 41.038 57.4958C41.1206 57.5165 41.2066 57.5213 41.2911 57.5097C41.3756 57.498 41.4569 57.4703 41.5304 57.4281C41.6039 57.3859 41.668 57.33 41.7193 57.2637L46.5347 51.0221C46.6112 50.9259 46.6574 50.8103 46.6679 50.6892C46.6783 50.5681 46.6525 50.4467 46.5936 50.3395C46.5347 50.2323 46.4452 50.1437 46.3358 50.0848C46.2265 50.0259 46.1019 49.999 45.9772 50.0072Z" fill="#269BFF"/>
<path fill-rule="evenodd" clip-rule="evenodd" d="M47.2342 52.5692C47.14 52.5763 47.0486 52.6035 46.9663 52.6486C46.884 52.6937 46.8128 52.7557 46.7577 52.8303L42.8547 57.9585C42.8032 58.0251 42.7658 58.101 42.7446 58.1818C42.7234 58.2625 42.7189 58.3463 42.7313 58.4287C42.7437 58.5111 42.7728 58.5903 42.8169 58.6618C42.861 58.7332 42.9192 58.7955 42.9881 58.845C43.0571 58.8944 43.1354 58.9301 43.2186 58.9499C43.3019 58.9698 43.3883 58.9735 43.473 58.9607C43.5577 58.9479 43.6389 58.9189 43.712 58.8754C43.7851 58.832 43.8486 58.7748 43.8989 58.7073L47.7969 53.5791C47.8721 53.4825 47.9172 53.367 47.9267 53.2462C47.9361 53.1254 47.9096 53.0045 47.8503 52.898C47.7909 52.7915 47.7013 52.7038 47.592 52.6455C47.4828 52.5872 47.3586 52.5607 47.2342 52.5692Z" fill="#269BFF"/>
<path fill-rule="evenodd" clip-rule="evenodd" d="M48.3849 55.0222C48.2683 55.0295 48.1559 55.067 48.0596 55.1312C47.9632 55.1954 47.8865 55.2837 47.8374 55.3868L46.3472 58.3967C46.3103 58.4714 46.2888 58.5526 46.2841 58.6353C46.2794 58.7181 46.2915 58.801 46.3197 58.8792C46.3768 59.0372 46.4961 59.1666 46.6513 59.2391C46.8066 59.3116 46.9852 59.321 47.1477 59.2656C47.3103 59.2102 47.4435 59.0944 47.5181 58.9435L49.0084 55.9336C49.0595 55.8342 49.0828 55.7236 49.0758 55.6128C49.0688 55.5019 49.0318 55.3946 48.9685 55.3021C48.9052 55.2096 48.8179 55.1351 48.7155 55.0859C48.613 55.0368 48.4989 55.0148 48.3849 55.0222Z" fill="#269BFF"/>
</svg>
