<svg width="60" height="64" viewBox="0 0 60 64" fill="none" xmlns="http://www.w3.org/2000/svg">
<path fill-rule="evenodd" clip-rule="evenodd" d="M29.8617 14.2201C26.6105 14.1876 23.355 14.3978 20.1592 14.8889C16.2987 15.4809 12.1708 16.3961 8.77744 18.593C6.0687 20.3469 4.11522 22.9081 2.66791 25.4847C1.1723 28.1471 0.179466 31.1532 0.0363989 34.1966C-0.167708 38.5046 0.456799 43.1153 2.66791 47.0656C6.12531 53.2425 11.5189 59.1929 18.5306 62.1824C23.7725 64.4174 30.029 64.3821 35.4882 63.2026C42.004 61.7949 48.416 58.5848 52.8875 53.9234C56.7675 49.8784 58.7926 44.4651 59.6457 39.2807C60.3356 35.0881 60.0948 30.5079 58.2379 26.5049C56.7347 23.2642 54.002 20.5141 50.8955 18.5803C47.4721 16.4497 43.3631 15.617 39.5367 15.0244C36.3575 14.532 33.113 14.2533 29.8617 14.2201ZM29.8341 16.3875C32.9566 16.42 36.0821 16.6877 39.1457 17.1622C42.8789 17.7404 46.6486 18.5539 49.5751 20.3752C52.3497 22.1024 54.7869 24.5873 56.0711 27.3558C57.6989 30.8652 57.9569 35.0752 57.3178 38.959C56.5117 43.8575 54.5749 48.8916 51.1209 52.4926C47.0372 56.7498 41.0205 59.7827 34.95 61.0944C29.8778 62.1903 24.0931 62.168 19.5197 60.2182C13.1801 57.5152 8.04138 51.9352 4.76116 46.075C2.81202 42.5926 2.20026 38.3339 2.39187 34.2898C2.51733 31.6208 3.40334 28.8966 4.76116 26.4795C6.10085 24.0942 7.8794 21.8271 10.1346 20.3667C13.037 18.4878 16.813 17.5991 20.5456 17.0267C23.5942 16.5594 26.7117 16.3559 29.8341 16.3875Z" fill="#269BFF"/>
<path fill-rule="evenodd" clip-rule="evenodd" d="M3.92846 25.0231C3.6946 25.0356 3.47009 25.112 3.28362 25.2425C3.09715 25.3729 2.95719 25.5515 2.88163 25.7555C2.80607 25.9595 2.79834 26.1797 2.85943 26.3878C2.92052 26.5959 3.04765 26.7826 3.22458 26.9239C3.22458 26.9239 4.32751 27.8303 5.76408 28.8542C7.20065 29.8779 8.92776 31.0301 10.498 31.5973C17.1507 33.9999 24.4722 34.3007 31.4029 34.2431C46.0652 34.1217 57.4052 28.452 57.4052 28.452C57.5452 28.3863 57.6695 28.2954 57.7707 28.1848C57.8719 28.0742 57.9481 27.9462 57.9947 27.8081C58.0413 27.67 58.0574 27.5247 58.042 27.3808C58.0266 27.2369 57.9801 27.0973 57.9052 26.9702C57.8303 26.843 57.7285 26.7309 57.6058 26.6405C57.4832 26.5501 57.3421 26.4833 57.1908 26.4439C57.0396 26.4045 56.8814 26.3934 56.7254 26.4111C56.5695 26.4288 56.4189 26.475 56.2827 26.5471C56.2827 26.5471 45.3937 31.9591 31.3799 32.0757C24.5424 32.132 17.5228 31.8044 11.3583 29.5781C10.3053 29.1979 8.57587 28.1142 7.20865 27.1398C5.84143 26.1655 4.79337 25.3068 4.79337 25.3068C4.67717 25.2086 4.54074 25.133 4.39217 25.0843C4.2436 25.0356 4.08591 25.0147 3.92846 25.0231Z" fill="#269BFF"/>
<path fill-rule="evenodd" clip-rule="evenodd" d="M58.1505 32.7445C57.8452 32.7557 57.5565 32.8756 57.3454 33.079C57.3454 33.079 56.8144 33.5752 56.1217 34.1584C55.429 34.7419 54.5421 35.4171 54.056 35.6739C51.1893 37.1892 47.8951 38.1398 44.5651 38.7345C41.7198 39.243 35.1064 39.1198 35.1064 39.1198C34.9517 39.1158 34.7976 39.1398 34.6531 39.1907C34.5085 39.2415 34.3762 39.3182 34.2638 39.4161C34.1514 39.514 34.061 39.6313 33.9979 39.7614C33.9348 39.8914 33.9001 40.0315 33.8959 40.1738C33.8916 40.3162 33.9179 40.4581 33.9733 40.5911C34.0286 40.7241 34.1118 40.8457 34.2183 40.949C34.3247 41.0524 34.4522 41.1355 34.5935 41.1935C34.7349 41.2515 34.8873 41.2833 35.042 41.2872C35.042 41.2872 41.4958 41.493 45.016 40.8638C48.5211 40.2379 52.0583 39.2295 55.2292 37.5535C56.0876 37.0996 56.9705 36.3886 57.7135 35.7628C58.4564 35.1371 59.0246 34.6027 59.0246 34.6027C59.1936 34.4491 59.3082 34.2521 59.3533 34.0375C59.3984 33.823 59.3719 33.6009 59.2774 33.4004C59.1829 33.1999 59.0247 33.0304 58.8236 32.9141C58.6225 32.7979 58.3879 32.7402 58.1505 32.7488L58.1505 32.7445Z" fill="#269BFF"/>
<path fill-rule="evenodd" clip-rule="evenodd" d="M57.1936 42.1169C57.0084 42.122 56.8271 42.1674 56.6645 42.2492C56.6645 42.2492 50.5163 45.1549 47.5555 45.9363C45.5709 46.4599 40.7236 46.8464 40.7236 46.8464C40.4119 46.8689 40.1226 47.0042 39.9194 47.2229C39.7162 47.4417 39.6158 47.7258 39.6402 48.0127C39.6646 48.2996 39.8118 48.5657 40.0495 48.7527C40.2872 48.9397 40.5959 49.0321 40.9077 49.0096C40.9077 49.0096 45.6124 48.7029 48.2041 48.019C51.7723 47.0773 57.7549 44.171 57.7549 44.171C57.9951 44.0608 58.1872 43.8785 58.2994 43.6541C58.4115 43.4296 58.4369 43.1764 58.3714 42.9368C58.3059 42.6972 58.1535 42.4854 57.9393 42.3365C57.7251 42.1875 57.462 42.1094 57.1936 42.1169Z" fill="#269BFF"/>
<path fill-rule="evenodd" clip-rule="evenodd" d="M30.4966 18.868C28.3319 18.8897 25.5622 18.9309 22.9241 19.1136C20.2845 19.2956 17.8097 19.5889 16.0233 20.2311C12.6198 21.4553 10.9719 23.7659 10.9719 23.7659C10.8869 23.8862 10.8287 24.021 10.8008 24.1622C10.7728 24.3034 10.7756 24.4482 10.809 24.5884C10.8424 24.7286 10.9057 24.8612 10.9952 24.9787C11.0848 25.0962 11.1989 25.1963 11.3307 25.2729C11.3307 25.2729 16.633 28.4 21.5072 29.3452C26.2876 30.2727 34.1619 30.31 38.9846 29.4124C43.9049 28.4974 49.3819 25.3441 49.3819 25.3441C49.5405 25.2539 49.6736 25.1307 49.7702 24.984C49.8669 24.8373 49.9243 24.6714 49.9378 24.5003C49.9512 24.3292 49.9204 24.1577 49.8477 23.9998C49.7751 23.8418 49.6627 23.7017 49.5199 23.5915C49.5199 23.5915 46.0468 20.8203 42.5731 19.7986C39.1974 18.8059 34.8204 18.8324 30.5012 18.8673L30.4966 18.868ZM30.5197 21.0355C34.8224 21.0008 39.0826 21.0572 41.8555 21.8652C43.8312 22.4462 45.2692 23.5854 46.3962 24.367C44.6079 25.2751 41.5785 26.7192 38.5201 27.2879C34.2314 28.0855 26.244 28.0485 21.9949 27.2249C18.8123 26.6077 15.6754 25.0378 14.059 24.1858C14.5656 23.63 14.9223 22.9549 16.8791 22.2512C18.1588 21.791 20.5535 21.4537 23.099 21.2775C25.6445 21.102 28.3733 21.0528 30.5197 21.0355Z" fill="#269BFF"/>
<path fill-rule="evenodd" clip-rule="evenodd" d="M19.2667 9.61005L17.017 10.2493L23.1265 28.5367L25.3762 27.8975L19.2667 9.61005Z" fill="#269BFF"/>
<path fill-rule="evenodd" clip-rule="evenodd" d="M50.7344 4.43687C50.5889 4.44073 50.4454 4.4694 50.3112 4.5214L40.3004 8.24663C40.1147 8.31603 39.9514 8.42782 39.8258 8.57153C39.7002 8.71523 39.6165 8.88611 39.5827 9.06787L35.9713 28.2359C35.945 28.3762 35.949 28.52 35.9831 28.6589C36.0172 28.7978 36.0807 28.9294 36.17 29.0457C36.3503 29.2807 36.6247 29.4401 36.9328 29.4889C37.0854 29.5131 37.2416 29.5094 37.3926 29.478C37.5436 29.4467 37.6864 29.3882 37.8128 29.3061C38.0682 29.1401 38.2415 28.8876 38.2946 28.6041L41.791 10.0288L51.1945 6.53218C51.4547 6.44056 51.6712 6.26707 51.8055 6.04245C51.9398 5.81783 51.9833 5.55664 51.9281 5.30534C51.8729 5.05405 51.7227 4.82886 51.5042 4.66983C51.2856 4.5108 51.0129 4.42836 50.7344 4.43687Z" fill="#269BFF"/>
<path fill-rule="evenodd" clip-rule="evenodd" d="M16.7042 2.81577C16.538 2.82148 16.375 2.85958 16.2259 2.92743C16.0768 2.99527 15.9451 3.09139 15.8393 3.20946L8.25758 11.6082C8.09926 11.7845 8.00566 12.0024 7.99019 12.2307C7.97471 12.459 8.03816 12.686 8.17143 12.8792C8.3047 13.0723 8.50097 13.2217 8.73213 13.3059C8.96329 13.3902 9.21749 13.4048 9.45832 13.348L28.2286 8.87773C28.4703 8.82002 28.6858 8.69331 28.844 8.51553C29.0023 8.33774 29.095 8.11819 29.1088 7.88875C29.1226 7.65931 29.0568 7.43174 28.9209 7.23895C28.785 7.04616 28.5861 6.8981 28.3528 6.81616L17.1642 2.88774C17.0176 2.83591 16.8612 2.81115 16.7042 2.81577ZM17.1136 5.18624L24.0651 7.62894L12.4027 10.4059L17.1136 5.18624Z" fill="#269BFF"/>
<path fill-rule="evenodd" clip-rule="evenodd" d="M15.8071 0.000844922C15.6224 0.00755438 15.442 0.0540945 15.2805 0.136837C15.119 0.219579 14.981 0.336146 14.8775 0.477081C14.774 0.618016 14.7081 0.779419 14.6849 0.948158C14.6618 1.1169 14.6822 1.28831 14.7443 1.44847L15.7013 4.04753C15.7488 4.18462 15.8255 4.3116 15.927 4.42111C16.0284 4.53062 16.1525 4.62052 16.2921 4.68542C16.4317 4.75033 16.5839 4.78899 16.7399 4.79919C16.8959 4.80939 17.0525 4.79091 17.2007 4.74482C17.3488 4.69873 17.4855 4.62599 17.6028 4.53078C17.72 4.43556 17.8155 4.31979 17.8836 4.19027C17.9517 4.06074 17.9911 3.92003 17.9995 3.77634C18.0079 3.63265 17.9852 3.48879 17.9325 3.35328L16.9756 0.754224C16.8972 0.528305 16.7405 0.332186 16.5294 0.196102C16.3184 0.0600175 16.0646 -0.00850947 15.8071 0.000844922Z" fill="#269BFF"/>
<path fill-rule="evenodd" clip-rule="evenodd" d="M8.27138 33.7733C8.15975 33.781 8.05283 33.818 7.96314 33.8796L1.08992 38.3795C1.02679 38.4209 0.97314 38.4733 0.932037 38.5338C0.890934 38.5943 0.863182 38.6616 0.850366 38.7319C0.83755 38.8023 0.839922 38.8743 0.857345 38.9439C0.874768 39.0134 0.906902 39.0792 0.951911 39.1373C0.996921 39.1954 1.05392 39.2447 1.11967 39.2825C1.18541 39.3203 1.25861 39.3459 1.33508 39.3577C1.41154 39.3694 1.48979 39.3673 1.56534 39.3513C1.64089 39.3353 1.71227 39.3057 1.77541 39.2643L8.64402 34.7601C8.74987 34.6927 8.82879 34.5952 8.86872 34.4826C8.90865 34.37 8.90739 34.2484 8.86512 34.1365C8.82285 34.0246 8.74191 33.9287 8.63468 33.8632C8.52746 33.7977 8.39985 33.7657 8.27138 33.7733Z" fill="#269BFF"/>
<path fill-rule="evenodd" clip-rule="evenodd" d="M10.5348 36.1692C10.4234 36.1815 10.318 36.223 10.2312 36.2885L2.42408 41.9401C2.35849 41.9824 2.30296 42.0364 2.26088 42.0991C2.2188 42.1618 2.19105 42.2318 2.17934 42.3047C2.16763 42.3776 2.1722 42.4518 2.19277 42.523C2.21334 42.5942 2.24947 42.6608 2.29897 42.7188C2.34846 42.7767 2.41028 42.8249 2.48063 42.8601C2.55099 42.8953 2.6284 42.9168 2.70815 42.9236C2.78789 42.9303 2.86829 42.922 2.94443 42.8992C3.02057 42.8764 3.09085 42.8394 3.15097 42.7907L10.9581 37.1394C11.0605 37.0675 11.1345 36.9666 11.1686 36.8523C11.2028 36.738 11.1953 36.6165 11.1472 36.5065C11.0992 36.3965 11.0133 36.3041 10.9027 36.2433C10.7921 36.1825 10.6629 36.1559 10.5348 36.1692Z" fill="#269BFF"/>
<path fill-rule="evenodd" clip-rule="evenodd" d="M13.6908 38.18C13.5582 38.1862 13.4317 38.2336 13.332 38.3144L3.85945 45.786C3.79911 45.8319 3.74932 45.8886 3.71301 45.9524C3.67671 46.0163 3.6546 46.0862 3.64799 46.158C3.64138 46.2298 3.6504 46.3019 3.67453 46.3704C3.69865 46.439 3.7374 46.5026 3.78849 46.5572C3.83958 46.6118 3.902 46.6566 3.97209 46.6887C4.04218 46.7209 4.11853 46.7396 4.19668 46.7443C4.27483 46.749 4.3532 46.7393 4.42722 46.7157C4.50124 46.6922 4.56941 46.6553 4.62775 46.6072L14.1003 39.1367C14.1951 39.0637 14.2625 38.9651 14.293 38.8549C14.3235 38.7447 14.3155 38.6284 14.2703 38.5226C14.225 38.4168 14.1446 38.3266 14.0406 38.2652C13.9366 38.2037 13.8143 38.1739 13.6908 38.18Z" fill="#269BFF"/>
<path fill-rule="evenodd" clip-rule="evenodd" d="M16.0831 41.1475C15.9499 41.1549 15.8233 41.2038 15.7243 41.2861L5.9389 49.1387C5.87775 49.1846 5.82724 49.2412 5.79039 49.3054C5.75353 49.3696 5.73108 49.4402 5.72437 49.5125C5.71765 49.5849 5.72681 49.6576 5.7513 49.7266C5.77579 49.7956 5.81511 49.8594 5.86693 49.9142C5.91874 49.9689 5.98199 50.0138 6.05292 50.0457C6.12385 50.0775 6.20101 50.0958 6.27982 50.0996C6.35863 50.1035 6.43749 50.0929 6.51169 50.0682C6.5859 50.0434 6.65395 50.0051 6.71179 49.9557L16.4972 42.1031C16.5924 42.0299 16.66 41.9307 16.6904 41.82C16.7209 41.7093 16.7126 41.5927 16.6666 41.4866C16.6207 41.3806 16.5396 41.2906 16.4348 41.2295C16.33 41.1684 16.2069 41.1404 16.0831 41.1475Z" fill="#269BFF"/>
<path fill-rule="evenodd" clip-rule="evenodd" d="M18.7008 43.8313C18.5674 43.8348 18.4393 43.8798 18.3374 43.9591L7.6181 52.0998C7.49731 52.1914 7.42097 52.3233 7.40588 52.4666C7.39079 52.6098 7.43817 52.7525 7.53761 52.8637C7.63706 52.9748 7.78041 53.0453 7.93613 53.0592C8.09186 53.0731 8.2472 53.0293 8.36799 52.9378L19.0873 44.7973C19.184 44.7263 19.2539 44.6291 19.2871 44.5195C19.3204 44.4098 19.3153 44.2932 19.2725 44.1864C19.2297 44.0796 19.1515 43.9878 19.0489 43.9242C18.9462 43.8606 18.8245 43.8276 18.7008 43.8313Z" fill="#269BFF"/>
<path fill-rule="evenodd" clip-rule="evenodd" d="M21.1851 47.1841C21.0724 47.1897 20.9638 47.2251 20.8723 47.2859L9.83557 54.4697C9.77242 54.5108 9.7187 54.5629 9.67747 54.6231C9.63624 54.6834 9.60831 54.7506 9.59527 54.8208C9.58224 54.8909 9.58435 54.9628 9.60149 55.0322C9.61864 55.1016 9.65047 55.1672 9.69518 55.2253C9.73989 55.2834 9.79661 55.3329 9.86208 55.3708C9.92755 55.4088 10.0005 55.4342 10.0768 55.4462C10.153 55.4582 10.2311 55.4565 10.3065 55.4407C10.382 55.4249 10.4533 55.3956 10.5164 55.3544L21.5532 48.1707C21.6585 48.1034 21.7372 48.0063 21.7772 47.8942C21.8171 47.7821 21.8162 47.6611 21.7746 47.5494C21.7329 47.4378 21.6528 47.3418 21.5464 47.2759C21.44 47.21 21.3132 47.1776 21.1851 47.1841Z" fill="#269BFF"/>
<path fill-rule="evenodd" clip-rule="evenodd" d="M24.3457 49.0975C24.2124 49.0963 24.0827 49.1368 23.9776 49.2123L13.6724 56.3963C13.548 56.4833 13.4662 56.6121 13.4451 56.7546C13.424 56.897 13.4652 57.0414 13.5598 57.1559C13.6543 57.2704 13.7944 57.3458 13.9493 57.3652C14.1042 57.3846 14.2611 57.3466 14.3855 57.2596L24.6907 50.0761C24.7902 50.0086 24.864 49.914 24.9018 49.8057C24.9396 49.6974 24.9394 49.5808 24.9012 49.4726C24.863 49.3645 24.7889 49.27 24.6891 49.2028C24.5894 49.1355 24.4693 49.0984 24.3457 49.0975Z" fill="#269BFF"/>
<path fill-rule="evenodd" clip-rule="evenodd" d="M27.4787 51.1082C27.3454 51.1071 27.2156 51.1476 27.1106 51.2231L15.9681 58.7878C15.9044 58.8296 15.8504 58.8825 15.8093 58.9437C15.7681 59.0048 15.7405 59.0726 15.7282 59.1437C15.7159 59.2147 15.7191 59.2873 15.7376 59.3572C15.7561 59.4271 15.7895 59.493 15.8359 59.5509C15.8824 59.6087 15.9408 59.6574 16.0079 59.6943C16.0751 59.7311 16.1495 59.7556 16.2269 59.7657C16.3043 59.7758 16.3831 59.7714 16.4587 59.7533C16.5343 59.7351 16.6053 59.7033 16.6674 59.6596L27.8099 52.0909C27.9104 52.0246 27.9857 51.9308 28.0251 51.8229C28.0645 51.715 28.066 51.5985 28.0293 51.4898C27.9927 51.3811 27.9197 51.2857 27.8209 51.2173C27.7221 51.1488 27.6023 51.1105 27.4787 51.1082Z" fill="#269BFF"/>
<path fill-rule="evenodd" clip-rule="evenodd" d="M30.6116 53.4069C30.4577 53.4009 30.3075 53.4507 30.193 53.5455L21.1391 60.8269C21.078 60.8728 21.0274 60.9293 20.9906 60.9936C20.9537 61.0578 20.9313 61.1284 20.9246 61.2007C20.9179 61.2731 20.927 61.3457 20.9515 61.4148C20.976 61.4838 21.0153 61.5476 21.0671 61.6024C21.1189 61.6571 21.1822 61.702 21.2531 61.7338C21.3241 61.7657 21.4012 61.784 21.48 61.7878C21.5588 61.7917 21.6377 61.7811 21.7119 61.7563C21.7861 61.7316 21.8542 61.6933 21.912 61.6439L30.9705 54.3628C31.0618 54.2923 31.1277 54.1978 31.1595 54.0921C31.1913 53.9864 31.1875 53.8746 31.1486 53.7709C31.1097 53.6673 31.0376 53.5768 30.9417 53.5116C30.8458 53.4465 30.7307 53.4105 30.6116 53.4069Z" fill="#269BFF"/>
<path fill-rule="evenodd" clip-rule="evenodd" d="M34.4071 55.9934C34.2543 56.0011 34.1107 56.0632 34.0068 56.1667L27.3452 62.5845C27.2918 62.6359 27.2498 62.6965 27.2218 62.7628C27.1938 62.8292 27.1803 62.8999 27.182 62.9711C27.1837 63.0422 27.2006 63.1123 27.2318 63.1774C27.263 63.2426 27.3078 63.3015 27.3637 63.3507C27.4195 63.3999 27.4854 63.4384 27.5575 63.4642C27.6296 63.49 27.7065 63.5023 27.7838 63.5007C27.8611 63.4992 27.9374 63.4836 28.0082 63.455C28.0789 63.4263 28.1429 63.3852 28.1964 63.3338L34.8579 56.916C34.9419 56.8382 34.9982 56.7389 35.0195 56.631C35.0408 56.5232 35.026 56.4119 34.9772 56.312C34.9284 56.212 34.8477 56.1281 34.7459 56.0712C34.6442 56.0143 34.526 55.9873 34.4071 55.9934Z" fill="#269BFF"/>
</svg>
