<svg width="194" height="276" viewBox="0 0 194 276" fill="none" xmlns="http://www.w3.org/2000/svg">
<path fill-rule="evenodd" clip-rule="evenodd" d="M117.168 20.6509C117.039 20.6466 116.909 20.6678 116.789 20.7128C116.668 20.7579 116.558 20.8259 116.466 20.9129C116.466 20.9129 112.834 24.3163 111.109 26.263C110.081 27.4229 108.816 28.6232 108.028 30.2286C107.426 31.454 106.961 32.8575 107.017 34.3289C107.069 35.7135 107.659 36.9291 108.206 37.9829C109.049 39.6044 111.098 41.9238 111.098 41.9238C111.177 42.0159 111.275 42.0921 111.385 42.1482C111.496 42.2044 111.616 42.2394 111.741 42.2511C111.865 42.2628 111.991 42.2509 112.111 42.2164C112.23 42.1818 112.342 42.1251 112.438 42.0495C112.535 41.974 112.615 41.881 112.674 41.776C112.733 41.6709 112.769 41.5559 112.782 41.4374C112.794 41.3189 112.782 41.1991 112.745 41.0851C112.709 40.9711 112.649 40.8651 112.57 40.7731C112.57 40.7731 110.498 38.3068 109.912 37.1792C109.39 36.1739 108.951 35.1765 108.916 34.2651C108.876 33.2118 109.23 32.0602 109.752 30.997C110.356 29.7671 111.471 28.6631 112.563 27.4314C113.921 25.8987 116.303 23.6592 117.079 22.924C117.78 23.6784 119.686 25.7019 120.674 27.1092C121.635 28.4796 122.577 29.801 122.989 31.1811C123.384 32.502 123.501 33.9422 123.261 35.2636C123.109 36.0979 122.692 36.9501 122.149 37.7138C121.917 38.0411 121.304 38.6473 120.778 39.1124C120.251 39.5775 119.807 39.9268 119.807 39.9268C119.711 40.0028 119.631 40.0963 119.573 40.2017C119.514 40.3071 119.478 40.4224 119.466 40.5411C119.455 40.6599 119.467 40.7795 119.504 40.8935C119.541 41.0074 119.601 41.1132 119.681 41.205C119.761 41.2969 119.859 41.373 119.969 41.4288C120.08 41.4845 120.201 41.519 120.326 41.5301C120.45 41.5413 120.576 41.5289 120.696 41.4938C120.815 41.4587 120.927 41.4015 121.023 41.3254C121.023 41.3254 121.503 40.9422 122.071 40.4402C122.64 39.9381 123.291 39.3412 123.725 38.73C124.38 37.8096 124.925 36.7449 125.138 35.5752C125.434 33.9436 125.285 32.2502 124.818 30.6889C124.289 28.9201 123.205 27.4591 122.257 26.1072C120.888 24.1555 117.841 20.9554 117.841 20.9554C117.756 20.8648 117.652 20.7915 117.537 20.7398C117.421 20.6881 117.296 20.6592 117.168 20.6546V20.6509Z" fill="#E2EBF2"/>
<path fill-rule="evenodd" clip-rule="evenodd" d="M119.752 13.0558C117.303 12.6104 115.03 13.806 113.224 14.7554C111.539 15.6417 109.917 16.8759 108.842 18.5122C107.638 20.3442 107.16 22.5079 107.017 24.5421C106.932 25.7484 107.185 27.2696 107.44 28.5573C107.695 29.845 107.968 30.873 107.968 30.873L109.812 30.4304C109.812 30.4304 109.553 29.4494 109.31 28.2209C109.067 26.9924 108.858 25.4891 108.916 24.6625C109.046 22.8166 109.493 20.9393 110.455 19.4752C111.297 18.1939 112.668 17.1188 114.146 16.3417C115.914 15.4118 117.834 14.5529 119.395 14.8368C120.803 15.093 122.216 16.3264 123.157 17.6588C124.136 19.0464 124.593 20.911 124.595 22.6796C124.597 23.8602 123.767 25.198 123.357 26.8825C123.106 27.917 122.755 29.8568 122.755 29.8568L124.632 30.1648C124.632 30.1648 124.993 28.1887 125.212 27.2897H125.208C125.52 26.008 126.501 24.544 126.498 22.6796C126.496 20.6257 125.996 18.4308 124.736 16.6462C123.624 15.0706 121.957 13.457 119.752 13.0558Z" fill="#E2EBF2"/>
<path fill-rule="evenodd" clip-rule="evenodd" d="M108.541 37.8271C108.541 37.8271 107.431 43.7334 107.518 46.9799C107.566 48.7761 107.321 51.047 108.593 52.9674H108.589C109.792 54.7853 111.848 56.1966 114.105 56.5825C116.238 56.9469 118.427 56.2403 120.105 55.1591C122.015 53.928 123.385 51.9901 124.093 49.9684C124.835 47.8509 124.294 45.7347 124.223 43.9597C124.149 42.0444 123.714 38.4434 123.714 38.4434L121.822 38.6487C121.822 38.6487 122.257 42.298 122.324 44.0272C122.403 46.0416 122.805 47.9156 122.287 49.3948C121.7 51.072 120.522 52.7004 119.042 53.6545C117.7 54.5189 115.899 55.0469 114.444 54.7982C112.813 54.5196 111.106 53.3664 110.202 52.0008C109.384 50.7642 109.473 48.8688 109.422 46.9341C109.347 44.1662 110.418 38.1389 110.418 38.1389L108.541 37.8271Z" fill="#E2EBF2"/>
<path fill-rule="evenodd" clip-rule="evenodd" d="M117.053 18.6361C116.801 18.6352 116.558 18.7296 116.379 18.899C116.2 19.0683 116.099 19.2986 116.098 19.539L116.057 21.621C116.054 21.74 116.076 21.8582 116.122 21.9691C116.167 22.0799 116.235 22.1813 116.322 22.2671C116.409 22.353 116.512 22.4219 116.627 22.4696C116.741 22.5174 116.864 22.5432 116.989 22.5455C117.114 22.5479 117.239 22.5267 117.355 22.4833C117.471 22.44 117.578 22.3753 117.668 22.2928C117.758 22.2103 117.83 22.1118 117.88 22.0027C117.93 21.8936 117.958 21.7763 117.96 21.6572L118.001 19.5717C118.005 19.4506 117.983 19.3298 117.938 19.2168C117.892 19.1037 117.823 19.0007 117.734 18.9136C117.646 18.8264 117.54 18.7569 117.423 18.7093C117.306 18.6618 117.18 18.6365 117.053 18.6361Z" fill="#E2EBF2"/>
<path fill-rule="evenodd" clip-rule="evenodd" d="M140.847 20.6507C140.717 20.6534 140.588 20.6815 140.47 20.7333C140.352 20.785 140.246 20.8594 140.159 20.9517C140.159 20.9517 137.112 24.1518 135.743 26.1035C134.795 27.4554 133.711 28.9164 133.182 30.6853C132.715 32.2465 132.566 33.9399 132.862 35.5715C133.075 36.7412 133.62 37.8057 134.275 38.7261C134.709 39.3373 135.36 39.9344 135.929 40.4366C136.497 40.9385 136.977 41.3217 136.977 41.3217C137.074 41.3978 137.185 41.455 137.304 41.4902C137.424 41.5253 137.55 41.5374 137.674 41.5262C137.799 41.515 137.92 41.4806 138.031 41.4249C138.141 41.3691 138.239 41.2932 138.319 41.2014C138.399 41.1095 138.459 41.0035 138.496 40.8895C138.533 40.7756 138.546 40.6559 138.534 40.5372C138.522 40.4185 138.486 40.3032 138.427 40.1978C138.369 40.0924 138.289 39.9992 138.193 39.9231C138.193 39.9231 137.749 39.5738 137.222 39.1088C136.696 38.6436 136.083 38.0374 135.851 37.7102C135.308 36.9464 134.891 36.094 134.739 35.2597C134.499 33.9383 134.616 32.4983 135.011 31.1774C135.423 29.7973 136.365 28.4759 137.327 27.1055C138.314 25.6982 140.221 23.6747 140.921 22.9204C141.697 23.6555 144.079 25.895 145.437 27.4278C146.529 28.6594 147.644 29.7635 148.248 30.9933C148.77 32.0566 149.124 33.2079 149.084 34.2612C149.049 35.1726 148.61 36.1703 148.088 37.1755C147.502 38.3031 145.43 40.7694 145.43 40.7694C145.351 40.8614 145.291 40.9674 145.255 41.0814C145.219 41.1954 145.206 41.315 145.218 41.4335C145.231 41.552 145.267 41.6673 145.326 41.7723C145.385 41.8773 145.465 41.9703 145.562 42.0458C145.659 42.1214 145.77 42.1779 145.89 42.2125C146.009 42.247 146.135 42.2589 146.259 42.2472C146.384 42.2355 146.505 42.2007 146.615 42.1445C146.725 42.0884 146.823 42.012 146.902 41.9199C146.902 41.9199 148.951 39.6005 149.794 37.979C150.342 36.9252 150.931 35.7099 150.983 34.3252C151.039 32.8538 150.574 31.4503 149.972 30.225C149.184 28.6195 147.919 27.4192 146.891 26.2593C145.166 24.3126 141.534 20.9092 141.534 20.9092C141.444 20.824 141.337 20.7568 141.218 20.7118C141.1 20.6668 140.974 20.6448 140.847 20.6472V20.6507Z" fill="#E2EBF2"/>
<path fill-rule="evenodd" clip-rule="evenodd" d="M138.248 13.0558C136.043 13.457 134.376 15.0706 133.264 16.6462C132.004 18.4308 131.504 20.6257 131.502 22.6796C131.499 24.544 132.48 26.008 132.792 27.2897H132.788C133.007 28.1887 133.368 30.1648 133.368 30.1648L135.245 29.8568C135.245 29.8568 134.894 27.917 134.643 26.8825C134.233 25.198 133.403 23.8602 133.405 22.6796C133.407 20.911 133.864 19.0464 134.843 17.6588C135.784 16.3264 137.197 15.093 138.605 14.8368C140.166 14.5529 142.086 15.4118 143.854 16.3417C145.332 17.1188 146.703 18.1939 147.545 19.4752C148.507 20.9393 148.954 22.8166 149.084 24.6625C149.142 25.4891 148.933 26.9924 148.69 28.2209C148.447 29.4494 148.188 30.4304 148.188 30.4304L150.032 30.873C150.032 30.873 150.305 29.845 150.56 28.5573C150.815 27.2696 151.068 25.7484 150.983 24.5421C150.84 22.5079 150.362 20.3442 149.158 18.5122C148.083 16.8759 146.461 15.6417 144.776 14.7554C142.97 13.806 140.697 12.6104 138.248 13.0558Z" fill="#E2EBF2"/>
<path fill-rule="evenodd" clip-rule="evenodd" d="M149.459 37.8271L147.582 38.1386C147.582 38.1386 148.653 44.166 148.578 46.9339C148.527 48.8686 148.617 50.7642 147.798 52.0008C146.894 53.3664 145.188 54.5193 143.557 54.798C142.101 55.0467 140.3 54.5187 138.958 53.6543C137.478 52.7002 136.301 51.072 135.713 49.3948C135.195 47.9156 135.597 46.0414 135.676 44.0269C135.743 42.2978 136.178 38.6485 136.178 38.6485L134.286 38.4431C134.286 38.4431 133.851 42.0486 133.777 43.9632C133.707 45.7382 133.165 47.8545 133.907 49.9719C134.615 51.9936 135.985 53.9313 137.895 55.1624C139.573 56.2436 141.762 56.9504 143.895 56.5861C146.152 56.2001 148.208 54.7887 149.411 52.9707H149.407C150.679 51.0503 150.434 48.7795 150.482 46.9833C150.569 43.7368 149.459 37.8306 149.459 37.8306L149.459 37.8271Z" fill="#E2EBF2"/>
<path fill-rule="evenodd" clip-rule="evenodd" d="M140.917 18.636C140.666 18.6443 140.427 18.7473 140.255 18.9225C140.083 19.0978 139.991 19.3309 139.999 19.5707L140.04 21.6562C140.045 21.8966 140.15 22.1254 140.332 22.292C140.514 22.4586 140.758 22.5493 141.011 22.5445C141.263 22.5397 141.503 22.4397 141.678 22.2664C141.853 22.093 141.948 21.8603 141.943 21.6199L141.902 19.5382C141.902 19.4167 141.876 19.2965 141.826 19.1848C141.776 19.0731 141.702 18.9723 141.611 18.888C141.519 18.8038 141.41 18.738 141.291 18.6946C141.172 18.6512 141.045 18.6317 140.917 18.636Z" fill="#E2EBF2"/>
<path fill-rule="evenodd" clip-rule="evenodd" d="M111.901 42.3345C111.794 42.3392 111.692 42.3782 111.611 42.4451L108.247 45.1677C108.151 45.2457 108.091 45.3568 108.081 45.4767C108.071 45.5965 108.111 45.7153 108.193 45.8068C108.275 45.8984 108.392 45.9554 108.517 45.9651C108.643 45.9747 108.768 45.9363 108.864 45.8584L112.228 43.1353C112.304 43.0744 112.359 42.9924 112.383 42.9005C112.408 42.8087 112.402 42.7118 112.366 42.6235C112.33 42.5351 112.266 42.4599 112.182 42.4081C112.099 42.3564 112 42.3302 111.901 42.3345Z" fill="#E2EBF2"/>
<path fill-rule="evenodd" clip-rule="evenodd" d="M112.578 43.7756C112.454 43.7792 112.337 43.8285 112.25 43.9132L108.046 47.9992C108.001 48.0415 107.966 48.0919 107.941 48.1475C107.917 48.2031 107.905 48.2628 107.905 48.323C107.905 48.3832 107.918 48.4428 107.942 48.4983C107.967 48.5537 108.003 48.604 108.048 48.6461C108.093 48.6882 108.146 48.7213 108.205 48.7435C108.264 48.7656 108.327 48.7763 108.39 48.7751C108.453 48.7739 108.515 48.7608 108.573 48.7364C108.631 48.712 108.683 48.6768 108.727 48.633L112.931 44.547C112.998 44.4826 113.043 44.4004 113.06 44.3113C113.078 44.2222 113.067 44.1302 113.029 44.0471C112.991 43.964 112.927 43.8937 112.847 43.8453C112.767 43.7968 112.673 43.7727 112.578 43.7756Z" fill="#E2EBF2"/>
<path fill-rule="evenodd" clip-rule="evenodd" d="M113.228 45.6982C113.106 45.7083 112.993 45.7628 112.912 45.8504L108.537 50.4995C108.453 50.5891 108.409 50.707 108.416 50.8272C108.423 50.9474 108.48 51.0601 108.574 51.1403C108.668 51.2206 108.792 51.2618 108.918 51.2552C109.044 51.2486 109.163 51.1946 109.247 51.1049L113.618 46.4559C113.683 46.3887 113.725 46.3044 113.738 46.2142C113.752 46.1241 113.737 46.032 113.694 45.9502C113.652 45.8685 113.585 45.8007 113.502 45.7557C113.419 45.7108 113.323 45.6907 113.228 45.6982Z" fill="#E2EBF2"/>
<path fill-rule="evenodd" clip-rule="evenodd" d="M113.897 47.6208C113.774 47.6328 113.661 47.69 113.581 47.7803L109.459 52.2665C109.416 52.311 109.382 52.3632 109.36 52.4203C109.339 52.4774 109.329 52.538 109.333 52.5986C109.336 52.6593 109.352 52.7187 109.38 52.7732C109.408 52.8278 109.447 52.8766 109.495 52.9164C109.543 52.9563 109.599 52.9865 109.66 53.0054C109.721 53.0242 109.785 53.0313 109.848 53.0262C109.912 53.0211 109.973 53.0038 110.03 52.9755C110.086 52.9472 110.136 52.9083 110.176 52.8613L114.295 48.3749C114.359 48.3071 114.4 48.2227 114.412 48.1324C114.425 48.0421 114.409 47.9503 114.366 47.8688C114.323 47.7874 114.255 47.7201 114.172 47.6759C114.088 47.6316 113.992 47.6124 113.897 47.6208Z" fill="#E2EBF2"/>
<path fill-rule="evenodd" clip-rule="evenodd" d="M114.667 48.9025C114.597 48.9068 114.53 48.9254 114.469 48.9572C114.408 48.989 114.355 49.0333 114.313 49.0866L110.782 53.5728C110.745 53.6205 110.717 53.6746 110.702 53.7324C110.686 53.7901 110.683 53.8502 110.691 53.9092C110.7 53.9682 110.721 54.0249 110.753 54.0763C110.785 54.1276 110.827 54.1726 110.877 54.2084C110.927 54.2442 110.984 54.2701 111.045 54.2849C111.105 54.2998 111.168 54.3033 111.23 54.2949C111.292 54.2865 111.352 54.2666 111.406 54.2363C111.46 54.2059 111.507 54.1657 111.544 54.1181L115.075 49.6319C115.132 49.5628 115.165 49.4797 115.173 49.3927C115.181 49.3057 115.162 49.2184 115.119 49.1413C115.075 49.0643 115.01 49.0006 114.93 48.9583C114.849 48.9159 114.758 48.8966 114.667 48.9025Z" fill="#E2EBF2"/>
<path fill-rule="evenodd" clip-rule="evenodd" d="M115.588 50.7438C115.519 50.749 115.452 50.7685 115.392 50.8009C115.332 50.8333 115.279 50.8778 115.239 50.9315L112.377 54.6174C112.339 54.6652 112.312 54.7198 112.296 54.7778C112.281 54.8358 112.277 54.8961 112.286 54.9553C112.295 55.0146 112.317 55.0715 112.349 55.1228C112.381 55.1742 112.424 55.219 112.475 55.2545C112.525 55.2901 112.583 55.3157 112.644 55.33C112.705 55.3443 112.768 55.3469 112.83 55.3377C112.892 55.3285 112.952 55.3077 113.006 55.2764C113.059 55.2452 113.106 55.2041 113.143 55.1556L116.001 51.4697C116.056 51.4003 116.089 51.3172 116.096 51.2304C116.103 51.1436 116.084 51.0567 116.04 50.9801C115.997 50.9036 115.931 50.8406 115.851 50.7987C115.771 50.7568 115.68 50.7377 115.588 50.7438Z" fill="#E2EBF2"/>
<path fill-rule="evenodd" clip-rule="evenodd" d="M116.432 52.507C116.347 52.5122 116.264 52.5392 116.194 52.5853C116.123 52.6315 116.067 52.6949 116.031 52.769L114.938 54.9324C114.883 55.0409 114.876 55.1654 114.918 55.279C114.96 55.3925 115.047 55.4856 115.161 55.5377C115.275 55.5898 115.406 55.5968 115.525 55.5569C115.644 55.5171 115.742 55.4339 115.797 55.3254L116.889 53.162C116.927 53.0906 116.944 53.0111 116.939 52.9314C116.934 52.8517 116.907 52.7746 116.86 52.7082C116.814 52.6417 116.75 52.5882 116.675 52.5528C116.6 52.5174 116.516 52.5017 116.432 52.507Z" fill="#E2EBF2"/>
<path fill-rule="evenodd" clip-rule="evenodd" d="M113.213 17.6162C113.089 17.6199 112.972 17.6692 112.886 17.7539L108.069 22.2861C108.023 22.3277 107.986 22.3774 107.961 22.4326C107.936 22.4877 107.922 22.5472 107.922 22.6074C107.921 22.6676 107.932 22.7273 107.956 22.7831C107.98 22.8389 108.015 22.8897 108.059 22.9325C108.103 22.9753 108.156 23.0092 108.215 23.0323C108.273 23.0554 108.336 23.0672 108.399 23.067C108.462 23.0669 108.524 23.0548 108.583 23.0314C108.641 23.008 108.694 22.9735 108.738 22.9305L113.551 18.3983C113.621 18.3354 113.67 18.2538 113.69 18.1642C113.71 18.0745 113.701 17.9812 113.665 17.8964C113.628 17.8116 113.565 17.7394 113.485 17.6893C113.404 17.6392 113.309 17.614 113.213 17.6162Z" fill="#E2EBF2"/>
<path fill-rule="evenodd" clip-rule="evenodd" d="M113.18 19.8824C113.111 19.8803 113.042 19.8924 112.979 19.9181C112.915 19.9437 112.858 19.9822 112.812 20.0309L107.816 25.1296C107.773 25.1731 107.74 25.2242 107.718 25.2799C107.696 25.3356 107.686 25.395 107.688 25.4545C107.69 25.514 107.704 25.5727 107.73 25.6269C107.756 25.6811 107.792 25.7301 107.838 25.7707C107.884 25.8114 107.937 25.843 107.996 25.8639C108.054 25.8849 108.117 25.8947 108.179 25.8927C108.242 25.8907 108.303 25.877 108.36 25.8524C108.417 25.8278 108.468 25.7928 108.511 25.7493L113.507 20.6506C113.571 20.5875 113.614 20.5082 113.632 20.422C113.65 20.3358 113.641 20.2464 113.606 20.165C113.571 20.0837 113.513 20.0136 113.437 19.9634C113.361 19.9133 113.272 19.8852 113.18 19.8824Z" fill="#E2EBF2"/>
<path fill-rule="evenodd" clip-rule="evenodd" d="M113.165 22.4318C113.041 22.4326 112.922 22.4795 112.834 22.5623L108.492 26.4711C108.442 26.5105 108.4 26.5595 108.37 26.6148C108.34 26.6701 108.323 26.7306 108.318 26.7927C108.314 26.8548 108.323 26.9169 108.345 26.9755C108.367 27.034 108.402 27.0877 108.447 27.133C108.491 27.1783 108.545 27.2143 108.605 27.2388C108.665 27.2634 108.73 27.2758 108.795 27.2756C108.861 27.2753 108.925 27.2624 108.985 27.2373C109.045 27.2122 109.099 27.1757 109.143 27.1299L113.485 23.2207C113.556 23.1593 113.606 23.0786 113.628 22.9895C113.651 22.9003 113.644 22.807 113.609 22.7215C113.575 22.636 113.514 22.5624 113.434 22.5106C113.355 22.4588 113.261 22.4317 113.165 22.4318Z" fill="#E2EBF2"/>
<path fill-rule="evenodd" clip-rule="evenodd" d="M137.951 42.3345C137.844 42.3392 137.742 42.3782 137.661 42.4451L134.297 45.1677C134.201 45.2457 134.141 45.3568 134.131 45.4767C134.121 45.5965 134.161 45.7153 134.243 45.8068C134.325 45.8984 134.442 45.9554 134.567 45.9651C134.693 45.9747 134.818 45.9364 134.914 45.8584L138.278 43.1353C138.354 43.0744 138.409 42.9924 138.433 42.9005C138.458 42.8087 138.452 42.7118 138.416 42.6235C138.38 42.5351 138.316 42.4599 138.232 42.4081C138.149 42.3564 138.05 42.3302 137.951 42.3345Z" fill="#E2EBF2"/>
<path fill-rule="evenodd" clip-rule="evenodd" d="M138.628 43.7756C138.504 43.7792 138.387 43.8285 138.3 43.9132L134.096 47.9992C134.051 48.0415 134.016 48.0919 133.991 48.1475C133.967 48.2031 133.955 48.2628 133.955 48.323C133.955 48.3832 133.968 48.4428 133.992 48.4983C134.017 48.5537 134.053 48.604 134.098 48.6461C134.143 48.6882 134.196 48.7213 134.255 48.7435C134.314 48.7656 134.377 48.7763 134.44 48.7751C134.503 48.7739 134.565 48.7608 134.623 48.7364C134.681 48.712 134.733 48.6768 134.777 48.633L138.981 44.547C139.048 44.4826 139.093 44.4004 139.11 44.3113C139.128 44.2222 139.117 44.1302 139.079 44.0471C139.041 43.964 138.977 43.8937 138.897 43.8453C138.817 43.7968 138.723 43.7727 138.628 43.7756Z" fill="#E2EBF2"/>
<path fill-rule="evenodd" clip-rule="evenodd" d="M139.278 45.6982C139.156 45.7083 139.043 45.7628 138.962 45.8504L134.587 50.4995C134.545 50.5439 134.513 50.5957 134.492 50.6519C134.472 50.7082 134.463 50.7677 134.466 50.8272C134.473 50.9474 134.53 51.06 134.624 51.1403C134.718 51.2206 134.842 51.2621 134.968 51.2554C135.094 51.2488 135.213 51.1946 135.297 51.1049L139.668 46.4559C139.733 46.3887 139.775 46.3044 139.788 46.2142C139.802 46.1241 139.787 46.032 139.744 45.9502C139.702 45.8685 139.635 45.8007 139.552 45.7557C139.469 45.7108 139.373 45.6907 139.278 45.6982Z" fill="#E2EBF2"/>
<path fill-rule="evenodd" clip-rule="evenodd" d="M139.947 47.6208C139.824 47.6328 139.711 47.69 139.631 47.7803L135.509 52.2665C135.465 52.311 135.432 52.3632 135.41 52.4203C135.389 52.4774 135.379 52.538 135.383 52.5986C135.386 52.6593 135.402 52.7187 135.43 52.7732C135.458 52.8278 135.497 52.8766 135.545 52.9164C135.593 52.9563 135.649 52.9865 135.71 53.0054C135.771 53.0242 135.835 53.0313 135.898 53.0262C135.962 53.0211 136.023 53.0038 136.08 52.9755C136.136 52.9472 136.186 52.9083 136.226 52.8613L140.345 48.3749C140.409 48.3071 140.45 48.2227 140.462 48.1324C140.475 48.0421 140.459 47.9503 140.416 47.8688C140.373 47.7874 140.305 47.7201 140.222 47.6759C140.138 47.6316 140.042 47.6124 139.947 47.6208Z" fill="#E2EBF2"/>
<path fill-rule="evenodd" clip-rule="evenodd" d="M140.717 48.9025C140.647 48.9068 140.58 48.9254 140.519 48.9572C140.458 48.989 140.405 49.0333 140.363 49.0866L136.832 53.5728C136.795 53.6205 136.767 53.6746 136.752 53.7324C136.736 53.7901 136.733 53.8502 136.741 53.9092C136.75 53.9682 136.771 54.0249 136.803 54.0763C136.835 54.1276 136.877 54.1726 136.927 54.2084C136.977 54.2442 137.034 54.2701 137.095 54.2849C137.155 54.2998 137.218 54.3033 137.28 54.2949C137.342 54.2865 137.402 54.2666 137.456 54.2363C137.51 54.2059 137.557 54.1657 137.594 54.1181L141.125 49.6319C141.182 49.5628 141.215 49.4797 141.223 49.3927C141.231 49.3057 141.212 49.2184 141.169 49.1413C141.125 49.0643 141.06 49.0006 140.98 48.9583C140.899 48.9159 140.808 48.8966 140.717 48.9025Z" fill="#E2EBF2"/>
<path fill-rule="evenodd" clip-rule="evenodd" d="M141.638 50.7438C141.569 50.749 141.502 50.7685 141.442 50.8009C141.382 50.8333 141.329 50.8778 141.289 50.9315L138.427 54.6174C138.389 54.6652 138.362 54.7198 138.346 54.7778C138.331 54.8358 138.327 54.8961 138.336 54.9553C138.345 55.0146 138.367 55.0715 138.399 55.1228C138.431 55.1742 138.474 55.219 138.525 55.2545C138.575 55.2901 138.633 55.3157 138.694 55.33C138.755 55.3443 138.818 55.3469 138.88 55.3377C138.942 55.3285 139.002 55.3077 139.055 55.2764C139.109 55.2452 139.156 55.2041 139.193 55.1556L142.051 51.4697C142.106 51.4003 142.139 51.3172 142.146 51.2304C142.153 51.1436 142.134 51.0567 142.09 50.9801C142.047 50.9036 141.981 50.8406 141.901 50.7987C141.821 50.7568 141.73 50.7377 141.638 50.7438Z" fill="#E2EBF2"/>
<path fill-rule="evenodd" clip-rule="evenodd" d="M142.482 52.507C142.397 52.5122 142.314 52.5392 142.244 52.5853C142.173 52.6315 142.117 52.6949 142.081 52.769L140.988 54.9324C140.961 54.9861 140.945 55.0444 140.942 55.1039C140.938 55.1634 140.947 55.223 140.968 55.2792C141.01 55.3927 141.097 55.4858 141.211 55.5379C141.325 55.59 141.456 55.5968 141.575 55.5569C141.694 55.5171 141.792 55.4339 141.847 55.3254L142.939 53.162C142.977 53.0906 142.994 53.0111 142.989 52.9314C142.984 52.8517 142.957 52.7746 142.91 52.7082C142.864 52.6417 142.8 52.5882 142.725 52.5528C142.65 52.5174 142.566 52.5017 142.482 52.507Z" fill="#E2EBF2"/>
<path fill-rule="evenodd" clip-rule="evenodd" d="M26.011 0.623274C24.6754 0.646803 23.591 0.749978 23.591 0.749978C23.3778 0.770034 23.1784 0.861165 23.0263 1.00802C22.8742 1.15488 22.7789 1.34836 22.7565 1.55582C22.7565 1.55582 22.6673 2.38911 22.4553 3.38689C22.2433 4.38467 21.8514 5.55526 21.5338 5.98492C20.8113 6.96242 19.3878 7.59434 17.9273 8.3038C16.8652 8.81997 14.0343 9.59757 14.0343 9.59757H14.0452C13.8475 9.64729 13.6722 9.75917 13.5463 9.91571C13.4204 10.0722 13.3509 10.2647 13.3486 10.4636C13.3486 10.4636 13.38 16.8017 13.3486 19.9512C13.2906 25.7408 13.0003 37.3605 13.0003 37.3605C12.9974 37.4814 13.0194 37.6015 13.065 37.714C13.1106 37.8265 13.1789 37.929 13.2658 38.0154C13.3527 38.1017 13.4565 38.1703 13.5711 38.2169C13.6856 38.2634 13.8086 38.2872 13.9327 38.2867L36.9209 38.1744C37.1635 38.1735 37.3961 38.0802 37.569 37.9144C37.7419 37.7486 37.8414 37.5235 37.8461 37.2872C37.8461 37.2872 38.1923 19.4567 37.8461 11.6664C37.7446 9.38159 37.2977 6.85569 35.8143 4.84403C34.4264 2.9616 32.2831 1.70177 30.129 1.00515C28.909 0.610603 27.3465 0.586371 26.011 0.609356L26.011 0.623274ZM26.0436 2.43313C27.2978 2.41142 28.8131 2.50192 29.5412 2.73702C31.4014 3.33862 33.2252 4.44699 34.305 5.91135C35.4517 7.46656 35.895 9.65499 35.9885 11.758C36.3153 19.1115 36.01 35.2179 35.9885 36.382L14.876 36.489C14.9039 35.3638 15.151 25.4987 15.2062 19.9844C15.2358 17.0164 15.2097 11.8805 15.2062 11.1189C15.8611 10.9451 17.4969 10.5386 18.7546 9.92764C20.1374 9.25582 21.909 8.58129 23.0431 7.04671C23.735 6.11047 24.0409 4.84853 24.2731 3.75573C24.4165 3.08065 24.4262 2.88033 24.4762 2.5151C24.8596 2.48433 25.1782 2.44761 26.0436 2.43313Z" fill="#E2EBF2"/>
<path fill-rule="evenodd" clip-rule="evenodd" d="M27.3643 37.2799L26.9797 49.8216L23.8594 50.0514L23.5184 37.2834L21.6608 37.3287L22.0308 51.0476C22.0339 51.1702 22.0626 51.2909 22.1151 51.4024C22.1675 51.5139 22.2427 51.6137 22.336 51.696C22.4293 51.7783 22.5388 51.8413 22.6579 51.8812C22.7769 51.921 22.9031 51.9369 23.0286 51.9278L27.952 51.5672C28.1813 51.5507 28.3961 51.4519 28.555 51.2899C28.7138 51.128 28.8054 50.9145 28.8119 50.6906L29.2219 37.3322L27.3643 37.2799Z" fill="#E2EBF2"/>
<path fill-rule="evenodd" clip-rule="evenodd" d="M36.1264 11.9136C36.1264 11.9136 35.9113 12.3287 35.5966 12.7902C35.282 13.2517 34.794 13.7217 34.715 13.7588H34.7076C34.6856 13.7769 34.2766 13.7581 33.6772 13.6141C33.3775 13.5417 33.043 13.4547 32.6431 13.4475C32.2432 13.4475 31.7095 13.5578 31.3261 13.9318C30.0785 15.1456 29.9973 16.7883 30.0816 18.2373C30.1659 19.6864 30.3752 21.0826 30.1469 22.0973C29.9343 23.043 29.8372 23.8058 29.5483 24.1231C29.1085 24.6057 28.3555 24.9664 28.0317 24.9078C27.6177 24.8336 26.985 24.1386 26.6929 23.4265C26.4804 22.9085 26.5295 22.2345 26.6639 21.3904C26.7982 20.5462 27.019 19.5651 26.7981 18.4955C26.6453 17.7555 26.5021 16.6488 25.55 15.883C24.4619 15.0049 22.904 14.552 21.4574 15.049C20.1015 15.5143 19.6309 16.7784 19.2478 17.5411C18.8844 18.2643 18.8981 18.9561 18.8596 19.4815C18.8211 20.0071 18.7477 20.3154 18.6165 20.4678C18.2191 20.9298 17.3851 21.2931 16.9076 21.228C16.8456 21.228 16.2108 20.848 15.7648 20.4044C15.3187 19.9608 14.9883 19.5312 14.9883 19.5312L13.4971 20.6094C13.4971 20.6094 13.8891 21.1286 14.4368 21.6734C14.9846 22.2181 15.6147 22.8724 16.6392 23.0166H16.6429C18.0015 23.2069 19.2455 22.553 20.0389 21.6307C20.6102 20.9667 20.6708 20.1952 20.7137 19.6088C20.7567 19.0224 20.7996 18.5697 20.9169 18.3362C21.3204 17.533 21.7427 16.8702 22.0743 16.7564C22.6823 16.5475 23.7735 16.7962 24.3673 17.276C24.6168 17.4762 24.8222 18.0995 24.9768 18.849C25.0994 19.4426 24.97 20.2166 24.8281 21.1078C24.6862 21.9992 24.5322 23.0371 24.966 24.0948C25.395 25.1407 26.1939 26.4162 27.6907 26.6858C29.0867 26.9385 30.2171 26.1128 30.938 25.3214C31.8108 24.3631 31.7993 23.2026 31.9611 22.4829C32.3022 20.9667 32.0119 19.44 31.9357 18.1314C31.8609 16.8448 31.9761 15.9207 32.6287 15.2576C32.7367 15.2576 32.9574 15.3011 33.231 15.368C33.7916 15.502 34.6047 15.8216 35.524 15.3861C36.3296 15.0068 36.7599 14.3524 37.1422 13.7917C37.5253 13.2297 37.7844 12.7244 37.7844 12.7244L36.1263 11.9111L36.1264 11.9136Z" fill="#E2EBF2"/>
<path fill-rule="evenodd" clip-rule="evenodd" d="M17.6153 24.3847C17.4955 24.393 17.3837 24.4463 17.3033 24.5332L15.0973 26.8521C15.0136 26.9402 14.9693 27.0571 14.974 27.1771C14.9788 27.297 15.0323 27.4103 15.1227 27.4919C15.2132 27.5735 15.3332 27.6167 15.4563 27.6121C15.5795 27.6075 15.6957 27.5552 15.7794 27.4671L17.9854 25.1483C18.0501 25.0821 18.0927 24.9983 18.1076 24.9081C18.1225 24.8179 18.1091 24.7254 18.069 24.6428C18.029 24.5602 17.9642 24.4913 17.8832 24.4453C17.8022 24.3992 17.7088 24.3781 17.6153 24.3847Z" fill="#E2EBF2"/>
<path fill-rule="evenodd" clip-rule="evenodd" d="M18.1378 25.8552C18.0174 25.8645 17.9055 25.919 17.8257 26.0072L14.6329 29.4007C14.587 29.4435 14.5505 29.495 14.5258 29.5521C14.5011 29.6091 14.4886 29.6705 14.4892 29.7323C14.4898 29.7942 14.5034 29.8554 14.5292 29.912C14.555 29.9685 14.5924 30.0192 14.6391 30.0611C14.6859 30.103 14.7409 30.1351 14.8009 30.1554C14.8609 30.1758 14.9246 30.1841 14.9879 30.1795C15.0513 30.1749 15.113 30.1576 15.1693 30.1289C15.2255 30.1002 15.2751 30.0606 15.315 30.0125L18.5079 26.619C18.5725 26.5528 18.6151 26.469 18.6301 26.3788C18.645 26.2886 18.6315 26.1961 18.5915 26.1135C18.5515 26.0309 18.4867 25.9621 18.4057 25.916C18.3247 25.8699 18.2313 25.8486 18.1378 25.8552Z" fill="#E2EBF2"/>
<path fill-rule="evenodd" clip-rule="evenodd" d="M18.7872 27.7782C18.6672 27.7837 18.5541 27.8343 18.4716 27.9194L14.3499 32.1047C14.3063 32.1471 14.2718 32.1978 14.2484 32.2533C14.225 32.3089 14.2132 32.3685 14.2137 32.4285C14.2142 32.4886 14.227 32.5481 14.2513 32.6033C14.2756 32.6585 14.311 32.7085 14.3553 32.7502C14.3996 32.792 14.452 32.8247 14.5095 32.8465C14.5669 32.8684 14.6283 32.8788 14.6899 32.8773C14.7516 32.8757 14.8123 32.8623 14.8685 32.8377C14.9248 32.8131 14.9754 32.7778 15.0175 32.7339L19.1392 28.5486C19.205 28.4838 19.2492 28.4012 19.2661 28.3115C19.2829 28.2219 19.2715 28.1294 19.2335 28.0462C19.1955 27.9629 19.1325 27.8927 19.0529 27.8449C18.9733 27.7971 18.8807 27.7739 18.7872 27.7782Z" fill="#E2EBF2"/>
<path fill-rule="evenodd" clip-rule="evenodd" d="M19.1355 29.4749C19.0155 29.4804 18.9024 29.531 18.8199 29.6161L13.8275 34.6498C13.7848 34.6924 13.7511 34.7429 13.7285 34.7982C13.7059 34.8536 13.6947 34.9128 13.6955 34.9723C13.6964 35.0319 13.7094 35.0906 13.7336 35.1453C13.7579 35.2 13.793 35.2495 13.837 35.2909C13.8809 35.3323 13.9329 35.365 13.9898 35.3868C14.0467 35.4086 14.1074 35.4193 14.1686 35.4182C14.2297 35.4171 14.29 35.4043 14.3461 35.3804C14.4021 35.3565 14.4527 35.322 14.4951 35.279L19.4875 30.2453C19.5533 30.1806 19.5975 30.0979 19.6144 30.0083C19.6312 29.9186 19.6199 29.8262 19.5818 29.7429C19.5438 29.6597 19.4808 29.5895 19.4012 29.5416C19.3216 29.4938 19.229 29.4706 19.1355 29.4749Z" fill="#E2EBF2"/>
<path fill-rule="evenodd" clip-rule="evenodd" d="M19.6652 31.3978C19.5445 31.4015 19.43 31.4509 19.346 31.5355L14.0633 36.6823C14.0187 36.7239 13.983 36.7739 13.9584 36.8292C13.9339 36.8845 13.9209 36.9439 13.9202 37.0042C13.9196 37.0644 13.9312 37.1242 13.9546 37.18C13.978 37.2358 14.0125 37.2866 14.0562 37.3292C14.1 37.3717 14.152 37.4054 14.2092 37.4281C14.2665 37.4509 14.3278 37.4621 14.3896 37.4615C14.4514 37.4608 14.5125 37.4483 14.5692 37.4244C14.626 37.4004 14.6772 37.3656 14.72 37.3221L20.0027 32.1753C20.07 32.1118 20.1161 32.0299 20.1348 31.9404C20.1536 31.8509 20.144 31.7579 20.1075 31.6738C20.071 31.5897 20.0092 31.5183 19.9303 31.469C19.8513 31.4197 19.7589 31.395 19.6652 31.3978Z" fill="#E2EBF2"/>
<path fill-rule="evenodd" clip-rule="evenodd" d="M20.2784 32.8683C20.1588 32.8794 20.0483 32.9353 19.97 33.0241L16.4869 36.8133C16.4397 36.8561 16.4022 36.9081 16.3768 36.9659C16.3513 37.0237 16.3385 37.0862 16.3392 37.1491C16.3398 37.212 16.3539 37.2738 16.3805 37.3311C16.4072 37.3884 16.4458 37.4396 16.4938 37.4816C16.5419 37.5235 16.5985 37.5554 16.6598 37.5748C16.7212 37.5943 16.7861 37.601 16.8503 37.5947C16.9145 37.5884 16.9767 37.5689 17.0328 37.5379C17.0889 37.5069 17.1378 37.4649 17.1763 37.4144L20.6594 33.625C20.7224 33.5579 20.7631 33.4738 20.7764 33.3838C20.7896 33.2937 20.7747 33.2018 20.7336 33.1202C20.6924 33.0385 20.627 32.9709 20.5458 32.926C20.4646 32.8811 20.3714 32.8609 20.2784 32.8683Z" fill="#E2EBF2"/>
<path fill-rule="evenodd" clip-rule="evenodd" d="M21.3741 34.1692C21.254 34.1812 21.1434 34.2384 21.0657 34.3285L18.8598 36.8171C18.779 36.908 18.7385 37.0265 18.7474 37.1465C18.7562 37.2665 18.8136 37.3781 18.907 37.4569C19.0003 37.5356 19.1219 37.5749 19.2451 37.5662C19.3682 37.5576 19.4828 37.5019 19.5637 37.4109L21.7696 34.9224C21.8327 34.8543 21.873 34.769 21.8852 34.678C21.8975 34.5871 21.8811 34.4948 21.8382 34.4131C21.7953 34.3315 21.7279 34.2644 21.6451 34.2209C21.5622 34.1774 21.4677 34.1592 21.3741 34.1692Z" fill="#E2EBF2"/>
<path fill-rule="evenodd" clip-rule="evenodd" d="M46.5629 120.116C43.2684 119.559 40.0049 121.095 37.5191 122.738C34.9851 124.413 32.724 126.869 31.8042 129.787C30.6364 133.493 30.4405 138.136 32.8163 141.563H32.8125C35.607 145.595 41.0289 148.364 46.1281 148.187C50.8603 148.022 55.4984 145.031 57.9082 141.251C60.1457 137.742 60.6338 132.894 58.8549 129.109C56.7111 124.547 51.7112 120.987 46.5629 120.116ZM46.2166 121.962C50.6457 122.711 55.2308 125.995 57.0538 129.875C58.5091 132.971 58.0945 137.345 56.2225 140.281C54.169 143.502 49.9306 146.176 46.055 146.312C41.7868 146.46 36.8208 143.941 34.4596 140.534C32.5809 137.824 32.6398 133.662 33.6899 130.328C34.4375 127.957 36.4069 125.761 38.6428 124.283C40.9207 122.778 43.7981 121.556 46.2166 121.965V121.962Z" fill="#E2EBF2"/>
<path fill-rule="evenodd" clip-rule="evenodd" d="M37.6269 135.524C37.4724 135.529 37.3211 135.567 37.1853 135.637C37.0494 135.707 36.9327 135.807 36.8447 135.927C36.7567 136.048 36.6997 136.187 36.6785 136.333C36.6573 136.478 36.6723 136.627 36.7225 136.766C37.3302 138.546 38.7786 139.979 40.3823 140.958C41.9395 141.91 43.9928 142.821 46.1435 142.485C49.4007 141.976 52.5384 139.936 53.9289 137.202C54.0426 136.978 54.0583 136.72 53.9724 136.485C53.8866 136.25 53.7061 136.058 53.4709 135.949C53.2357 135.841 52.9648 135.826 52.718 135.908C52.4712 135.989 52.2686 136.161 52.1547 136.385C51.1244 138.411 48.4122 140.232 45.824 140.636C44.4883 140.845 42.7987 140.205 41.4484 139.38C40.1411 138.582 39.0069 137.389 38.5967 136.187C38.5335 135.991 38.4045 135.82 38.2293 135.7C38.0541 135.581 37.8425 135.519 37.6269 135.524Z" fill="#E2EBF2"/>
<path fill-rule="evenodd" clip-rule="evenodd" d="M50.2205 128.813C50.5801 128.769 50.9931 128.944 51.2244 129.21C51.4398 129.457 51.5253 129.844 51.4329 130.153C51.36 130.394 51.1265 130.595 50.8853 130.698C50.4611 130.88 49.8607 131.016 49.4903 130.747C49.1455 130.498 49.0426 129.931 49.1904 129.544C49.3362 129.161 49.7953 128.863 50.2205 128.813Z" fill="#E2EBF2"/>
<path fill-rule="evenodd" clip-rule="evenodd" d="M40.6209 130.989C40.9805 131.032 41.3935 130.858 41.6248 130.592C41.8402 130.345 41.9257 129.958 41.8333 129.649C41.7604 129.407 41.5269 129.207 41.2857 129.103C40.8615 128.922 40.2611 128.786 39.8907 129.055C39.5458 129.304 39.443 129.871 39.5908 130.258C39.7366 130.641 40.1957 130.939 40.6209 130.989Z" fill="#E2EBF2"/>
<path fill-rule="evenodd" clip-rule="evenodd" d="M45.3468 108.011C45.0861 108.022 44.8409 108.132 44.6648 108.315C44.4888 108.498 44.3963 108.74 44.4078 108.988L44.5925 114.788C44.5958 114.912 44.6246 115.034 44.6773 115.146C44.7301 115.259 44.8057 115.361 44.8999 115.446C44.9941 115.531 45.105 115.597 45.2263 115.641C45.3475 115.685 45.4767 115.706 45.6064 115.702C45.7362 115.699 45.8639 115.671 45.9822 115.62C46.1006 115.57 46.2073 115.497 46.2961 115.407C46.385 115.317 46.4543 115.212 46.5001 115.096C46.5459 114.98 46.5673 114.857 46.5629 114.734L46.3782 108.934C46.3763 108.808 46.3478 108.684 46.2945 108.569C46.2412 108.454 46.1642 108.351 46.068 108.265C45.9718 108.179 45.8584 108.112 45.7345 108.068C45.6106 108.025 45.4788 108.005 45.3468 108.011Z" fill="#E2EBF2"/>
<path fill-rule="evenodd" clip-rule="evenodd" d="M45.4046 153.123C45.1439 153.135 44.899 153.245 44.7237 153.429C44.5483 153.613 44.4569 153.856 44.4694 154.104L44.6541 159.377C44.6579 159.5 44.6873 159.622 44.7406 159.734C44.7938 159.847 44.8699 159.948 44.9645 160.033C45.059 160.117 45.1702 160.183 45.2916 160.227C45.413 160.27 45.5423 160.291 45.6719 160.287C45.8016 160.283 45.9292 160.254 46.0473 160.203C46.1654 160.152 46.2718 160.079 46.3603 159.989C46.4488 159.899 46.5177 159.793 46.563 159.677C46.6084 159.561 46.6293 159.438 46.6245 159.315L46.4398 154.042C46.4374 153.917 46.4084 153.793 46.3546 153.678C46.3009 153.563 46.2234 153.46 46.1268 153.374C46.0303 153.288 45.9165 153.222 45.7925 153.179C45.6684 153.136 45.5365 153.116 45.4046 153.123Z" fill="#E2EBF2"/>
<path fill-rule="evenodd" clip-rule="evenodd" d="M72.032 133.097C72.0089 133.096 71.9858 133.096 71.9627 133.097L65.8667 133.273C65.7328 133.27 65.5997 133.293 65.4754 133.341C65.3512 133.388 65.2384 133.46 65.1441 133.55C65.0497 133.64 64.9757 133.748 64.9266 133.867C64.8776 133.985 64.8544 134.112 64.8586 134.24C64.8628 134.367 64.8942 134.492 64.951 134.608C65.0078 134.723 65.0887 134.826 65.1888 134.911C65.289 134.996 65.4062 135.06 65.5333 135.1C65.6605 135.14 65.7949 135.155 65.9283 135.144L72.0242 134.968C72.2832 134.966 72.5308 134.866 72.7134 134.692C72.896 134.517 72.999 134.281 73 134.034C73.001 133.788 72.9 133.551 72.7188 133.375C72.5377 133.199 72.2909 133.098 72.0319 133.093L72.032 133.097Z" fill="#E2EBF2"/>
<path fill-rule="evenodd" clip-rule="evenodd" d="M24.6153 133.155C24.5922 133.155 24.5691 133.155 24.546 133.155L19.0042 133.332C18.8704 133.329 18.7374 133.353 18.6134 133.401C18.4894 133.449 18.377 133.521 18.283 133.612C18.1891 133.702 18.1156 133.81 18.0671 133.929C18.0185 134.048 17.9959 134.175 18.0006 134.302C18.0053 134.429 18.0373 134.554 18.0945 134.67C18.1517 134.785 18.233 134.888 18.3334 134.972C18.4338 135.056 18.5512 135.12 18.6785 135.16C18.8057 135.2 18.9401 135.214 19.0735 135.203L24.6153 135.027C24.8741 135.023 25.1212 134.923 25.303 134.747C25.4847 134.572 25.5866 134.336 25.5866 134.089C25.5866 133.843 25.4847 133.606 25.303 133.431C25.1212 133.256 24.8741 133.155 24.6153 133.152V133.155Z" fill="#E2EBF2"/>
<path fill-rule="evenodd" clip-rule="evenodd" d="M64.2004 115.308C64.0572 115.303 63.9144 115.327 63.7822 115.38C63.6499 115.432 63.5313 115.512 63.4345 115.612L59.2551 119.842C59.1595 119.93 59.0838 120.036 59.0324 120.153C58.981 120.27 58.9551 120.395 58.9563 120.522C58.9574 120.649 58.9856 120.774 59.0391 120.89C59.0925 121.006 59.1702 121.111 59.2673 121.198C59.3645 121.285 59.4792 121.352 59.6044 121.395C59.7295 121.438 59.8627 121.457 59.9957 121.45C60.1288 121.443 60.2589 121.411 60.3784 121.354C60.4978 121.298 60.604 121.22 60.6906 121.123L64.87 116.898C65.0025 116.768 65.0925 116.604 65.1292 116.426C65.166 116.248 65.1479 116.064 65.077 115.896C65.0062 115.728 64.8857 115.583 64.7301 115.479C64.5746 115.375 64.3906 115.315 64.2004 115.308Z" fill="#E2EBF2"/>
<path fill-rule="evenodd" clip-rule="evenodd" d="M30.715 147.249C30.5716 147.244 30.4287 147.269 30.2964 147.322C30.1641 147.376 30.0456 147.456 29.9492 147.557L26.1623 151.409C26.0739 151.499 26.0049 151.604 25.9594 151.72C25.9138 151.835 25.8926 151.958 25.8969 152.081C25.9012 152.204 25.9309 152.325 25.9844 152.437C26.0378 152.549 26.114 152.65 26.2085 152.734C26.303 152.819 26.414 152.884 26.5352 152.928C26.6563 152.971 26.7853 152.991 26.9146 152.987C27.044 152.983 27.1713 152.955 27.2891 152.904C27.407 152.853 27.5132 152.78 27.6017 152.69L31.3885 148.838C31.5211 148.708 31.6111 148.544 31.6477 148.366C31.6843 148.188 31.6658 148.004 31.5945 147.836C31.5232 147.667 31.4022 147.522 31.2461 147.418C31.09 147.314 30.9055 147.256 30.715 147.249Z" fill="#E2EBF2"/>
<path fill-rule="evenodd" clip-rule="evenodd" d="M26.6665 115.477C26.4704 115.482 26.2805 115.543 26.1212 115.652C25.9618 115.761 25.8402 115.913 25.772 116.088C25.7038 116.263 25.6921 116.453 25.7383 116.635C25.7845 116.816 25.8866 116.98 26.0315 117.106L30.4726 121.083C30.5668 121.167 30.6776 121.233 30.7987 121.277C30.9197 121.32 31.0486 121.341 31.1779 121.337C31.3073 121.334 31.4347 121.306 31.5527 121.255C31.6707 121.204 31.7771 121.132 31.8658 121.043C31.9545 120.953 32.0238 120.847 32.0696 120.732C32.1155 120.617 32.1371 120.495 32.1332 120.372C32.1292 120.248 32.0998 120.127 32.0467 120.015C31.9935 119.903 31.9177 119.801 31.8234 119.717L27.3823 115.74C27.2876 115.653 27.1754 115.585 27.0525 115.54C26.9295 115.494 26.7983 115.473 26.6665 115.477Z" fill="#E2EBF2"/>
<path fill-rule="evenodd" clip-rule="evenodd" d="M60.2326 147.333C60.0369 147.34 59.8475 147.401 59.6887 147.511C59.5299 147.62 59.409 147.771 59.3412 147.946C59.2735 148.121 59.2621 148.311 59.3084 148.492C59.3548 148.673 59.4568 148.837 59.6015 148.963L63.6539 152.57C63.747 152.66 63.8585 152.732 63.9815 152.78C64.1046 152.829 64.2367 152.853 64.3698 152.852C64.503 152.85 64.6345 152.823 64.7563 152.772C64.8781 152.721 64.9878 152.646 65.0786 152.554C65.1695 152.461 65.2397 152.352 65.285 152.233C65.3302 152.114 65.3496 151.987 65.342 151.86C65.3344 151.734 65.2999 151.61 65.2406 151.497C65.1813 151.383 65.0984 151.282 64.997 151.2L60.9484 147.597C60.8537 147.51 60.7416 147.441 60.6186 147.396C60.4957 147.351 60.3644 147.33 60.2326 147.333Z" fill="#E2EBF2"/>
<path fill-rule="evenodd" clip-rule="evenodd" d="M37.2228 126.949C37.1289 126.953 37.0381 126.982 36.9611 127.033L32.2159 130.065C32.1621 130.099 32.1159 130.143 32.08 130.195C32.0441 130.246 32.0191 130.304 32.0066 130.364C31.9941 130.425 31.9942 130.487 32.007 130.548C32.0198 130.608 32.045 130.666 32.0811 130.717C32.1173 130.768 32.1637 130.812 32.2176 130.846C32.2716 130.88 32.3322 130.904 32.3958 130.916C32.4594 130.928 32.5249 130.928 32.5884 130.915C32.652 130.903 32.7124 130.879 32.7663 130.845L37.5076 127.809C37.5973 127.753 37.6654 127.671 37.7014 127.575C37.7375 127.479 37.7395 127.374 37.7073 127.277C37.6751 127.179 37.6103 127.095 37.5229 127.035C37.4354 126.976 37.33 126.946 37.2228 126.949Z" fill="#E2EBF2"/>
<path fill-rule="evenodd" clip-rule="evenodd" d="M36.4608 129.842C36.3493 129.841 36.2408 129.876 36.1529 129.941L31.5656 133.222C31.4609 133.297 31.3918 133.408 31.3734 133.531C31.355 133.655 31.3888 133.78 31.4674 133.879C31.546 133.979 31.6629 134.044 31.7925 134.062C31.922 134.079 32.0536 134.047 32.1582 133.972L36.7456 130.692C36.8301 130.634 36.8932 130.552 36.9259 130.458C36.9586 130.364 36.9592 130.263 36.9275 130.168C36.8959 130.074 36.8337 129.992 36.7499 129.933C36.666 129.875 36.5648 129.842 36.4608 129.842Z" fill="#E2EBF2"/>
<path fill-rule="evenodd" clip-rule="evenodd" d="M35.9181 132.859C35.8075 132.86 35.7004 132.896 35.6141 132.962L32.2775 135.423C32.174 135.499 32.1065 135.611 32.0899 135.735C32.0733 135.858 32.109 135.983 32.1892 136.082C32.2693 136.18 32.3872 136.244 32.5171 136.26C32.647 136.276 32.7781 136.242 32.8817 136.166L36.2183 133.705C36.3022 133.646 36.3643 133.563 36.3956 133.469C36.4269 133.374 36.4257 133.272 36.3924 133.178C36.359 133.084 36.2951 133.003 36.2098 132.945C36.1246 132.888 36.0225 132.857 35.9181 132.859Z" fill="#E2EBF2"/>
<path fill-rule="evenodd" clip-rule="evenodd" d="M35.795 135.144C35.6844 135.145 35.5773 135.181 35.491 135.247L32.1544 137.707C32.0508 137.784 31.9833 137.896 31.9667 138.02C31.9501 138.143 31.9858 138.268 32.0659 138.366C32.146 138.465 32.264 138.529 32.3939 138.545C32.5238 138.561 32.655 138.527 32.7586 138.451L36.0952 135.99C36.1792 135.931 36.2413 135.848 36.2727 135.754C36.304 135.659 36.3029 135.557 36.2695 135.463C36.2361 135.369 36.1721 135.287 36.0869 135.23C36.0016 135.173 35.8994 135.142 35.795 135.144Z" fill="#E2EBF2"/>
<path fill-rule="evenodd" clip-rule="evenodd" d="M36.0413 137.429C35.9307 137.43 35.8236 137.466 35.7373 137.532L32.4007 139.993C32.2971 140.069 32.2296 140.181 32.2131 140.304C32.1965 140.428 32.2322 140.553 32.3123 140.651C32.3924 140.75 32.5104 140.814 32.6403 140.83C32.7701 140.846 32.9013 140.812 33.0049 140.736L36.3415 138.275C36.4254 138.216 36.4875 138.133 36.5187 138.039C36.55 137.944 36.5489 137.842 36.5155 137.748C36.4821 137.654 36.4182 137.572 36.333 137.515C36.2478 137.458 36.1456 137.427 36.0413 137.429Z" fill="#E2EBF2"/>
<path fill-rule="evenodd" clip-rule="evenodd" d="M36.7109 139.087C36.6003 139.088 36.4932 139.124 36.4069 139.19L33.3897 141.402C33.3328 141.437 33.2841 141.484 33.2468 141.538C33.2096 141.592 33.1845 141.653 33.1731 141.716C33.1618 141.78 33.1644 141.846 33.1809 141.908C33.1974 141.971 33.2274 142.03 33.269 142.081C33.3105 142.132 33.3628 142.175 33.4224 142.206C33.4821 142.237 33.5479 142.256 33.6156 142.262C33.6833 142.267 33.7516 142.26 33.816 142.239C33.8805 142.218 33.9397 142.185 33.9901 142.142L37.0073 139.93C37.0894 139.871 37.15 139.789 37.1804 139.695C37.2108 139.601 37.2096 139.501 37.1769 139.408C37.1442 139.315 37.0816 139.234 36.998 139.176C36.9144 139.119 36.814 139.088 36.7109 139.087Z" fill="#E2EBF2"/>
<path fill-rule="evenodd" clip-rule="evenodd" d="M37.8462 140.391C37.7343 140.391 37.6257 140.427 37.5383 140.494L34.5212 142.706C34.4696 142.743 34.4263 142.79 34.3937 142.843C34.3612 142.897 34.34 142.956 34.3315 143.017C34.323 143.078 34.3272 143.14 34.344 143.2C34.3607 143.259 34.3897 143.315 34.4292 143.364C34.4687 143.413 34.518 143.454 34.5742 143.485C34.6305 143.516 34.6925 143.536 34.7568 143.543C34.8211 143.551 34.8865 143.547 34.9491 143.531C35.0116 143.515 35.0702 143.487 35.1215 143.449L38.1387 141.237C38.2221 141.179 38.2839 141.097 38.3153 141.003C38.3468 140.909 38.3463 140.808 38.3139 140.714C38.2815 140.62 38.2188 140.539 38.1349 140.481C38.0509 140.423 37.9499 140.391 37.8462 140.391Z" fill="#E2EBF2"/>
<path fill-rule="evenodd" clip-rule="evenodd" d="M39.0816 141.511C38.9874 141.52 38.8979 141.555 38.8237 141.611L35.8027 143.822C35.6991 143.899 35.6316 144.011 35.615 144.134C35.5984 144.258 35.6341 144.383 35.7142 144.481C35.7943 144.58 35.9123 144.644 36.0422 144.66C36.1721 144.676 36.3033 144.642 36.4069 144.566L39.4241 142.354C39.5103 142.293 39.5731 142.206 39.6028 142.108C39.6326 142.01 39.6276 141.905 39.5888 141.809C39.55 141.714 39.4794 141.633 39.3878 141.579C39.2962 141.526 39.1886 141.501 39.0816 141.511Z" fill="#E2EBF2"/>
<path fill-rule="evenodd" clip-rule="evenodd" d="M40.8057 142.588C40.6937 142.588 40.5851 142.624 40.4978 142.691L37.4806 144.903C37.4237 144.938 37.375 144.984 37.3377 145.038C37.3004 145.092 37.2753 145.153 37.264 145.217C37.2527 145.281 37.2553 145.346 37.2718 145.409C37.2883 145.472 37.3183 145.531 37.3598 145.582C37.4014 145.633 37.4537 145.676 37.5133 145.707C37.573 145.738 37.6388 145.756 37.7065 145.762C37.7742 145.768 37.8425 145.76 37.9069 145.74C37.9714 145.719 38.0306 145.686 38.081 145.642L41.102 143.431C41.1841 143.371 41.2446 143.289 41.275 143.195C41.3053 143.102 41.3041 143.001 41.2714 142.908C41.2387 142.815 41.1761 142.735 41.0926 142.677C41.0091 142.62 40.9087 142.588 40.8057 142.588Z" fill="#E2EBF2"/>
<path fill-rule="evenodd" clip-rule="evenodd" d="M162.022 111.812C161.854 111.815 161.69 111.858 161.543 111.936C161.396 112.014 161.271 112.126 161.18 112.261C161.18 112.261 155.646 120.377 153.885 125.242C152.063 130.274 150.914 135.672 151.005 141.052C151.074 145.155 152.342 150.917 153.584 155.721C154.826 160.526 156.054 164.347 156.054 164.347C156.122 164.558 156.262 164.74 156.451 164.865C156.64 164.99 156.868 165.051 157.097 165.038L165.76 164.547C165.964 164.535 166.159 164.466 166.321 164.348C166.483 164.229 166.605 164.068 166.671 163.883L169.43 156.086C169.439 156.061 169.447 156.035 169.454 156.009C169.454 156.009 171.807 147.225 171.925 142.406C172.048 137.397 171.36 132.332 169.96 127.51C168.352 121.974 162.949 112.33 162.949 112.33C162.859 112.171 162.725 112.038 162.562 111.946C162.398 111.855 162.212 111.808 162.022 111.812ZM161.954 114.824C163.109 116.96 166.74 123.758 167.982 128.036C169.329 132.674 169.99 137.554 169.871 142.36C169.768 146.589 167.472 155.484 167.465 155.51L164.946 162.624L157.803 163.031C157.62 162.454 156.698 159.586 155.577 155.249C154.35 150.501 153.121 144.751 153.058 141.017C152.973 135.927 154.062 130.745 155.822 125.883C157.12 122.297 160.669 116.791 161.954 114.824Z" fill="#E2EBF2"/>
<path fill-rule="evenodd" clip-rule="evenodd" d="M160.887 113.769L160.631 164.113L162.684 164.133L162.941 113.789L160.887 113.769Z" fill="#E2EBF2"/>
<path fill-rule="evenodd" clip-rule="evenodd" d="M192.969 115.369C192.779 115.369 192.593 115.42 192.431 115.515C192.431 115.515 185.525 119.564 182.288 122.241C178.982 124.976 175.76 127.978 173.256 131.52C171.681 133.748 169.968 138.2 169.968 138.2C169.92 138.321 169.898 138.449 169.902 138.578C169.906 138.707 169.937 138.834 169.992 138.952C170.048 139.069 170.127 139.175 170.225 139.263C170.323 139.352 170.439 139.421 170.565 139.466C170.691 139.512 170.826 139.533 170.96 139.529C171.095 139.525 171.228 139.496 171.351 139.443C171.474 139.39 171.584 139.314 171.677 139.22C171.769 139.126 171.841 139.016 171.889 138.895C171.889 138.895 173.739 134.344 174.957 132.621C177.303 129.302 180.389 126.409 183.632 123.726C186.037 121.737 190.1 119.341 191.814 118.308C191.746 120.52 191.494 129.991 190.671 135.618C190.337 137.902 190.006 140.151 189.191 142.153C187.299 146.798 184.406 151.114 181.238 155.18C179.265 157.712 174.744 161.862 174.131 162.428L167.754 159.431C167.632 159.366 167.497 159.325 167.359 159.311C167.22 159.298 167.079 159.311 166.946 159.351C166.813 159.391 166.69 159.456 166.584 159.543C166.478 159.63 166.391 159.736 166.33 159.856C166.268 159.976 166.233 160.107 166.226 160.24C166.219 160.374 166.241 160.507 166.29 160.632C166.339 160.757 166.414 160.871 166.51 160.968C166.607 161.064 166.723 161.141 166.851 161.193L173.91 164.508C174.098 164.597 174.31 164.628 174.517 164.598C174.725 164.568 174.917 164.478 175.069 164.34C175.069 164.34 180.505 159.41 182.886 156.354C186.112 152.214 189.112 147.755 191.104 142.863C192.037 140.571 192.371 138.17 192.704 135.891C193.664 129.326 194 116.378 194 116.378C194.003 116.247 193.979 116.116 193.929 115.993C193.879 115.871 193.804 115.759 193.708 115.665C193.611 115.571 193.496 115.496 193.37 115.445C193.243 115.395 193.106 115.369 192.969 115.369Z" fill="#E2EBF2"/>
<path fill-rule="evenodd" clip-rule="evenodd" d="M184.262 132.683C184.243 132.682 184.224 132.682 184.206 132.683L172.815 133.082L172.891 135.043L183.752 134.663L189.716 142.118L191.349 140.925L185.06 133.066C184.966 132.948 184.845 132.852 184.707 132.785C184.569 132.718 184.417 132.682 184.262 132.679L184.262 132.683Z" fill="#E2EBF2"/>
<path fill-rule="evenodd" clip-rule="evenodd" d="M177.215 127.253L177.155 129.214L186.905 129.475L190.972 135.085L192.66 133.964L188.296 127.947C188.205 127.821 188.083 127.717 187.942 127.644C187.8 127.57 187.643 127.53 187.482 127.525L177.215 127.253Z" fill="#E2EBF2"/>
<path fill-rule="evenodd" clip-rule="evenodd" d="M158.762 125.726C158.687 125.73 158.614 125.75 158.548 125.784C158.483 125.818 158.425 125.865 158.381 125.922L151.939 133.912C151.895 133.962 151.862 134.021 151.841 134.084C151.821 134.147 151.814 134.214 151.822 134.279C151.829 134.345 151.85 134.409 151.883 134.467C151.917 134.525 151.962 134.575 152.017 134.616C152.072 134.656 152.134 134.686 152.201 134.703C152.268 134.72 152.338 134.724 152.406 134.714C152.474 134.704 152.54 134.682 152.599 134.648C152.658 134.613 152.709 134.568 152.75 134.514L159.195 126.525C159.257 126.45 159.296 126.36 159.306 126.265C159.316 126.171 159.297 126.075 159.251 125.99C159.205 125.906 159.134 125.836 159.047 125.789C158.96 125.742 158.861 125.72 158.762 125.726Z" fill="#E2EBF2"/>
<path fill-rule="evenodd" clip-rule="evenodd" d="M158.782 130.242C158.707 130.243 158.634 130.26 158.566 130.292C158.499 130.323 158.44 130.368 158.393 130.423L152.04 137.717C151.997 137.767 151.964 137.824 151.944 137.886C151.924 137.948 151.917 138.013 151.923 138.077C151.929 138.141 151.948 138.204 151.98 138.261C152.011 138.318 152.054 138.369 152.106 138.41C152.158 138.451 152.218 138.483 152.282 138.502C152.347 138.521 152.414 138.528 152.482 138.522C152.549 138.516 152.614 138.497 152.674 138.467C152.734 138.437 152.787 138.396 152.83 138.347L159.183 131.052C159.247 130.98 159.288 130.892 159.301 130.798C159.314 130.704 159.298 130.609 159.256 130.523C159.214 130.438 159.146 130.366 159.062 130.316C158.978 130.266 158.881 130.24 158.782 130.242Z" fill="#E2EBF2"/>
<path fill-rule="evenodd" clip-rule="evenodd" d="M158.405 135.453C158.33 135.457 158.258 135.476 158.192 135.509C158.126 135.543 158.069 135.589 158.024 135.646L151.579 143.458C151.494 143.56 151.455 143.69 151.471 143.819C151.487 143.949 151.556 144.067 151.663 144.148C151.77 144.229 151.906 144.266 152.041 144.251C152.177 144.236 152.3 144.17 152.385 144.068L158.83 136.251C158.892 136.178 158.93 136.088 158.94 135.994C158.95 135.9 158.932 135.805 158.887 135.721C158.842 135.636 158.773 135.566 158.687 135.519C158.602 135.471 158.504 135.449 158.405 135.453Z" fill="#E2EBF2"/>
<path fill-rule="evenodd" clip-rule="evenodd" d="M158.677 139.881C158.602 139.884 158.529 139.903 158.463 139.937C158.396 139.97 158.338 140.017 158.292 140.074L152.85 146.67C152.808 146.721 152.777 146.779 152.759 146.841C152.74 146.903 152.735 146.968 152.743 147.032C152.75 147.096 152.771 147.158 152.804 147.214C152.837 147.271 152.881 147.321 152.934 147.361C152.987 147.401 153.048 147.43 153.113 147.448C153.178 147.466 153.246 147.471 153.313 147.463C153.38 147.456 153.444 147.436 153.503 147.404C153.562 147.373 153.614 147.331 153.656 147.28L159.099 140.68C159.16 140.607 159.199 140.517 159.209 140.424C159.219 140.33 159.201 140.235 159.156 140.151C159.112 140.067 159.043 139.997 158.958 139.949C158.873 139.901 158.776 139.877 158.677 139.881Z" fill="#E2EBF2"/>
<path fill-rule="evenodd" clip-rule="evenodd" d="M158.513 145.261C158.438 145.262 158.365 145.279 158.298 145.31C158.231 145.341 158.171 145.386 158.124 145.441L153.131 151.086C153.043 151.186 153 151.315 153.012 151.444C153.023 151.574 153.089 151.695 153.193 151.779C153.297 151.862 153.432 151.903 153.568 151.892C153.703 151.881 153.829 151.819 153.917 151.719L158.906 146.075C158.971 146.003 159.013 145.915 159.027 145.821C159.041 145.728 159.026 145.632 158.985 145.546C158.943 145.46 158.877 145.387 158.793 145.337C158.709 145.286 158.612 145.26 158.513 145.261Z" fill="#E2EBF2"/>
<path fill-rule="evenodd" clip-rule="evenodd" d="M158.694 150.472C158.559 150.474 158.431 150.526 158.337 150.617L154.346 154.351C154.296 154.396 154.256 154.45 154.229 154.509C154.201 154.569 154.186 154.633 154.185 154.698C154.183 154.764 154.195 154.829 154.221 154.889C154.246 154.95 154.283 155.005 154.331 155.052C154.379 155.099 154.436 155.136 154.499 155.161C154.561 155.186 154.629 155.2 154.697 155.2C154.765 155.2 154.833 155.187 154.896 155.162C154.959 155.137 155.016 155.1 155.064 155.053L159.054 151.32C159.13 151.252 159.182 151.163 159.204 151.067C159.225 150.97 159.216 150.869 159.177 150.777C159.138 150.686 159.071 150.607 158.985 150.553C158.899 150.498 158.797 150.47 158.694 150.472Z" fill="#E2EBF2"/>
<path fill-rule="evenodd" clip-rule="evenodd" d="M134.155 235.599C131.76 235.423 129.279 235.922 127.151 236.957C124.63 238.183 122.298 240.078 120.86 242.48C119.418 244.89 118.723 247.82 119.057 250.6C119.455 253.923 120.906 257.417 123.566 259.766C126.427 262.291 130.544 263.937 134.508 263.677C138.531 263.413 142.387 261.185 144.917 258.308C147.061 255.868 148.007 252.55 148.028 249.471C148.041 245.988 147.21 241.995 144.515 239.32C141.831 236.658 137.707 235.864 134.155 235.603V235.599ZM134.004 237.43C137.356 237.676 141.011 238.491 143.124 240.589C145.276 242.724 146.116 246.275 146.104 249.461C146.086 252.181 145.206 255.124 143.444 257.129C141.227 259.651 137.722 261.627 134.373 261.847C131.073 262.063 127.354 260.613 124.873 258.422C122.666 256.473 121.32 253.351 120.965 250.392C120.685 248.05 121.291 245.454 122.529 243.386C123.734 241.372 125.793 239.675 128.022 238.59C129.829 237.711 131.995 237.282 134.004 237.43Z" fill="#E2EBF2"/>
<path fill-rule="evenodd" clip-rule="evenodd" d="M135.335 224.019C128.165 223.549 120.592 226.557 115.374 231.161C110.566 235.404 107.88 241.812 107.149 247.906C106.544 252.945 107.811 258.315 110.437 262.699C113.041 267.047 117.311 270.522 121.927 272.767C125.792 274.646 130.327 275.554 134.666 275.235C141.265 274.751 148.819 273.248 153.619 268.487C158.454 263.692 160.024 256.371 160 249.948C159.964 244.312 158.213 238.236 154.344 233.837C149.72 228.579 142.611 224.5 135.335 224.023V224.019ZM135.203 225.846C141.806 226.279 148.557 230.11 152.868 235.012C156.355 238.977 158.042 244.678 158.076 249.955C158.099 256.081 156.524 262.96 152.233 267.216C148.002 271.411 140.914 272.939 134.515 273.408C130.562 273.699 126.346 272.857 122.803 271.134C118.477 269.031 114.48 265.749 112.109 261.789C109.688 257.747 108.509 252.714 109.061 248.114C109.749 242.385 112.326 236.352 116.682 232.508C121.52 228.239 128.698 225.419 135.203 225.846Z" fill="#E2EBF2"/>
<path fill-rule="evenodd" clip-rule="evenodd" d="M122.405 227.34L120.744 228.267L126.996 238.468L128.657 237.54L122.405 227.34Z" fill="#E2EBF2"/>
<path fill-rule="evenodd" clip-rule="evenodd" d="M145.785 227.87L139.171 237.383L140.772 238.397L147.385 228.883L145.785 227.87Z" fill="#E2EBF2"/>
<path fill-rule="evenodd" clip-rule="evenodd" d="M154.626 236.187L145.007 241.688L145.999 243.261L155.618 237.759L154.626 236.187Z" fill="#E2EBF2"/>
<path fill-rule="evenodd" clip-rule="evenodd" d="M146.356 254.178L145.371 255.754L156.674 262.172L157.659 260.596L146.356 254.178Z" fill="#E2EBF2"/>
<path fill-rule="evenodd" clip-rule="evenodd" d="M141.959 260.045L140.148 260.664L144.477 272.126L146.288 271.507L141.959 260.045Z" fill="#E2EBF2"/>
<path fill-rule="evenodd" clip-rule="evenodd" d="M125.914 260.697L119.902 270.554L121.563 271.474L127.575 261.617L125.914 260.697Z" fill="#E2EBF2"/>
<path fill-rule="evenodd" clip-rule="evenodd" d="M121.465 254.74L110.763 260.471L111.703 262.072L122.405 256.341L121.465 254.74Z" fill="#E2EBF2"/>
<path fill-rule="evenodd" clip-rule="evenodd" d="M111.74 236.699L110.824 238.311L120.804 243.468L121.721 241.857L111.74 236.699Z" fill="#E2EBF2"/>
<path fill-rule="evenodd" clip-rule="evenodd" d="M113.24 239.948C113.131 239.944 113.023 239.975 112.935 240.038L108.907 242.788C108.804 242.86 108.734 242.967 108.713 243.087C108.693 243.208 108.723 243.331 108.798 243.429C108.873 243.528 108.986 243.595 109.112 243.614C109.238 243.634 109.367 243.605 109.471 243.533L113.499 240.783C113.582 240.728 113.645 240.649 113.679 240.558C113.712 240.467 113.715 240.368 113.686 240.276C113.657 240.183 113.599 240.102 113.519 240.043C113.438 239.984 113.341 239.951 113.24 239.948Z" fill="#E2EBF2"/>
<path fill-rule="evenodd" clip-rule="evenodd" d="M113.89 241.38C113.764 241.378 113.643 241.423 113.552 241.505L108.201 246.204C108.154 246.245 108.116 246.294 108.09 246.349C108.063 246.404 108.048 246.463 108.045 246.524C108.043 246.584 108.053 246.644 108.075 246.701C108.096 246.758 108.13 246.81 108.173 246.854C108.216 246.899 108.267 246.935 108.325 246.96C108.382 246.986 108.444 247 108.508 247.002C108.571 247.005 108.634 246.995 108.694 246.974C108.753 246.954 108.808 246.922 108.855 246.881L114.205 242.182C114.279 242.12 114.33 242.039 114.354 241.949C114.378 241.859 114.372 241.764 114.338 241.677C114.303 241.59 114.242 241.515 114.162 241.462C114.082 241.409 113.987 241.381 113.89 241.38Z" fill="#E2EBF2"/>
<path fill-rule="evenodd" clip-rule="evenodd" d="M114.634 243.386C114.526 243.393 114.424 243.434 114.345 243.503L107.43 249.292C107.38 249.33 107.339 249.378 107.308 249.433C107.278 249.487 107.259 249.547 107.254 249.608C107.248 249.67 107.256 249.731 107.276 249.79C107.296 249.849 107.328 249.903 107.37 249.949C107.413 249.996 107.464 250.034 107.523 250.06C107.581 250.087 107.644 250.103 107.708 250.106C107.773 250.109 107.838 250.1 107.898 250.079C107.959 250.058 108.015 250.025 108.062 249.983L114.98 244.195C115.058 244.133 115.114 244.048 115.138 243.954C115.163 243.859 115.156 243.76 115.117 243.669C115.079 243.579 115.011 243.503 114.924 243.452C114.837 243.401 114.736 243.378 114.634 243.386Z" fill="#E2EBF2"/>
<path fill-rule="evenodd" clip-rule="evenodd" d="M115.036 245.621C114.911 245.618 114.79 245.661 114.698 245.742L107.904 251.587C107.809 251.669 107.753 251.783 107.746 251.905C107.74 252.027 107.784 252.145 107.87 252.236C107.956 252.326 108.076 252.38 108.203 252.386C108.331 252.392 108.456 252.35 108.55 252.268L115.344 246.422C115.417 246.361 115.468 246.281 115.492 246.191C115.516 246.102 115.511 246.008 115.478 245.921C115.444 245.834 115.384 245.759 115.306 245.706C115.227 245.652 115.133 245.623 115.036 245.621Z" fill="#E2EBF2"/>
<path fill-rule="evenodd" clip-rule="evenodd" d="M115.72 247.856C115.613 247.862 115.511 247.902 115.43 247.97L108.096 253.987C108.046 254.026 108.006 254.074 107.976 254.128C107.946 254.182 107.928 254.241 107.923 254.302C107.917 254.362 107.925 254.424 107.945 254.482C107.964 254.54 107.996 254.593 108.038 254.639C108.079 254.686 108.13 254.724 108.188 254.751C108.245 254.778 108.307 254.794 108.371 254.798C108.435 254.802 108.499 254.794 108.559 254.774C108.62 254.754 108.675 254.723 108.723 254.682L116.058 248.665C116.136 248.603 116.191 248.519 116.216 248.425C116.241 248.332 116.234 248.233 116.196 248.143C116.159 248.053 116.093 247.977 116.007 247.925C115.921 247.874 115.821 247.85 115.72 247.856Z" fill="#E2EBF2"/>
<path fill-rule="evenodd" clip-rule="evenodd" d="M116.562 250.435C116.453 250.44 116.35 250.48 116.268 250.549L108.873 256.623C108.777 256.703 108.717 256.816 108.708 256.938C108.699 257.059 108.741 257.179 108.825 257.271C108.908 257.364 109.027 257.42 109.155 257.429C109.282 257.438 109.408 257.398 109.505 257.318L116.9 251.243C116.977 251.182 117.033 251.098 117.058 251.004C117.082 250.91 117.076 250.812 117.038 250.722C117.001 250.632 116.934 250.556 116.849 250.504C116.763 250.453 116.663 250.429 116.562 250.435Z" fill="#E2EBF2"/>
<path fill-rule="evenodd" clip-rule="evenodd" d="M117.11 253.3C117.002 253.305 116.899 253.344 116.817 253.412L109.783 259.028C109.734 259.067 109.694 259.114 109.665 259.168C109.635 259.221 109.617 259.279 109.611 259.339C109.606 259.399 109.612 259.46 109.631 259.517C109.65 259.575 109.68 259.628 109.721 259.675C109.761 259.721 109.811 259.76 109.867 259.788C109.923 259.816 109.984 259.833 110.047 259.838C110.11 259.844 110.174 259.837 110.234 259.819C110.294 259.802 110.35 259.772 110.399 259.734L117.433 254.118C117.513 254.057 117.57 253.974 117.597 253.881C117.624 253.787 117.62 253.688 117.584 253.597C117.548 253.506 117.483 253.429 117.397 253.376C117.312 253.322 117.212 253.296 117.11 253.3Z" fill="#E2EBF2"/>
<path fill-rule="evenodd" clip-rule="evenodd" d="M22.894 209.5C20.4014 209.475 17.9055 209.64 15.4554 210.027C12.4957 210.493 9.33091 211.213 6.72937 212.942C4.65267 214.323 3.155 216.339 2.0454 218.367C0.898767 220.463 0.13759 222.829 0.0279058 225.225C-0.128576 228.615 0.350212 232.245 2.0454 235.354C4.69607 240.216 8.83114 244.9 14.2068 247.253C18.2256 249.012 23.0223 248.985 27.2076 248.056C32.203 246.948 37.1189 244.421 40.5471 240.752C43.5217 237.568 45.0743 233.307 45.7284 229.226C46.2573 225.926 46.0727 222.321 44.6491 219.17C43.4966 216.619 41.4016 214.455 39.0199 212.932C36.3952 211.255 33.245 210.6 30.3115 210.133C27.8741 209.746 25.3867 209.526 22.894 209.5ZM22.8728 211.206C25.2667 211.232 27.663 211.443 30.0117 211.816C32.8739 212.271 35.7639 212.912 38.0076 214.345C40.1348 215.705 42.0033 217.661 42.9878 219.84C44.2359 222.602 44.4336 225.916 43.9437 228.973C43.3257 232.829 41.8408 236.791 39.1927 239.626C36.0619 242.977 31.449 245.364 26.795 246.397C22.9063 247.259 18.4714 247.242 14.9651 245.707C10.1047 243.579 6.16506 239.187 3.65022 234.574C2.15588 231.833 1.68687 228.481 1.83377 225.298C1.92995 223.197 2.60922 221.053 3.65022 219.15C4.67732 217.273 6.04087 215.488 7.76986 214.339C9.99504 212.86 12.8899 212.16 15.7517 211.71C18.0889 211.342 20.479 211.182 22.8728 211.206Z" fill="#E2EBF2"/>
<path fill-rule="evenodd" clip-rule="evenodd" d="M3.01182 218.004C2.83253 218.014 2.6604 218.074 2.51744 218.176C2.37448 218.279 2.26718 218.42 2.20925 218.58C2.15132 218.741 2.14539 218.914 2.19223 219.078C2.23906 219.242 2.33653 219.389 2.47218 219.5C2.47218 219.5 3.31776 220.213 4.41913 221.019C5.5205 221.825 6.84462 222.732 8.0485 223.179C13.1489 225.07 18.762 225.307 24.0756 225.261C35.3167 225.166 44.0107 220.703 44.0107 220.703C44.118 220.651 44.2133 220.58 44.2909 220.492C44.3685 220.405 44.4269 220.305 44.4626 220.196C44.4983 220.087 44.5107 219.973 44.4989 219.86C44.4871 219.746 44.4514 219.636 44.394 219.536C44.3366 219.436 44.2585 219.348 44.1645 219.277C44.0704 219.206 43.9622 219.153 43.8463 219.122C43.7304 219.091 43.6091 219.082 43.4895 219.096C43.3699 219.11 43.2545 219.147 43.1501 219.203C43.1501 219.203 34.8018 223.463 24.0579 223.555C18.8159 223.599 13.4341 223.342 8.70807 221.589C7.90075 221.29 6.57484 220.437 5.52663 219.67C4.47843 218.903 3.67491 218.227 3.67491 218.227C3.58583 218.15 3.48124 218.09 3.36733 218.052C3.25343 218.014 3.13253 217.997 3.01182 218.004Z" fill="#E2EBF2"/>
<path fill-rule="evenodd" clip-rule="evenodd" d="M44.5821 224.082C44.348 224.09 44.1266 224.185 43.9648 224.345C43.9648 224.345 43.5577 224.735 43.0266 225.195C42.4956 225.654 41.8156 226.185 41.443 226.387C39.2452 227.58 36.7196 228.328 34.1666 228.797C31.9852 229.197 26.9149 229.1 26.9149 229.1C26.7963 229.097 26.6782 229.116 26.5673 229.156C26.4565 229.196 26.3551 229.256 26.2689 229.333C26.1827 229.41 26.1135 229.502 26.0651 229.605C26.0167 229.707 25.9901 229.817 25.9868 229.929C25.9836 230.041 26.0038 230.153 26.0462 230.258C26.0886 230.363 26.1524 230.458 26.234 230.54C26.3156 230.621 26.4134 230.686 26.5217 230.732C26.6301 230.778 26.7469 230.803 26.8655 230.806C26.8655 230.806 31.8135 230.968 34.5122 230.473C37.1995 229.98 39.9114 229.186 42.3424 227.867C43.0005 227.51 43.6774 226.95 44.247 226.457C44.8166 225.965 45.2522 225.544 45.2522 225.544C45.3818 225.423 45.4696 225.268 45.5042 225.099C45.5388 224.93 45.5185 224.756 45.446 224.598C45.3735 224.44 45.2523 224.307 45.0981 224.215C44.9439 224.124 44.764 224.078 44.5821 224.085L44.5821 224.082Z" fill="#E2EBF2"/>
<path fill-rule="evenodd" clip-rule="evenodd" d="M43.8484 231.459C43.7064 231.463 43.5675 231.499 43.4428 231.563C43.4428 231.563 38.7291 233.85 36.4592 234.465C34.9377 234.877 31.2215 235.182 31.2215 235.182C30.9824 235.199 30.7606 235.306 30.6049 235.478C30.4491 235.65 30.3721 235.874 30.3908 236.1C30.4095 236.325 30.5224 236.535 30.7046 236.682C30.8869 236.829 31.1235 236.902 31.3626 236.884C31.3626 236.884 34.9695 236.643 36.9565 236.105C39.6921 235.363 44.2787 233.076 44.2787 233.076C44.4629 232.989 44.6102 232.846 44.6962 232.669C44.7822 232.492 44.8017 232.293 44.7514 232.104C44.7012 231.916 44.5843 231.749 44.4201 231.632C44.2559 231.514 44.0542 231.453 43.8484 231.459Z" fill="#E2EBF2"/>
<path fill-rule="evenodd" clip-rule="evenodd" d="M23.3807 213.159C21.7211 213.176 19.5977 213.208 17.5752 213.352C15.5514 213.496 13.6541 213.726 12.2845 214.232C9.67515 215.195 8.41179 217.014 8.41179 217.014C8.34663 217.109 8.30204 217.215 8.2806 217.326C8.25916 217.437 8.26129 217.551 8.28689 217.662C8.31248 217.772 8.36102 217.876 8.42969 217.969C8.49836 218.061 8.58579 218.14 8.6869 218.2C8.6869 218.2 12.752 220.662 16.4888 221.406C20.1538 222.136 26.1908 222.165 29.8882 221.459C33.6604 220.738 37.8594 218.256 37.8594 218.256C37.981 218.185 38.0831 218.088 38.1572 217.973C38.2313 217.858 38.2753 217.727 38.2856 217.592C38.296 217.458 38.2723 217.323 38.2166 217.198C38.1609 217.074 38.0748 216.964 37.9652 216.877C37.9652 216.877 35.3026 214.696 32.6393 213.891C30.0514 213.11 26.6956 213.131 23.3843 213.158L23.3807 213.159ZM23.3984 214.865C26.6972 214.838 29.9633 214.882 32.0892 215.518C33.604 215.975 34.7064 216.872 35.5704 217.487C34.1994 218.202 31.8769 219.339 29.5321 219.786C26.244 220.414 20.1204 220.385 16.8628 219.737C14.4227 219.251 12.0178 218.015 10.7785 217.345C11.167 216.907 11.4404 216.376 12.9406 215.822C13.9218 215.46 15.7577 215.194 17.7093 215.056C19.6608 214.917 21.7529 214.879 23.3984 214.865Z" fill="#E2EBF2"/>
<path fill-rule="evenodd" clip-rule="evenodd" d="M14.7711 205.872L13.0464 206.375L17.7304 220.769L19.4551 220.266L14.7711 205.872Z" fill="#E2EBF2"/>
<path fill-rule="evenodd" clip-rule="evenodd" d="M38.8964 201.8C38.7848 201.803 38.6748 201.825 38.5719 201.866L30.897 204.798C30.7546 204.853 30.6294 204.941 30.5331 205.054C30.4368 205.167 30.3727 205.302 30.3467 205.445L27.578 220.533C27.5578 220.643 27.5609 220.756 27.5871 220.866C27.6132 220.975 27.6619 221.079 27.7304 221.17C27.8686 221.355 28.079 221.481 28.3152 221.519C28.4321 221.538 28.5519 221.535 28.6677 221.51C28.7834 221.486 28.8929 221.44 28.9898 221.375C29.1856 221.244 29.3185 221.046 29.3592 220.823L32.0397 206.201L39.2491 203.449C39.4486 203.377 39.6146 203.24 39.7176 203.063C39.8205 202.887 39.8538 202.681 39.8115 202.483C39.7692 202.285 39.6541 202.108 39.4865 201.983C39.319 201.858 39.1099 201.793 38.8964 201.8Z" fill="#E2EBF2"/>
<path fill-rule="evenodd" clip-rule="evenodd" d="M12.8065 200.524C12.6791 200.528 12.5542 200.558 12.4399 200.612C12.3256 200.665 12.2246 200.741 12.1434 200.834L6.33081 207.444C6.20943 207.583 6.13767 207.755 6.12581 207.934C6.11395 208.114 6.16259 208.293 6.26476 208.445C6.36694 208.597 6.51741 208.715 6.69464 208.781C6.87186 208.847 7.06674 208.859 7.25138 208.814L21.6419 205.295C21.8272 205.25 21.9925 205.15 22.1138 205.01C22.2351 204.87 22.3061 204.697 22.3167 204.517C22.3273 204.336 22.2769 204.157 22.1727 204.005C22.0685 203.854 21.916 203.737 21.7371 203.673L13.1592 200.58C13.0468 200.54 12.9269 200.52 12.8065 200.524ZM13.1205 202.39L18.4499 204.312L9.50871 206.498L13.1205 202.39Z" fill="#E2EBF2"/>
<path fill-rule="evenodd" clip-rule="evenodd" d="M12.1188 198.308C11.9772 198.313 11.8389 198.35 11.7151 198.415C11.5913 198.48 11.4854 198.572 11.4061 198.683C11.3268 198.794 11.2762 198.921 11.2585 199.054C11.2407 199.186 11.2563 199.321 11.304 199.447L12.0376 201.493C12.0741 201.601 12.1329 201.701 12.2107 201.787C12.2885 201.873 12.3836 201.944 12.4906 201.995C12.5976 202.046 12.7143 202.077 12.8339 202.085C12.9535 202.093 13.0736 202.078 13.1872 202.042C13.3008 202.006 13.4056 201.949 13.4954 201.874C13.5853 201.799 13.6585 201.708 13.7108 201.606C13.763 201.504 13.7932 201.393 13.7997 201.28C13.8061 201.167 13.7886 201.053 13.7483 200.947L13.0146 198.901C12.9546 198.723 12.8344 198.569 12.6726 198.462C12.5107 198.355 12.3162 198.301 12.1188 198.308Z" fill="#E2EBF2"/>
<path fill-rule="evenodd" clip-rule="evenodd" d="M6.34139 224.891C6.25581 224.897 6.17384 224.927 6.10508 224.975L0.835609 228.517C0.787206 228.55 0.746074 228.591 0.714562 228.638C0.683049 228.686 0.661773 228.739 0.651947 228.794C0.642122 228.85 0.64394 228.907 0.657298 228.961C0.670656 229.016 0.695291 229.068 0.729799 229.114C0.764306 229.159 0.808009 229.198 0.858412 229.228C0.908815 229.258 0.964932 229.278 1.02356 229.287C1.08218 229.296 1.14217 229.295 1.20009 229.282C1.25802 229.269 1.31274 229.246 1.36114 229.213L6.62709 225.668C6.70823 225.615 6.76874 225.538 6.79935 225.45C6.82997 225.361 6.829 225.265 6.79659 225.177C6.76419 225.089 6.70213 225.014 6.61992 224.962C6.53772 224.911 6.43988 224.885 6.34139 224.891Z" fill="#E2EBF2"/>
<path fill-rule="evenodd" clip-rule="evenodd" d="M8.07672 226.777C7.99124 226.787 7.91047 226.82 7.84393 226.871L1.85846 231.32C1.80818 231.353 1.7656 231.396 1.73334 231.445C1.70108 231.494 1.67981 231.549 1.67083 231.607C1.66185 231.664 1.66535 231.722 1.68112 231.779C1.69689 231.835 1.7246 231.887 1.76254 231.933C1.80049 231.978 1.84788 232.016 1.90182 232.044C1.95576 232.072 2.01511 232.089 2.07625 232.094C2.13739 232.099 2.19902 232.093 2.2574 232.075C2.31577 232.057 2.36965 232.028 2.41574 231.989L8.40121 227.541C8.47972 227.484 8.53642 227.405 8.56261 227.315C8.5888 227.225 8.58304 227.129 8.54622 227.043C8.50939 226.956 8.44353 226.883 8.35873 226.836C8.27393 226.788 8.17486 226.767 8.07672 226.777Z" fill="#E2EBF2"/>
<path fill-rule="evenodd" clip-rule="evenodd" d="M10.4963 228.36C10.3946 228.365 10.2976 228.402 10.2212 228.466L2.95891 234.347C2.91265 234.383 2.87448 234.428 2.84664 234.478C2.81881 234.528 2.80186 234.583 2.79679 234.64C2.79173 234.696 2.79864 234.753 2.81714 234.807C2.83563 234.861 2.86534 234.911 2.90451 234.954C2.94368 234.997 2.99153 235.032 3.04527 235.058C3.099 235.083 3.15754 235.098 3.21745 235.101C3.27737 235.105 3.33746 235.097 3.3942 235.079C3.45095 235.06 3.50321 235.031 3.54794 234.993L10.8102 229.113C10.8829 229.056 10.9346 228.978 10.958 228.891C10.9814 228.804 10.9753 228.713 10.9405 228.63C10.9058 228.546 10.8442 228.475 10.7645 228.427C10.6848 228.379 10.5909 228.355 10.4963 228.36Z" fill="#E2EBF2"/>
<path fill-rule="evenodd" clip-rule="evenodd" d="M12.3304 230.696C12.2282 230.702 12.1312 230.74 12.0553 230.805L4.55316 236.986C4.50627 237.022 4.46755 237.067 4.4393 237.117C4.41104 237.168 4.39383 237.223 4.38868 237.28C4.38353 237.337 4.39056 237.394 4.40933 237.449C4.42811 237.503 4.45825 237.553 4.49798 237.596C4.5377 237.639 4.58619 237.675 4.64057 237.7C4.69495 237.725 4.75411 237.739 4.81453 237.742C4.87495 237.745 4.93541 237.737 4.9923 237.718C5.04919 237.698 5.10136 237.668 5.14571 237.629L12.6478 231.448C12.7208 231.39 12.7727 231.312 12.796 231.225C12.8193 231.138 12.813 231.046 12.7778 230.963C12.7426 230.879 12.6804 230.808 12.6 230.76C12.5197 230.712 12.4253 230.69 12.3304 230.696Z" fill="#E2EBF2"/>
<path fill-rule="evenodd" clip-rule="evenodd" d="M14.3373 232.808C14.235 232.811 14.1368 232.847 14.0587 232.909L5.84054 239.317C5.74794 239.389 5.68941 239.493 5.67784 239.605C5.66627 239.718 5.7026 239.831 5.77884 239.918C5.85508 240.006 5.96498 240.061 6.08437 240.072C6.20376 240.083 6.32285 240.048 6.41546 239.976L14.6336 233.569C14.7077 233.513 14.7613 233.436 14.7868 233.35C14.8123 233.264 14.8084 233.172 14.7756 233.088C14.7428 233.004 14.6828 232.932 14.6041 232.881C14.5255 232.831 14.4321 232.805 14.3373 232.808Z" fill="#E2EBF2"/>
<path fill-rule="evenodd" clip-rule="evenodd" d="M16.2419 235.447C16.1555 235.452 16.0722 235.48 16.0021 235.528L7.5406 241.182C7.49219 241.215 7.451 241.256 7.41939 241.303C7.38778 241.35 7.36637 241.403 7.35638 241.459C7.34638 241.514 7.348 241.57 7.36115 241.625C7.37429 241.68 7.3987 241.731 7.43297 241.777C7.46725 241.823 7.51073 241.862 7.56093 241.891C7.61112 241.921 7.66705 241.941 7.72552 241.951C7.78399 241.96 7.84385 241.959 7.90169 241.946C7.95953 241.934 8.01421 241.911 8.06261 241.879L16.5241 236.224C16.6049 236.171 16.6652 236.095 16.6958 236.006C16.7265 235.918 16.7258 235.823 16.6938 235.735C16.6619 235.647 16.6005 235.572 16.5189 235.52C16.4374 235.468 16.3401 235.442 16.2419 235.447Z" fill="#E2EBF2"/>
<path fill-rule="evenodd" clip-rule="evenodd" d="M18.665 236.954C18.5629 236.953 18.4634 236.984 18.3829 237.044L10.4822 242.699C10.3868 242.767 10.3241 242.868 10.3079 242.981C10.2917 243.093 10.3233 243.206 10.3958 243.297C10.4683 243.387 10.5757 243.446 10.6945 243.461C10.8132 243.477 10.9335 243.447 11.0289 243.378L18.9296 237.724C19.0058 237.671 19.0624 237.596 19.0914 237.511C19.1203 237.426 19.1202 237.334 19.0909 237.249C19.0617 237.164 19.0048 237.089 18.9283 237.036C18.8519 236.983 18.7598 236.954 18.665 236.954Z" fill="#E2EBF2"/>
<path fill-rule="evenodd" clip-rule="evenodd" d="M21.067 238.536C20.9648 238.535 20.8653 238.567 20.7848 238.627L12.2422 244.581C12.1934 244.614 12.152 244.656 12.1204 244.704C12.0889 244.752 12.0677 244.805 12.0583 244.861C12.0489 244.917 12.0513 244.974 12.0655 245.029C12.0797 245.084 12.1053 245.136 12.1409 245.182C12.1765 245.227 12.2213 245.266 12.2728 245.295C12.3242 245.324 12.3813 245.343 12.4406 245.351C12.4999 245.359 12.5604 245.355 12.6183 245.341C12.6763 245.327 12.7307 245.302 12.7783 245.267L21.3209 239.31C21.398 239.258 21.4557 239.184 21.4859 239.099C21.5161 239.014 21.5172 238.922 21.4891 238.837C21.461 238.751 21.4051 238.676 21.3294 238.622C21.2536 238.568 21.1618 238.538 21.067 238.536Z" fill="#E2EBF2"/>
<path fill-rule="evenodd" clip-rule="evenodd" d="M23.4689 240.346C23.3509 240.341 23.2357 240.38 23.148 240.455L16.2067 246.186C16.1598 246.222 16.121 246.267 16.0928 246.317C16.0645 246.368 16.0473 246.423 16.0422 246.48C16.037 246.537 16.0441 246.595 16.0628 246.649C16.0816 246.703 16.1117 246.753 16.1515 246.797C16.1912 246.84 16.2397 246.875 16.2941 246.9C16.3484 246.925 16.4076 246.939 16.468 246.943C16.5284 246.946 16.5889 246.937 16.6458 246.918C16.7027 246.898 16.7549 246.868 16.7992 246.829L23.744 241.098C23.814 241.043 23.8645 240.968 23.8889 240.885C23.9133 240.802 23.9104 240.714 23.8806 240.632C23.8508 240.551 23.7955 240.479 23.722 240.428C23.6485 240.377 23.5602 240.348 23.4689 240.346Z" fill="#E2EBF2"/>
<path fill-rule="evenodd" clip-rule="evenodd" d="M26.3788 242.382C26.2616 242.388 26.1515 242.436 26.0719 242.518L20.9647 247.57C20.9237 247.61 20.8915 247.658 20.8701 247.71C20.8486 247.762 20.8382 247.818 20.8395 247.874C20.8408 247.93 20.8538 247.985 20.8777 248.036C20.9016 248.088 20.936 248.134 20.9788 248.173C21.0216 248.211 21.0721 248.242 21.1274 248.262C21.1827 248.282 21.2416 248.292 21.3009 248.291C21.3602 248.29 21.4186 248.277 21.4729 248.255C21.5272 248.232 21.5762 248.2 21.6172 248.159L26.7244 243.108C26.7888 243.046 26.8319 242.968 26.8483 242.883C26.8646 242.799 26.8533 242.711 26.8158 242.632C26.7784 242.554 26.7166 242.488 26.6386 242.443C26.5605 242.398 26.4699 242.377 26.3788 242.382Z" fill="#E2EBF2"/>
</svg>
