<svg width="203" height="95" viewBox="0 0 203 95" fill="none" xmlns="http://www.w3.org/2000/svg">
<path d="M1 21.0459C1 21.0459 49.5943 -24.0574 66.1163 21.0459C82.6383 66.1493 108.879 -35.5695 134.148 21.0459C159.417 77.6613 201.208 21.0459 201.208 21.0459M1 44.2959C1 44.2959 49.5943 -0.807423 66.1163 44.2959C82.6383 89.3993 108.879 -12.3195 134.148 44.2959C159.417 100.911 201.208 44.2959 201.208 44.2959M1 68.1187C1 68.1187 49.5943 21.7266 66.1163 68.1187C82.6383 114.511 108.879 9.8857 134.148 68.1187C159.417 126.352 201.208 68.1187 201.208 68.1187" stroke="#0468CC" stroke-width="2"/>
</svg>
