<svg width="66" height="50" viewBox="0 0 66 50" fill="none" xmlns="http://www.w3.org/2000/svg">
<path fill-rule="evenodd" clip-rule="evenodd" d="M50.8388 0.373338C51.5334 -0.124446 52.4665 -0.124446 53.1612 0.373338C61.8141 6.5742 65.7369 14.0079 65.9841 24.6734C66.0983 29.7662 65.6096 34.4293 64.1224 38.4576C62.5972 42.4883 59.8847 46.2123 55.8913 49.357C55.3875 49.7507 54.7263 49.8789 54.1125 49.7022C52.8894 49.3499 52.6812 47.8954 52 46.9889C51.3184 47.896 51.1115 49.3497 49.8875 49.7022C49.2737 49.8789 48.6126 49.7507 48.1087 49.357C44.1153 46.2123 41.4029 42.4883 39.8776 38.4576C38.3904 34.4293 37.9018 29.7662 38.0159 24.6734C38.2631 14.0079 42.1858 6.5742 50.8388 0.373338ZM55.3122 44.7632C57.8111 42.4582 59.3169 39.9429 60.3809 37.0509C61.7196 33.5143 62.1057 29.6083 61.9896 24.7665C61.7968 16.4501 59.8571 11.038 53.9803 6.01296V20.7113C56.2781 21.3045 57.31 23.5657 57.31 26.0562C57.31 28.5466 56.2781 30.8078 53.9803 31.401V43.4269C53.9803 43.4269 55.0481 44.4145 55.3122 44.7632ZM48.6528 44.7632C46.1538 42.4582 44.6832 39.9429 43.6191 37.0509C42.2805 33.5143 41.8943 29.6083 42.0104 24.7665C42.2028 16.4667 44.1325 11.0313 49.9847 6.01296V20.7113C47.6869 21.3045 46.655 23.5657 46.655 26.0562C46.655 28.5466 47.6869 30.8078 49.9847 31.401V43.4269C49.9847 43.4269 48.907 44.4273 48.6528 44.7632ZM51.9825 23.3837C50.5113 23.3837 49.3187 24.5802 49.3187 26.0562C49.3187 27.5321 50.5113 28.7286 51.9825 28.7286C53.4536 28.7286 54.6463 27.5321 54.6463 26.0562C54.6463 24.5802 53.4536 23.3837 51.9825 23.3837Z" fill="#0468CC"/>
<path fill-rule="evenodd" clip-rule="evenodd" d="M12.8388 0.373338C13.5334 -0.124446 14.4665 -0.124446 15.1612 0.373338C23.8141 6.5742 27.7369 14.0079 27.9841 24.6734C28.0983 29.7662 27.6096 34.4293 26.1224 38.4576C24.5972 42.4883 21.8847 46.2123 17.8913 49.357C17.3875 49.7507 16.7263 49.8789 16.1125 49.7022C14.8894 49.3499 14.6812 47.8954 14 46.9889C13.3184 47.896 13.1115 49.3497 11.8875 49.7022C11.2737 49.8789 10.6126 49.7507 10.1087 49.357C6.11529 46.2123 3.40292 42.4883 1.87755 38.4576C0.390375 34.4293 -0.0982432 29.7662 0.0158867 24.6734C0.263115 14.0079 4.18581 6.5742 12.8388 0.373338ZM17.3122 44.7632C19.8111 42.4582 21.3169 39.9429 22.3809 37.0509C23.7196 33.5143 24.1057 29.6083 23.9896 24.7665C23.7968 16.4501 21.8571 11.038 15.9803 6.01296V20.7113C18.2781 21.3045 19.31 23.5657 19.31 26.0562C19.31 28.5466 18.2781 30.8078 15.9803 31.401V43.4269C15.9803 43.4269 17.0481 44.4145 17.3122 44.7632ZM10.6528 44.7632C8.1538 42.4582 6.68316 39.9429 5.61908 37.0509C4.28049 33.5143 3.89428 29.6083 4.01043 24.7665C4.20282 16.4667 6.1325 11.0313 11.9847 6.01296V20.7113C9.68687 21.3045 8.65497 23.5657 8.65497 26.0562C8.65497 28.5466 9.68687 30.8078 11.9847 31.401V43.4269C11.9847 43.4269 10.907 44.4273 10.6528 44.7632ZM13.9825 23.3837C12.5113 23.3837 11.3187 24.5802 11.3187 26.0562C11.3187 27.5321 12.5113 28.7286 13.9825 28.7286C15.4536 28.7286 16.6463 27.5321 16.6463 26.0562C16.6463 24.5802 15.4536 23.3837 13.9825 23.3837Z" fill="#0468CC"/>
</svg>
