<svg width="104" height="50" viewBox="0 0 104 50" fill="none" xmlns="http://www.w3.org/2000/svg">
<path fill-rule="evenodd" clip-rule="evenodd" d="M88.8388 0.373321C89.5334 -0.12444 90.4665 -0.12444 91.1612 0.373321C99.8141 6.5739 103.737 14.0073 103.984 24.6723C104.098 29.7649 103.61 34.4278 102.122 38.4559C100.597 42.4864 97.8847 46.2102 93.8913 49.3548C93.3875 49.7484 92.7263 49.8767 92.1125 49.7C90.8894 49.3477 90.6812 47.8933 90 46.9868C89.3184 47.8938 89.1115 49.3475 87.8875 49.7C87.2737 49.8767 86.6126 49.7484 86.1087 49.3548C82.1153 46.2102 79.4029 42.4864 77.8776 38.4559C76.3904 34.4278 75.9018 29.7649 76.0159 24.6723C76.2631 14.0073 80.1858 6.5739 88.8388 0.373321ZM93.3122 44.7612C95.8111 42.4563 97.3169 39.9411 98.3809 37.0492C99.7196 33.5128 100.106 29.6069 99.9896 24.7654C99.7968 16.4494 97.8571 11.0375 91.9803 6.01269V20.7104C94.2781 21.3036 95.31 23.5646 95.31 26.055C95.31 28.5454 94.2781 30.8064 91.9803 31.3996V43.425C91.9803 43.425 93.0481 44.4125 93.3122 44.7612ZM86.6528 44.7612C84.1538 42.4563 82.6832 39.9411 81.6191 37.0492C80.2805 33.5128 79.8943 29.6069 80.0104 24.7654C80.2028 16.4659 82.1325 11.0308 87.9847 6.01269V20.7104C85.6869 21.3036 84.655 23.5646 84.655 26.055C84.655 28.5454 85.6869 30.8064 87.9847 31.3996V43.425C87.9847 43.425 86.907 44.4253 86.6528 44.7612ZM89.9825 23.3827C88.5113 23.3827 87.3187 24.5791 87.3187 26.055C87.3187 27.5309 88.5113 28.7273 89.9825 28.7273C91.4536 28.7273 92.6463 27.5309 92.6463 26.055C92.6463 24.5791 91.4536 23.3827 89.9825 23.3827Z" fill="#0468CC"/>
<path fill-rule="evenodd" clip-rule="evenodd" d="M50.8388 0.373321C51.5334 -0.12444 52.4665 -0.12444 53.1612 0.373321C61.8141 6.5739 65.7369 14.0073 65.9841 24.6723C66.0983 29.7649 65.6096 34.4278 64.1224 38.4559C62.5972 42.4864 59.8847 46.2102 55.8913 49.3548C55.3875 49.7484 54.7263 49.8767 54.1125 49.7C52.8894 49.3477 52.6812 47.8933 52 46.9868C51.3184 47.8938 51.1115 49.3475 49.8875 49.7C49.2737 49.8767 48.6126 49.7484 48.1087 49.3548C44.1153 46.2102 41.4029 42.4864 39.8776 38.4559C38.3904 34.4278 37.9018 29.7649 38.0159 24.6723C38.2631 14.0073 42.1858 6.5739 50.8388 0.373321ZM55.3122 44.7612C57.8111 42.4563 59.3169 39.9411 60.3809 37.0492C61.7196 33.5128 62.1057 29.6069 61.9896 24.7654C61.7968 16.4494 59.8571 11.0375 53.9803 6.01269V20.7104C56.2781 21.3036 57.31 23.5646 57.31 26.055C57.31 28.5454 56.2781 30.8064 53.9803 31.3996V43.425C53.9803 43.425 55.0481 44.4125 55.3122 44.7612ZM48.6528 44.7612C46.1538 42.4563 44.6832 39.9411 43.6191 37.0492C42.2805 33.5128 41.8943 29.6069 42.0104 24.7654C42.2028 16.4659 44.1325 11.0308 49.9847 6.01269V20.7104C47.6869 21.3036 46.655 23.5646 46.655 26.055C46.655 28.5454 47.6869 30.8064 49.9847 31.3996V43.425C49.9847 43.425 48.907 44.4253 48.6528 44.7612ZM51.9825 23.3827C50.5113 23.3827 49.3187 24.5791 49.3187 26.055C49.3187 27.5309 50.5113 28.7273 51.9825 28.7273C53.4536 28.7273 54.6463 27.5309 54.6463 26.055C54.6463 24.5791 53.4536 23.3827 51.9825 23.3827Z" fill="#0468CC"/>
<path fill-rule="evenodd" clip-rule="evenodd" d="M12.8388 0.373321C13.5334 -0.12444 14.4665 -0.12444 15.1612 0.373321C23.8141 6.5739 27.7369 14.0073 27.9841 24.6723C28.0983 29.7649 27.6096 34.4278 26.1224 38.4559C24.5972 42.4864 21.8847 46.2102 17.8913 49.3548C17.3875 49.7484 16.7263 49.8767 16.1125 49.7C14.8894 49.3477 14.6812 47.8933 14 46.9868C13.3184 47.8938 13.1115 49.3475 11.8875 49.7C11.2737 49.8767 10.6126 49.7484 10.1087 49.3548C6.11529 46.2102 3.40292 42.4864 1.87755 38.4559C0.390375 34.4278 -0.0982432 29.7649 0.0158867 24.6723C0.263115 14.0073 4.18581 6.5739 12.8388 0.373321ZM17.3122 44.7612C19.8111 42.4563 21.3169 39.9411 22.3809 37.0492C23.7196 33.5128 24.1057 29.6069 23.9896 24.7654C23.7968 16.4494 21.8571 11.0375 15.9803 6.01269V20.7104C18.2781 21.3036 19.31 23.5646 19.31 26.055C19.31 28.5454 18.2781 30.8064 15.9803 31.3996V43.425C15.9803 43.425 17.0481 44.4125 17.3122 44.7612ZM10.6528 44.7612C8.1538 42.4563 6.68316 39.9411 5.61908 37.0492C4.28049 33.5128 3.89428 29.6069 4.01043 24.7654C4.20282 16.4659 6.1325 11.0308 11.9847 6.01269V20.7104C9.68687 21.3036 8.65497 23.5646 8.65497 26.055C8.65497 28.5454 9.68687 30.8064 11.9847 31.3996V43.425C11.9847 43.425 10.907 44.4253 10.6528 44.7612ZM13.9825 23.3827C12.5113 23.3827 11.3187 24.5791 11.3187 26.055C11.3187 27.5309 12.5113 28.7273 13.9825 28.7273C15.4536 28.7273 16.6463 27.5309 16.6463 26.055C16.6463 24.5791 15.4536 23.3827 13.9825 23.3827Z" fill="#0468CC"/>
</svg>
