<svg width="300" height="300" viewBox="0 0 300 300" fill="none" xmlns="http://www.w3.org/2000/svg">
<path d="M300 0H0V300H300V0Z" fill="white"/>
<path d="M135.6 30H126V39.6H135.6V30Z" fill="#17222D"/>
<path d="M183.6 30H174V39.6H183.6V30Z" fill="#17222D"/>
<path d="M126 39.6H116.4V49.2H126L126 39.6Z" fill="#17222D"/>
<path d="M174 39.6H164.4V49.2H174V39.6Z" fill="#17222D"/>
<path d="M116.4 49.2H106.8V58.8H116.4V49.2Z" fill="#17222D"/>
<path d="M145.2 49.2H135.6V58.8H145.2V49.2Z" fill="#17222D"/>
<path d="M174 49.2H164.4V58.8H174V49.2Z" fill="#17222D"/>
<path d="M183.6 49.2H174V58.8H183.6V49.2Z" fill="#17222D"/>
<path d="M193.2 49.2H183.6V58.8H193.2V49.2Z" fill="#17222D"/>
<path d="M126 58.8L116.4 58.8V68.4H126V58.8Z" fill="#17222D"/>
<path d="M154.8 58.8L145.2 58.8V68.4H154.8V58.8Z" fill="#17222D"/>
<path d="M183.6 58.8H174V68.4H183.6V58.8Z" fill="#17222D"/>
<path d="M193.2 58.8H183.6V68.4H193.2V58.8Z" fill="#17222D"/>
<path d="M126 68.4H116.4V78H126V68.4Z" fill="#17222D"/>
<path d="M154.8 68.4H145.2V78H154.8V68.4Z" fill="#17222D"/>
<path d="M174 68.4L164.4 68.4V78H174V68.4Z" fill="#17222D"/>
<path d="M135.6 78L126 78L126 87.6H135.6V78Z" fill="#17222D"/>
<path d="M145.2 78L135.6 78V87.6H145.2V78Z" fill="#17222D"/>
<path d="M154.8 78H145.2V87.6H154.8V78Z" fill="#17222D"/>
<path d="M174 78H164.4V87.6H174V78Z" fill="#17222D"/>
<path d="M183.6 78L174 78V87.6H183.6V78Z" fill="#17222D"/>
<path d="M116.4 87.6H106.8V97.2H116.4V87.6Z" fill="#17222D"/>
<path d="M135.6 87.6H126V97.2H135.6V87.6Z" fill="#17222D"/>
<path d="M154.8 87.6H145.2V97.2H154.8V87.6Z" fill="#17222D"/>
<path d="M174 87.6H164.4V97.2H174V87.6Z" fill="#17222D"/>
<path d="M193.2 87.6H183.6V97.2H193.2V87.6Z" fill="#17222D"/>
<path d="M116.4 97.2H106.8V106.8H116.4V97.2Z" fill="#17222D"/>
<path d="M145.2 97.2H135.6V106.8H145.2V97.2Z" fill="#17222D"/>
<path d="M164.4 97.2H154.8L154.8 106.8H164.4V97.2Z" fill="#17222D"/>
<path d="M193.2 97.2H183.6V106.8H193.2V97.2Z" fill="#17222D"/>
<path d="M39.6 106.8H30V116.4H39.6V106.8Z" fill="#17222D"/>
<path d="M49.2 106.8H39.6V116.4H49.2V106.8Z" fill="#17222D"/>
<path d="M58.8 106.8H49.2V116.4H58.8V106.8Z" fill="#17222D"/>
<path d="M78 106.8H68.4V116.4H78V106.8Z" fill="#17222D"/>
<path d="M87.6 106.8H78V116.4H87.6V106.8Z" fill="#17222D"/>
<path d="M97.2 106.8H87.6V116.4H97.2V106.8Z" fill="#17222D"/>
<path d="M106.8 106.8L97.2 106.8V116.4H106.8L106.8 106.8Z" fill="#17222D"/>
<path d="M116.4 106.8H106.8L106.8 116.4H116.4V106.8Z" fill="#17222D"/>
<path d="M154.8 106.8H145.2V116.4H154.8L154.8 106.8Z" fill="#17222D"/>
<path d="M193.2 106.8H183.6V116.4H193.2V106.8Z" fill="#17222D"/>
<path d="M202.8 106.8L193.2 106.8V116.4H202.8V106.8Z" fill="#17222D"/>
<path d="M212.4 106.8H202.8V116.4H212.4V106.8Z" fill="#17222D"/>
<path d="M250.8 106.8H241.2V116.4H250.8V106.8Z" fill="#17222D"/>
<path d="M39.6 116.4H30V126H39.6V116.4Z" fill="#17222D"/>
<path d="M49.2 116.4H39.6V126H49.2V116.4Z" fill="#17222D"/>
<path d="M58.8 116.4H49.2V126H58.8V116.4Z" fill="#17222D"/>
<path d="M68.4 116.4H58.8V126H68.4L68.4 116.4Z" fill="#17222D"/>
<path d="M87.6 116.4H78L78 126H87.6V116.4Z" fill="#17222D"/>
<path d="M126 116.4H116.4V126H126V116.4Z" fill="#17222D"/>
<path d="M145.2 116.4H135.6V126H145.2V116.4Z" fill="#17222D"/>
<path d="M154.8 116.4H145.2V126H154.8V116.4Z" fill="#17222D"/>
<path d="M164.4 116.4H154.8V126H164.4V116.4Z" fill="#17222D"/>
<path d="M174 116.4H164.4V126H174V116.4Z" fill="#17222D"/>
<path d="M183.6 116.4H174V126H183.6V116.4Z" fill="#17222D"/>
<path d="M193.2 116.4H183.6V126H193.2V116.4Z" fill="#17222D"/>
<path d="M212.4 116.4H202.8L202.8 126H212.4V116.4Z" fill="#17222D"/>
<path d="M231.6 116.4H222V126H231.6V116.4Z" fill="#17222D"/>
<path d="M260.4 116.4H250.8L250.8 126H260.4V116.4Z" fill="#17222D"/>
<path d="M78 126H68.4L68.4 135.6H78L78 126Z" fill="#17222D"/>
<path d="M97.2 126L87.6 126V135.6H97.2V126Z" fill="#17222D"/>
<path d="M135.6 126H126L126 135.6H135.6V126Z" fill="#17222D"/>
<path d="M145.2 126H135.6V135.6H145.2V126Z" fill="#17222D"/>
<path d="M154.8 126H145.2V135.6H154.8V126Z" fill="#17222D"/>
<path d="M164.4 126H154.8V135.6H164.4V126Z" fill="#17222D"/>
<path d="M193.2 126H183.6V135.6H193.2V126Z" fill="#17222D"/>
<path d="M202.8 126H193.2V135.6H202.8L202.8 126Z" fill="#17222D"/>
<path d="M212.4 126H202.8L202.8 135.6H212.4V126Z" fill="#17222D"/>
<path d="M241.2 126L231.6 126L231.6 135.6H241.2V126Z" fill="#17222D"/>
<path d="M58.8 135.6H49.2V145.2H58.8V135.6Z" fill="#17222D"/>
<path d="M87.6 135.6H78L78 145.2H87.6V135.6Z" fill="#17222D"/>
<path d="M106.8 135.6H97.2L97.2 145.2H106.8V135.6Z" fill="#17222D"/>
<path d="M126 135.6H116.4V145.2H126L126 135.6Z" fill="#17222D"/>
<path d="M135.6 135.6H126L126 145.2H135.6V135.6Z" fill="#17222D"/>
<path d="M154.8 135.6H145.2V145.2H154.8V135.6Z" fill="#17222D"/>
<path d="M193.2 135.6H183.6V145.2H193.2V135.6Z" fill="#17222D"/>
<path d="M212.4 135.6H202.8L202.8 145.2H212.4V135.6Z" fill="#17222D"/>
<path d="M222 135.6H212.4V145.2H222V135.6Z" fill="#17222D"/>
<path d="M260.4 135.6H250.8V145.2H260.4V135.6Z" fill="#17222D"/>
<path d="M270 135.6H260.4V145.2H270V135.6Z" fill="#17222D"/>
<path d="M39.6 145.2H30V154.8H39.6V145.2Z" fill="#17222D"/>
<path d="M49.2 145.2H39.6V154.8H49.2V145.2Z" fill="#17222D"/>
<path d="M97.2 145.2H87.6V154.8H97.2L97.2 145.2Z" fill="#17222D"/>
<path d="M106.8 145.2H97.2L97.2 154.8H106.8V145.2Z" fill="#17222D"/>
<path d="M135.6 145.2H126L126 154.8H135.6V145.2Z" fill="#17222D"/>
<path d="M145.2 145.2H135.6V154.8H145.2V145.2Z" fill="#17222D"/>
<path d="M164.4 145.2H154.8L154.8 154.8H164.4V145.2Z" fill="#17222D"/>
<path d="M193.2 145.2H183.6V154.8H193.2V145.2Z" fill="#17222D"/>
<path d="M212.4 145.2H202.8V154.8H212.4V145.2Z" fill="#17222D"/>
<path d="M222 145.2H212.4V154.8H222V145.2Z" fill="#17222D"/>
<path d="M250.8 145.2H241.2V154.8H250.8L250.8 145.2Z" fill="#17222D"/>
<path d="M260.4 145.2H250.8L250.8 154.8H260.4V145.2Z" fill="#17222D"/>
<path d="M270 145.2H260.4V154.8H270V145.2Z" fill="#17222D"/>
<path d="M49.2 154.8H39.6V164.4H49.2V154.8Z" fill="#17222D"/>
<path d="M68.4 154.8H58.8V164.4H68.4V154.8Z" fill="#17222D"/>
<path d="M78 154.8H68.4V164.4H78V154.8Z" fill="#17222D"/>
<path d="M87.6 154.8L78 154.8V164.4H87.6V154.8Z" fill="#17222D"/>
<path d="M116.4 154.8L106.8 154.8L106.8 164.4H116.4V154.8Z" fill="#17222D"/>
<path d="M126 154.8L116.4 154.8V164.4H126L126 154.8Z" fill="#17222D"/>
<path d="M135.6 154.8H126L126 164.4H135.6V154.8Z" fill="#17222D"/>
<path d="M145.2 154.8H135.6V164.4H145.2V154.8Z" fill="#17222D"/>
<path d="M164.4 154.8H154.8V164.4H164.4V154.8Z" fill="#17222D"/>
<path d="M193.2 154.8H183.6V164.4H193.2V154.8Z" fill="#17222D"/>
<path d="M231.6 154.8L222 154.8L222 164.4H231.6V154.8Z" fill="#17222D"/>
<path d="M260.4 154.8H250.8L250.8 164.4H260.4V154.8Z" fill="#17222D"/>
<path d="M270 154.8H260.4V164.4H270V154.8Z" fill="#17222D"/>
<path d="M39.6 164.4H30V174H39.6V164.4Z" fill="#17222D"/>
<path d="M58.8 164.4H49.2V174H58.8L58.8 164.4Z" fill="#17222D"/>
<path d="M68.4 164.4H58.8L58.8 174H68.4V164.4Z" fill="#17222D"/>
<path d="M87.6 164.4H78L78 174H87.6V164.4Z" fill="#17222D"/>
<path d="M97.2 164.4H87.6V174H97.2V164.4Z" fill="#17222D"/>
<path d="M106.8 164.4H97.2V174H106.8L106.8 164.4Z" fill="#17222D"/>
<path d="M135.6 164.4H126L126 174H135.6V164.4Z" fill="#17222D"/>
<path d="M183.6 164.4H174V174H183.6V164.4Z" fill="#17222D"/>
<path d="M193.2 164.4H183.6V174H193.2V164.4Z" fill="#17222D"/>
<path d="M202.8 164.4H193.2V174H202.8V164.4Z" fill="#17222D"/>
<path d="M212.4 164.4H202.8V174H212.4V164.4Z" fill="#17222D"/>
<path d="M241.2 164.4H231.6L231.6 174H241.2V164.4Z" fill="#17222D"/>
<path d="M260.4 164.4H250.8V174H260.4V164.4Z" fill="#17222D"/>
<path d="M270 164.4H260.4V174H270V164.4Z" fill="#17222D"/>
<path d="M49.2 174H39.6V183.6H49.2V174Z" fill="#17222D"/>
<path d="M58.8 174H49.2V183.6H58.8V174Z" fill="#17222D"/>
<path d="M78 174H68.4L68.4 183.6H78L78 174Z" fill="#17222D"/>
<path d="M87.6 174H78L78 183.6H87.6V174Z" fill="#17222D"/>
<path d="M135.6 174H126V183.6H135.6V174Z" fill="#17222D"/>
<path d="M145.2 174H135.6V183.6H145.2V174Z" fill="#17222D"/>
<path d="M164.4 174H154.8V183.6H164.4V174Z" fill="#17222D"/>
<path d="M174 174H164.4V183.6H174V174Z" fill="#17222D"/>
<path d="M212.4 174H202.8L202.8 183.6H212.4V174Z" fill="#17222D"/>
<path d="M222 174H212.4V183.6H222V174Z" fill="#17222D"/>
<path d="M39.6 183.6H30V193.2H39.6V183.6Z" fill="#17222D"/>
<path d="M78 183.6H68.4V193.2H78V183.6Z" fill="#17222D"/>
<path d="M87.6 183.6H78V193.2H87.6V183.6Z" fill="#17222D"/>
<path d="M97.2 183.6H87.6V193.2H97.2V183.6Z" fill="#17222D"/>
<path d="M116.4 183.6H106.8V193.2H116.4V183.6Z" fill="#17222D"/>
<path d="M135.6 183.6H126V193.2H135.6V183.6Z" fill="#17222D"/>
<path d="M154.8 183.6H145.2V193.2H154.8L154.8 183.6Z" fill="#17222D"/>
<path d="M193.2 183.6H183.6V193.2H193.2V183.6Z" fill="#17222D"/>
<path d="M202.8 183.6H193.2V193.2H202.8L202.8 183.6Z" fill="#17222D"/>
<path d="M212.4 183.6H202.8L202.8 193.2H212.4V183.6Z" fill="#17222D"/>
<path d="M222 183.6H212.4V193.2H222V183.6Z" fill="#17222D"/>
<path d="M231.6 183.6H222V193.2H231.6V183.6Z" fill="#17222D"/>
<path d="M250.8 183.6H241.2V193.2H250.8V183.6Z" fill="#17222D"/>
<path d="M270 183.6H260.4V193.2H270V183.6Z" fill="#17222D"/>
<path d="M116.4 193.2H106.8V202.8H116.4V193.2Z" fill="#17222D"/>
<path d="M126 193.2H116.4V202.8H126L126 193.2Z" fill="#17222D"/>
<path d="M135.6 193.2H126L126 202.8H135.6V193.2Z" fill="#17222D"/>
<path d="M145.2 193.2H135.6V202.8H145.2V193.2Z" fill="#17222D"/>
<path d="M154.8 193.2H145.2V202.8H154.8V193.2Z" fill="#17222D"/>
<path d="M164.4 193.2H154.8V202.8H164.4V193.2Z" fill="#17222D"/>
<path d="M193.2 193.2H183.6V202.8H193.2V193.2Z" fill="#17222D"/>
<path d="M231.6 193.2H222L222 202.8H231.6V193.2Z" fill="#17222D"/>
<path d="M260.4 193.2H250.8L250.8 202.8H260.4L260.4 193.2Z" fill="#17222D"/>
<path d="M116.4 202.8H106.8V212.4H116.4V202.8Z" fill="#17222D"/>
<path d="M145.2 202.8H135.6V212.4H145.2V202.8Z" fill="#17222D"/>
<path d="M154.8 202.8H145.2V212.4H154.8V202.8Z" fill="#17222D"/>
<path d="M164.4 202.8H154.8V212.4H164.4V202.8Z" fill="#17222D"/>
<path d="M183.6 202.8L174 202.8V212.4H183.6V202.8Z" fill="#17222D"/>
<path d="M193.2 202.8H183.6V212.4H193.2V202.8Z" fill="#17222D"/>
<path d="M212.4 202.8H202.8V212.4H212.4V202.8Z" fill="#17222D"/>
<path d="M231.6 202.8H222V212.4H231.6V202.8Z" fill="#17222D"/>
<path d="M241.2 202.8L231.6 202.8V212.4H241.2V202.8Z" fill="#17222D"/>
<path d="M260.4 202.8H250.8V212.4H260.4V202.8Z" fill="#17222D"/>
<path d="M270 202.8L260.4 202.8V212.4H270V202.8Z" fill="#17222D"/>
<path d="M116.4 212.4H106.8V222H116.4V212.4Z" fill="#17222D"/>
<path d="M135.6 212.4L126 212.4V222H135.6V212.4Z" fill="#17222D"/>
<path d="M154.8 212.4H145.2V222H154.8V212.4Z" fill="#17222D"/>
<path d="M174 212.4H164.4V222H174V212.4Z" fill="#17222D"/>
<path d="M193.2 212.4H183.6V222H193.2V212.4Z" fill="#17222D"/>
<path d="M231.6 212.4H222V222H231.6V212.4Z" fill="#17222D"/>
<path d="M241.2 212.4H231.6V222H241.2V212.4Z" fill="#17222D"/>
<path d="M260.4 212.4H250.8V222H260.4V212.4Z" fill="#17222D"/>
<path d="M270 212.4H260.4V222H270V212.4Z" fill="#17222D"/>
<path d="M116.4 222H106.8V231.6H116.4V222Z" fill="#17222D"/>
<path d="M126 222H116.4V231.6H126L126 222Z" fill="#17222D"/>
<path d="M145.2 222H135.6V231.6H145.2V222Z" fill="#17222D"/>
<path d="M154.8 222H145.2V231.6H154.8V222Z" fill="#17222D"/>
<path d="M174 222H164.4V231.6H174V222Z" fill="#17222D"/>
<path d="M183.6 222H174V231.6H183.6V222Z" fill="#17222D"/>
<path d="M193.2 222H183.6V231.6H193.2V222Z" fill="#17222D"/>
<path d="M202.8 222L193.2 222V231.6H202.8V222Z" fill="#17222D"/>
<path d="M212.4 222H202.8V231.6H212.4V222Z" fill="#17222D"/>
<path d="M222 222L212.4 222V231.6H222L222 222Z" fill="#17222D"/>
<path d="M231.6 222H222L222 231.6H231.6V222Z" fill="#17222D"/>
<path d="M250.8 222H241.2L241.2 231.6H250.8L250.8 222Z" fill="#17222D"/>
<path d="M126 231.6H116.4V241.2H126V231.6Z" fill="#17222D"/>
<path d="M145.2 231.6H135.6V241.2H145.2V231.6Z" fill="#17222D"/>
<path d="M164.4 231.6H154.8L154.8 241.2H164.4V231.6Z" fill="#17222D"/>
<path d="M183.6 231.6H174V241.2H183.6V231.6Z" fill="#17222D"/>
<path d="M193.2 231.6H183.6V241.2H193.2V231.6Z" fill="#17222D"/>
<path d="M202.8 231.6H193.2V241.2H202.8V231.6Z" fill="#17222D"/>
<path d="M222 231.6H212.4L212.4 241.2H222V231.6Z" fill="#17222D"/>
<path d="M231.6 231.6H222V241.2H231.6V231.6Z" fill="#17222D"/>
<path d="M116.4 241.2L106.8 241.2V250.8H116.4V241.2Z" fill="#17222D"/>
<path d="M135.6 241.2H126L126 250.8H135.6V241.2Z" fill="#17222D"/>
<path d="M154.8 241.2H145.2V250.8H154.8L154.8 241.2Z" fill="#17222D"/>
<path d="M164.4 241.2H154.8L154.8 250.8H164.4V241.2Z" fill="#17222D"/>
<path d="M183.6 241.2H174V250.8H183.6V241.2Z" fill="#17222D"/>
<path d="M193.2 241.2H183.6V250.8H193.2V241.2Z" fill="#17222D"/>
<path d="M241.2 241.2L231.6 241.2L231.6 250.8H241.2V241.2Z" fill="#17222D"/>
<path d="M270 241.2H260.4V250.8H270V241.2Z" fill="#17222D"/>
<path d="M116.4 250.8H106.8V260.4H116.4V250.8Z" fill="#17222D"/>
<path d="M126 250.8H116.4V260.4H126L126 250.8Z" fill="#17222D"/>
<path d="M145.2 250.8H135.6V260.4H145.2V250.8Z" fill="#17222D"/>
<path d="M164.4 250.8H154.8L154.8 260.4H164.4V250.8Z" fill="#17222D"/>
<path d="M174 250.8H164.4V260.4H174V250.8Z" fill="#17222D"/>
<path d="M193.2 250.8H183.6V260.4H193.2V250.8Z" fill="#17222D"/>
<path d="M231.6 250.8L222 250.8V260.4H231.6L231.6 250.8Z" fill="#17222D"/>
<path d="M241.2 250.8H231.6L231.6 260.4H241.2V250.8Z" fill="#17222D"/>
<path d="M270 250.8H260.4V260.4H270V250.8Z" fill="#17222D"/>
<path d="M116.4 260.4H106.8V270H116.4V260.4Z" fill="#17222D"/>
<path d="M154.8 260.4H145.2V270H154.8L154.8 260.4Z" fill="#17222D"/>
<path d="M164.4 260.4H154.8L154.8 270H164.4V260.4Z" fill="#17222D"/>
<path d="M193.2 260.4H183.6V270H193.2V260.4Z" fill="#17222D"/>
<path d="M231.6 260.4H222V270H231.6V260.4Z" fill="#17222D"/>
<path d="M241.2 260.4H231.6V270H241.2V260.4Z" fill="#17222D"/>
<path d="M260.4 260.4L250.8 260.4V270H260.4L260.4 260.4Z" fill="#17222D"/>
<path d="M270 260.4H260.4L260.4 270H270V260.4Z" fill="#17222D"/>
<path d="M32.0352 29.9904C30.912 29.9904 29.9904 30.912 29.9904 32.0352V95.1648C29.9904 96.288 30.9024 97.2096 32.0352 97.2096H95.1648C96.288 97.2096 97.2096 96.2976 97.2096 95.1648V32.0352C97.2096 30.912 96.2976 29.9904 95.1648 29.9904H32.0352ZM87.6 86.4288C87.6 87.0816 87.072 87.6 86.4288 87.6H40.7712C40.1184 87.6 39.6 87.072 39.6 86.4288V40.7712C39.6 40.1184 40.128 39.6 40.7712 39.6H86.4288C87.0816 39.6 87.6 40.128 87.6 40.7712V86.4288Z" fill="black"/>
<path d="M78 51.2352C78 50.112 77.088 49.1904 75.9552 49.1904H51.2352C50.112 49.1904 49.1904 50.1024 49.1904 51.2352V75.9648C49.1904 77.088 50.1024 78.0096 51.2352 78.0096H75.9552C77.0784 78.0096 78 77.0976 78 75.9648V51.2352Z" fill="black"/>
<path d="M204.835 29.9904C203.712 29.9904 202.79 30.912 202.79 32.0352V95.1648C202.79 96.288 203.702 97.2096 204.835 97.2096H267.965C269.088 97.2096 270.01 96.2976 270.01 95.1648V32.0352C270.01 30.912 269.098 29.9904 267.965 29.9904H204.835ZM260.4 86.4288C260.4 87.0816 259.872 87.6 259.229 87.6H213.571C212.918 87.6 212.4 87.072 212.4 86.4288V40.7712C212.4 40.1184 212.928 39.6 213.571 39.6H259.229C259.882 39.6 260.4 40.128 260.4 40.7712V86.4288Z" fill="black"/>
<path d="M250.8 51.2352C250.8 50.112 249.888 49.1904 248.755 49.1904H224.035C222.912 49.1904 221.99 50.1024 221.99 51.2352V75.9648C221.99 77.088 222.902 78.0096 224.035 78.0096H248.755C249.878 78.0096 250.8 77.0976 250.8 75.9648V51.2352Z" fill="black"/>
<path d="M32.0352 202.79C30.912 202.79 29.9904 203.712 29.9904 204.835V267.965C29.9904 269.088 30.9024 270.01 32.0352 270.01H95.1648C96.288 270.01 97.2096 269.098 97.2096 267.965V204.835C97.2096 203.712 96.2976 202.79 95.1648 202.79H32.0352ZM87.6 259.229C87.6 259.882 87.072 260.4 86.4288 260.4H40.7712C40.1184 260.4 39.6 259.872 39.6 259.229V213.571C39.6 212.918 40.128 212.4 40.7712 212.4H86.4288C87.0816 212.4 87.6 212.928 87.6 213.571V259.229Z" fill="black"/>
<path d="M78 224.035C78 222.912 77.088 221.99 75.9552 221.99H51.2352C50.112 221.99 49.1904 222.902 49.1904 224.035V248.765C49.1904 249.888 50.1024 250.81 51.2352 250.81H75.9552C77.0784 250.81 78 249.898 78 248.765V224.035Z" fill="black"/>
</svg>
